G04*
G04 #@! TF.GenerationSoftware,Altium Limited,Altium Designer,18.1.1 (9)*
G04*
G04 Layer_Color=8421504*
%FSAX25Y25*%
%MOIN*%
G70*
G01*
G75*
%ADD19C,0.12205*%
%ADD20R,0.03543X0.02756*%
%ADD21R,0.02756X0.03543*%
%ADD22R,0.04701X0.02205*%
%ADD23R,0.03740X0.10236*%
%ADD24R,0.03740X0.09843*%
%ADD25R,0.04331X0.04803*%
%ADD26R,0.01772X0.03347*%
%ADD27R,0.15748X0.15748*%
%ADD28R,0.05118X0.01575*%
%ADD29R,0.01575X0.05118*%
%ADD30R,0.01378X0.10236*%
%ADD31R,0.00984X0.03543*%
%ADD32R,0.06299X0.00787*%
%ADD33R,0.01772X0.03937*%
%ADD34R,0.01968X0.01772*%
%ADD35R,0.03600X0.03200*%
%ADD36R,0.03543X0.06693*%
%ADD37R,0.06693X0.03543*%
%ADD38R,0.09606X0.03504*%
%ADD39R,0.09606X0.22047*%
%ADD40R,0.04724X0.06496*%
%ADD41O,0.00984X0.07480*%
%ADD42R,0.12598X0.03937*%
%ADD43R,0.13780X0.12300*%
%ADD44R,0.03937X0.01772*%
%ADD45R,0.01400X0.05600*%
%ADD46R,0.07100X0.07500*%
%ADD47R,0.07500X0.07500*%
%ADD48R,0.03150X0.02756*%
%ADD49O,0.05512X0.01181*%
%ADD50R,0.01595X0.02992*%
%ADD51R,0.01595X0.03898*%
%ADD52R,0.02559X0.03937*%
%ADD53R,0.16339X0.18307*%
%ADD54R,0.05709X0.04528*%
%ADD55R,0.07008X0.27559*%
D19*
X0524000Y0547500D02*
D03*
Y0727500D02*
D03*
X0898500Y0547500D02*
D03*
Y0727500D02*
D03*
D20*
X0656000Y0566744D02*
D03*
Y0572256D02*
D03*
X0862500Y0691256D02*
D03*
Y0685744D02*
D03*
X0734500Y0704256D02*
D03*
Y0698744D02*
D03*
X0719000Y0704256D02*
D03*
Y0698744D02*
D03*
X0703500Y0704256D02*
D03*
Y0698744D02*
D03*
X0688500Y0704256D02*
D03*
Y0698744D02*
D03*
X0673500Y0704256D02*
D03*
Y0698744D02*
D03*
X0658500Y0704256D02*
D03*
Y0698744D02*
D03*
X0643500Y0704256D02*
D03*
Y0698744D02*
D03*
X0628500Y0704256D02*
D03*
Y0698744D02*
D03*
X0613500Y0704256D02*
D03*
Y0698744D02*
D03*
X0598500Y0704256D02*
D03*
Y0698744D02*
D03*
X0583500Y0704256D02*
D03*
Y0698744D02*
D03*
X0568500Y0704256D02*
D03*
Y0698744D02*
D03*
X0739500D02*
D03*
Y0704256D02*
D03*
X0724000Y0698744D02*
D03*
Y0704256D02*
D03*
X0708500Y0698744D02*
D03*
Y0704256D02*
D03*
X0693500Y0698744D02*
D03*
Y0704256D02*
D03*
X0678500Y0698744D02*
D03*
Y0704256D02*
D03*
X0663500Y0698744D02*
D03*
Y0704256D02*
D03*
X0648500Y0698744D02*
D03*
Y0704256D02*
D03*
X0633500Y0698744D02*
D03*
Y0704256D02*
D03*
X0618500Y0698744D02*
D03*
Y0704256D02*
D03*
X0603500Y0698744D02*
D03*
Y0704256D02*
D03*
X0588500Y0698744D02*
D03*
Y0704256D02*
D03*
X0573500Y0698744D02*
D03*
Y0704256D02*
D03*
X0679000Y0657256D02*
D03*
Y0651744D02*
D03*
X0684500D02*
D03*
Y0657256D02*
D03*
X0646000Y0566744D02*
D03*
X0646000Y0572256D02*
D03*
X0651000Y0566744D02*
D03*
Y0572256D02*
D03*
X0698000Y0600244D02*
D03*
Y0605756D02*
D03*
X0659500Y0603244D02*
D03*
Y0608756D02*
D03*
X0674500D02*
D03*
Y0603244D02*
D03*
X0644500Y0605756D02*
D03*
Y0600244D02*
D03*
X0598000Y0660244D02*
D03*
Y0665756D02*
D03*
Y0650244D02*
D03*
Y0655756D02*
D03*
Y0640244D02*
D03*
Y0645756D02*
D03*
X0735000Y0646744D02*
D03*
Y0652256D02*
D03*
X0689500Y0642744D02*
D03*
Y0648256D02*
D03*
X0694000Y0642744D02*
D03*
Y0648256D02*
D03*
X0693000Y0605756D02*
D03*
Y0600244D02*
D03*
X0769000Y0585256D02*
D03*
X0769000Y0579744D02*
D03*
X0764000D02*
D03*
Y0585256D02*
D03*
X0833500Y0603256D02*
D03*
Y0597744D02*
D03*
X0828500Y0603256D02*
D03*
Y0597744D02*
D03*
X0835000Y0684744D02*
D03*
Y0690256D02*
D03*
X0857500Y0685744D02*
D03*
Y0691256D02*
D03*
X0804500Y0679756D02*
D03*
Y0674244D02*
D03*
X0799500Y0679756D02*
D03*
Y0674244D02*
D03*
X0664500Y0608756D02*
D03*
Y0603244D02*
D03*
X0669500Y0608756D02*
D03*
Y0603244D02*
D03*
X0835000Y0701256D02*
D03*
Y0695744D02*
D03*
X0809500Y0685256D02*
D03*
Y0679744D02*
D03*
X0649500Y0600244D02*
D03*
Y0605756D02*
D03*
X0654500Y0603244D02*
D03*
Y0608756D02*
D03*
D21*
X0666756Y0576500D02*
D03*
X0661244D02*
D03*
X0739756Y0694000D02*
D03*
X0734244D02*
D03*
X0724256D02*
D03*
X0718744D02*
D03*
X0708756D02*
D03*
X0703244D02*
D03*
X0693756D02*
D03*
X0688244D02*
D03*
X0678756D02*
D03*
X0673244D02*
D03*
X0663756D02*
D03*
X0658244D02*
D03*
X0648756D02*
D03*
X0643244D02*
D03*
X0633756D02*
D03*
X0628244D02*
D03*
X0618756D02*
D03*
X0613244D02*
D03*
X0603756D02*
D03*
X0598244D02*
D03*
X0588756D02*
D03*
X0583244D02*
D03*
X0573756D02*
D03*
X0568244D02*
D03*
X0685244Y0638000D02*
D03*
X0690756D02*
D03*
X0689244Y0588000D02*
D03*
X0694756D02*
D03*
X0708256D02*
D03*
X0702744D02*
D03*
X0641244Y0592000D02*
D03*
X0646756Y0592000D02*
D03*
X0698244Y0611500D02*
D03*
X0703756D02*
D03*
Y0616500D02*
D03*
X0698244D02*
D03*
X0690756Y0620000D02*
D03*
X0685244D02*
D03*
X0819256Y0584000D02*
D03*
X0813744D02*
D03*
X0819256Y0607000D02*
D03*
X0813744D02*
D03*
X0754244Y0585000D02*
D03*
X0759756D02*
D03*
X0722744Y0579500D02*
D03*
X0728256D02*
D03*
X0722744Y0604000D02*
D03*
X0728256D02*
D03*
X0722744Y0585000D02*
D03*
X0728256D02*
D03*
X0749256Y0579500D02*
D03*
X0743744D02*
D03*
Y0585000D02*
D03*
X0749256D02*
D03*
X0779256D02*
D03*
X0773744D02*
D03*
X0850256Y0559000D02*
D03*
X0844744D02*
D03*
X0685244Y0629000D02*
D03*
X0690756D02*
D03*
X0649756Y0610500D02*
D03*
X0644244D02*
D03*
X0840756Y0643000D02*
D03*
X0835244D02*
D03*
Y0637500D02*
D03*
X0840756D02*
D03*
X0841744Y0724000D02*
D03*
X0847256D02*
D03*
X0829756Y0584000D02*
D03*
X0824244D02*
D03*
X0690756Y0624500D02*
D03*
X0685244D02*
D03*
X0690756Y0633500D02*
D03*
X0685244D02*
D03*
X0841744Y0718500D02*
D03*
X0847256D02*
D03*
X0839756Y0584000D02*
D03*
X0834244D02*
D03*
X0840756Y0564500D02*
D03*
X0835244D02*
D03*
X0840756Y0559000D02*
D03*
X0835244D02*
D03*
D22*
X0863451Y0612000D02*
D03*
Y0617000D02*
D03*
Y0622000D02*
D03*
Y0627000D02*
D03*
X0843549Y0612000D02*
D03*
Y0617000D02*
D03*
Y0622000D02*
D03*
Y0627000D02*
D03*
D23*
X0782488Y0641000D02*
D03*
X0840012Y0675000D02*
D03*
X0782488Y0652000D02*
D03*
Y0630000D02*
D03*
D24*
X0793512Y0641000D02*
D03*
X0828988Y0675000D02*
D03*
X0793512Y0652000D02*
D03*
Y0630000D02*
D03*
D25*
X0678988Y0663000D02*
D03*
X0690012D02*
D03*
D26*
X0736500Y0576846D02*
D03*
X0733941Y0585154D02*
D03*
X0739059D02*
D03*
X0725819Y0590346D02*
D03*
X0723260Y0598654D02*
D03*
X0728378D02*
D03*
X0736500D02*
D03*
X0739059Y0590346D02*
D03*
X0733941D02*
D03*
X0747000Y0598654D02*
D03*
X0749559Y0590346D02*
D03*
X0744441D02*
D03*
X0754941D02*
D03*
X0760059D02*
D03*
X0757500Y0598654D02*
D03*
X0765441Y0590346D02*
D03*
X0770559D02*
D03*
X0768000Y0598654D02*
D03*
D27*
X0598000Y0568000D02*
D03*
D28*
X0617095Y0550874D02*
D03*
Y0554417D02*
D03*
Y0557961D02*
D03*
Y0561504D02*
D03*
Y0565047D02*
D03*
Y0568590D02*
D03*
Y0572134D02*
D03*
Y0575677D02*
D03*
Y0579220D02*
D03*
Y0582764D02*
D03*
Y0586307D02*
D03*
X0578905D02*
D03*
Y0582764D02*
D03*
Y0579220D02*
D03*
Y0575677D02*
D03*
Y0572134D02*
D03*
Y0568590D02*
D03*
Y0565047D02*
D03*
Y0561504D02*
D03*
D29*
X0587370Y0593984D02*
D03*
X0590913D02*
D03*
X0594457D02*
D03*
X0598000D02*
D03*
X0601543D02*
D03*
X0605087D02*
D03*
X0608630D02*
D03*
X0610795Y0542016D02*
D03*
X0582252D02*
D03*
D30*
X0602134Y0544575D02*
D03*
D31*
X0679094Y0598500D02*
D03*
X0681063D02*
D03*
X0683031D02*
D03*
X0685000D02*
D03*
X0679094Y0609484D02*
D03*
X0681063D02*
D03*
X0683032D02*
D03*
X0685000D02*
D03*
D32*
X0682047Y0603992D02*
D03*
D33*
X0820339Y0601618D02*
D03*
X0817780D02*
D03*
X0815221D02*
D03*
Y0591382D02*
D03*
X0817780D02*
D03*
X0820339D02*
D03*
X0812661D02*
D03*
Y0601618D02*
D03*
D34*
X0709374Y0593000D02*
D03*
X0718626D02*
D03*
X0573626Y0688000D02*
D03*
X0564374D02*
D03*
X0739626D02*
D03*
X0730374D02*
D03*
X0724126D02*
D03*
X0714874D02*
D03*
X0708626D02*
D03*
X0699374D02*
D03*
X0693626D02*
D03*
X0684374D02*
D03*
X0678626D02*
D03*
X0669374D02*
D03*
X0663626D02*
D03*
X0654374D02*
D03*
X0648626D02*
D03*
X0639374D02*
D03*
X0633626D02*
D03*
X0624374D02*
D03*
X0618626D02*
D03*
X0609374D02*
D03*
X0603626D02*
D03*
X0594374D02*
D03*
X0588626D02*
D03*
X0579374D02*
D03*
D35*
X0857063Y0703240D02*
D03*
Y0695700D02*
D03*
X0865400Y0699500D02*
D03*
X0829937Y0684760D02*
D03*
Y0692300D02*
D03*
X0821600Y0688500D02*
D03*
D36*
X0847291Y0634100D02*
D03*
X0858709D02*
D03*
D37*
X0856500Y0707791D02*
D03*
Y0719209D02*
D03*
X0864000Y0707791D02*
D03*
Y0719209D02*
D03*
D38*
X0802236Y0706724D02*
D03*
X0821764D02*
D03*
D39*
Y0723004D02*
D03*
X0802236D02*
D03*
D40*
X0689701Y0656000D02*
D03*
X0702299D02*
D03*
D41*
X0633331Y0623713D02*
D03*
X0635299D02*
D03*
X0637268D02*
D03*
X0639236D02*
D03*
X0641205D02*
D03*
X0643173D02*
D03*
X0645142D02*
D03*
X0647110D02*
D03*
X0649079D02*
D03*
X0651047D02*
D03*
X0653016D02*
D03*
X0654984D02*
D03*
X0656953D02*
D03*
X0658921D02*
D03*
X0660890D02*
D03*
X0662858D02*
D03*
X0664827D02*
D03*
X0666795D02*
D03*
X0668764D02*
D03*
X0670732D02*
D03*
X0672701D02*
D03*
X0674669D02*
D03*
X0633331Y0650287D02*
D03*
X0635299D02*
D03*
X0637268D02*
D03*
X0639236D02*
D03*
X0641205D02*
D03*
X0643173D02*
D03*
X0645142D02*
D03*
X0647110D02*
D03*
X0649079D02*
D03*
X0651047D02*
D03*
X0653016D02*
D03*
X0654984D02*
D03*
X0656953D02*
D03*
X0658921D02*
D03*
X0660890D02*
D03*
X0662858D02*
D03*
X0664827D02*
D03*
X0666795D02*
D03*
X0668764D02*
D03*
X0670732D02*
D03*
X0672701D02*
D03*
X0674669D02*
D03*
D42*
X0879854Y0659500D02*
D03*
X0849146D02*
D03*
D43*
X0865000Y0602100D02*
D03*
Y0566900D02*
D03*
D44*
X0831382Y0578339D02*
D03*
Y0575780D02*
D03*
Y0573220D02*
D03*
X0841618D02*
D03*
Y0575780D02*
D03*
Y0578339D02*
D03*
Y0570661D02*
D03*
X0831382D02*
D03*
D45*
X0752370Y0719000D02*
D03*
X0742052D02*
D03*
X0749811D02*
D03*
X0747252D02*
D03*
X0744652D02*
D03*
D46*
X0763000Y0729500D02*
D03*
X0731452D02*
D03*
D47*
X0752252D02*
D03*
X0742252D02*
D03*
D48*
X0826500Y0548150D02*
D03*
X0826500Y0541850D02*
D03*
X0838500Y0548150D02*
D03*
X0838500Y0541850D02*
D03*
X0844500Y0548150D02*
D03*
Y0541850D02*
D03*
X0832500Y0548150D02*
D03*
Y0541850D02*
D03*
X0563500Y0697850D02*
D03*
Y0704150D02*
D03*
X0578500Y0697850D02*
D03*
Y0704150D02*
D03*
X0593500Y0697850D02*
D03*
Y0704150D02*
D03*
X0608500Y0697850D02*
D03*
Y0704150D02*
D03*
X0623500Y0697850D02*
D03*
Y0704150D02*
D03*
X0638500Y0697850D02*
D03*
Y0704150D02*
D03*
X0653500Y0697850D02*
D03*
Y0704150D02*
D03*
X0668500Y0697850D02*
D03*
Y0704150D02*
D03*
X0683500Y0697850D02*
D03*
Y0704150D02*
D03*
X0698500Y0697850D02*
D03*
Y0704150D02*
D03*
X0714000Y0697850D02*
D03*
Y0704150D02*
D03*
X0729500Y0697850D02*
D03*
Y0704150D02*
D03*
D49*
X0800642Y0701437D02*
D03*
Y0699469D02*
D03*
Y0697500D02*
D03*
Y0695531D02*
D03*
Y0693563D02*
D03*
X0818358Y0701437D02*
D03*
Y0699469D02*
D03*
Y0697500D02*
D03*
Y0695531D02*
D03*
Y0693563D02*
D03*
D50*
X0843102Y0687198D02*
D03*
X0845701D02*
D03*
X0848299D02*
D03*
X0850898D02*
D03*
D51*
X0843102Y0698950D02*
D03*
X0845701D02*
D03*
X0848299D02*
D03*
X0850898D02*
D03*
D52*
X0694634Y0582571D02*
D03*
X0686366D02*
D03*
X0694634Y0566429D02*
D03*
X0686366D02*
D03*
X0709134Y0582571D02*
D03*
X0700866D02*
D03*
X0709134Y0566429D02*
D03*
X0700866D02*
D03*
D53*
X0876500Y0627937D02*
D03*
D54*
X0872622Y0613173D02*
D03*
X0880378D02*
D03*
D55*
X0823657Y0650000D02*
D03*
X0803343D02*
D03*
M02*
