G04*
G04 #@! TF.GenerationSoftware,Altium Limited,Altium Designer,18.1.1 (9)*
G04*
G04 Layer_Color=32896*
%FSAX25Y25*%
%MOIN*%
G70*
G01*
G75*
%ADD10C,0.00984*%
%ADD11C,0.00394*%
%ADD12C,0.02362*%
%ADD13C,0.01000*%
%ADD16C,0.00787*%
%ADD17C,0.00500*%
%ADD18C,0.00300*%
%ADD184C,0.00600*%
%ADD185C,0.01575*%
%ADD186C,0.00299*%
G36*
X0617406Y0562500D02*
Y0561500D01*
X0615906D01*
Y0562500D01*
X0617406Y0562500D01*
D02*
G37*
G36*
X0630406Y0593100D02*
Y0594100D01*
X0628906D01*
Y0593100D01*
X0630406D01*
D02*
G37*
G36*
X0663638Y0609439D02*
X0663638Y0607939D01*
X0662638Y0607939D01*
Y0609439D01*
X0663638Y0609439D01*
D02*
G37*
G36*
X0684482Y0590563D02*
Y0589563D01*
X0682982D01*
Y0590563D01*
X0684482D01*
D02*
G37*
G36*
X0617406Y0621500D02*
X0617406Y0620500D01*
X0615906D01*
Y0621500D01*
X0617406Y0621500D01*
D02*
G37*
G36*
X0630406Y0652100D02*
Y0653100D01*
X0628906D01*
Y0652100D01*
X0630406D01*
D02*
G37*
G36*
X0663638Y0629124D02*
Y0627624D01*
X0662638D01*
X0662638Y0629124D01*
X0663638Y0629124D01*
D02*
G37*
G36*
Y0648809D02*
Y0647309D01*
X0662638D01*
Y0648809D01*
X0663638D01*
D02*
G37*
G36*
X0692356Y0658311D02*
X0690856D01*
X0690856Y0659311D01*
X0692356D01*
X0692356Y0658311D01*
D02*
G37*
G36*
X0712041Y0658311D02*
X0710541D01*
X0710541Y0659311D01*
X0712041D01*
X0712041Y0658311D01*
D02*
G37*
G36*
X0791400Y0646350D02*
Y0644850D01*
X0790400Y0644850D01*
Y0646350D01*
X0791400Y0646350D01*
D02*
G37*
G36*
X0732386Y0639435D02*
X0731386D01*
Y0640935D01*
X0732386D01*
Y0639435D01*
D02*
G37*
G36*
X0816900Y0634450D02*
X0815900D01*
Y0635950D01*
X0816900D01*
Y0634450D01*
D02*
G37*
G36*
X0732386Y0621250D02*
Y0619750D01*
X0731386Y0619750D01*
Y0621250D01*
X0732386Y0621250D01*
D02*
G37*
G36*
Y0600065D02*
X0731386D01*
Y0601565D01*
X0732386D01*
Y0600065D01*
D02*
G37*
G36*
X0704167Y0590563D02*
Y0589563D01*
X0702667D01*
X0702667Y0590563D01*
X0704167Y0590563D01*
D02*
G37*
D10*
X0833618Y0650598D02*
G03*
X0833618Y0650598I-0000394J0000000D01*
G01*
X0862598Y0734732D02*
G03*
X0862598Y0734732I-0000492J0000000D01*
G01*
X0729441Y0707000D02*
G03*
X0729441Y0707000I-0000492J0000000D01*
G01*
X0713941D02*
G03*
X0713941Y0707000I-0000492J0000000D01*
G01*
X0698441D02*
G03*
X0698441Y0707000I-0000492J0000000D01*
G01*
X0683441D02*
G03*
X0683441Y0707000I-0000492J0000000D01*
G01*
X0668441D02*
G03*
X0668441Y0707000I-0000492J0000000D01*
G01*
X0653441D02*
G03*
X0653441Y0707000I-0000492J0000000D01*
G01*
X0638441D02*
G03*
X0638441Y0707000I-0000492J0000000D01*
G01*
X0623441D02*
G03*
X0623441Y0707000I-0000492J0000000D01*
G01*
X0608441D02*
G03*
X0608441Y0707000I-0000492J0000000D01*
G01*
X0593441D02*
G03*
X0593441Y0707000I-0000492J0000000D01*
G01*
X0578441D02*
G03*
X0578441Y0707000I-0000492J0000000D01*
G01*
X0563441D02*
G03*
X0563441Y0707000I-0000492J0000000D01*
G01*
X0807999Y0597982D02*
G03*
X0807999Y0597982I-0000492J0000000D01*
G01*
X0840028Y0592610D02*
G03*
X0840028Y0592610I-0000492J0000000D01*
G01*
X0769055Y0651433D02*
G03*
X0769055Y0651433I-0000492J0000000D01*
G01*
X0771559Y0661563D02*
G03*
X0771559Y0661563I-0000492J0000000D01*
G01*
X0722338Y0565146D02*
G03*
X0722338Y0565146I-0000492J0000000D01*
G01*
D11*
X0859520Y0560653D02*
G03*
X0859520Y0560653I-0000197J0000000D01*
G01*
X0759102Y0720968D02*
G03*
X0759102Y0720968I-0000197J0000000D01*
G01*
X0779728Y0651905D02*
G03*
X0779728Y0651905I-0000197J0000000D01*
G01*
X0769291Y0628031D02*
G03*
X0769291Y0628031I-0000197J0000000D01*
G01*
D12*
X0803766Y0606152D02*
G03*
X0803766Y0606152I-0001181J0000000D01*
G01*
D13*
X0918185Y0727500D02*
G03*
X0918185Y0727500I-0019685J0000000D01*
G01*
Y0547500D02*
G03*
X0918185Y0547500I-0019685J0000000D01*
G01*
X0543685Y0727500D02*
G03*
X0543685Y0727500I-0019685J0000000D01*
G01*
X0541091Y0537734D02*
G03*
X0533188Y0564909I-0017091J0009766D01*
G01*
X0852500Y0632000D02*
G03*
X0852500Y0632000I-0000500J0000000D01*
G01*
X0606000Y0617000D02*
X0609000D01*
X0606000Y0618000D02*
X0609000D01*
Y0617000D02*
Y0618000D01*
X0606000Y0617000D02*
Y0618000D01*
X0850500Y0617000D02*
Y0618000D01*
X0853500Y0617000D02*
Y0618000D01*
X0850500D02*
X0853500D01*
X0850500Y0617000D02*
X0853500D01*
X0846075Y0545106D02*
Y0545894D01*
X0842925Y0545106D02*
Y0545894D01*
X0846075D01*
X0842925Y0545106D02*
X0846075Y0545106D01*
X0840075Y0545894D02*
X0840075Y0545106D01*
X0836925Y0545106D02*
X0836925Y0545894D01*
X0840075D01*
X0836925Y0545106D02*
X0840075Y0545106D01*
X0830925Y0545106D02*
X0834075D01*
X0830925Y0545894D02*
X0834075D01*
X0830925Y0545106D02*
Y0545894D01*
X0834075Y0545106D02*
Y0545894D01*
X0828075Y0545106D02*
Y0545894D01*
X0824925Y0545106D02*
Y0545894D01*
X0828075D01*
X0824925Y0545106D02*
X0828075Y0545106D01*
X0638500Y0661500D02*
X0641500D01*
X0638500Y0660500D02*
X0641500D01*
X0638500D02*
Y0661500D01*
X0641500Y0660500D02*
Y0661500D01*
X0633500D02*
X0636500D01*
X0633500Y0660500D02*
X0636500D01*
X0633500D02*
Y0661500D01*
X0636500Y0660500D02*
Y0661500D01*
X0628500D02*
X0631500D01*
X0628500Y0660500D02*
X0631500D01*
X0628500D02*
Y0661500D01*
X0631500Y0660500D02*
Y0661500D01*
X0621500D02*
X0624500D01*
X0621500Y0660500D02*
X0624500D01*
X0621500D02*
Y0661500D01*
X0624500Y0660500D02*
Y0661500D01*
X0615000Y0657000D02*
Y0660000D01*
X0616000Y0657000D02*
Y0660000D01*
X0615000Y0657000D02*
X0616000D01*
X0615000Y0660000D02*
X0616000D01*
X0600500Y0651000D02*
X0603500D01*
X0600500Y0652000D02*
X0603500D01*
Y0651000D02*
Y0652000D01*
X0600500Y0651000D02*
Y0652000D01*
X0605500Y0651000D02*
X0608500D01*
X0605500Y0652000D02*
X0608500D01*
Y0651000D02*
Y0652000D01*
X0605500Y0651000D02*
Y0652000D01*
X0607000Y0603000D02*
Y0606000D01*
X0608000Y0603000D02*
Y0606000D01*
X0607000Y0603000D02*
X0608000D01*
X0607000Y0606000D02*
X0608000D01*
X0607000Y0598000D02*
Y0601000D01*
X0608000Y0598000D02*
Y0601000D01*
X0607000Y0598000D02*
X0608000D01*
X0607000Y0601000D02*
X0608000D01*
X0617000Y0598000D02*
Y0601000D01*
X0618000Y0598000D02*
Y0601000D01*
X0617000Y0598000D02*
X0618000D01*
X0617000Y0601000D02*
X0618000D01*
X0615500Y0613000D02*
X0618500D01*
X0615500Y0614000D02*
X0618500D01*
Y0613000D02*
Y0614000D01*
X0615500Y0613000D02*
Y0614000D01*
X0620500Y0613000D02*
X0623500D01*
X0620500Y0614000D02*
X0623500D01*
Y0613000D02*
Y0614000D01*
X0620500Y0613000D02*
Y0614000D01*
X0623500Y0602500D02*
X0626500D01*
X0623500Y0601500D02*
X0626500D01*
X0623500D02*
Y0602500D01*
X0626500Y0601500D02*
Y0602500D01*
X0628500D02*
X0631500D01*
X0628500Y0601500D02*
X0631500D01*
X0628500D02*
Y0602500D01*
X0631500Y0601500D02*
Y0602500D01*
X0633500Y0603500D02*
X0636500D01*
X0633500Y0602500D02*
X0636500D01*
X0633500D02*
Y0603500D01*
X0636500Y0602500D02*
Y0603500D01*
X0638500D02*
X0641500D01*
X0638500Y0602500D02*
X0641500D01*
X0638500D02*
Y0603500D01*
X0641500Y0602500D02*
Y0603500D01*
X0584894Y0599925D02*
Y0603075D01*
X0584106Y0599925D02*
Y0603075D01*
Y0599925D02*
X0584894D01*
X0584106Y0603075D02*
X0584894Y0603075D01*
X0574894Y0599925D02*
X0574894Y0603075D01*
X0574106Y0603075D02*
X0574106Y0599925D01*
X0574894D01*
X0574106Y0603075D02*
X0574894Y0603075D01*
X0574894Y0608075D02*
X0574894Y0604925D01*
X0574106Y0608075D02*
X0574106Y0604925D01*
X0574894D01*
X0574106Y0608075D02*
X0574894D01*
X0584106D02*
X0584106Y0604925D01*
X0584894Y0604925D02*
Y0608075D01*
X0584106Y0608075D02*
X0584894Y0608075D01*
X0584106Y0604925D02*
X0584894Y0604925D01*
X0574106Y0609925D02*
Y0613075D01*
X0574894Y0609925D02*
X0574894Y0613075D01*
X0574106Y0613075D02*
X0574894Y0613075D01*
X0574106Y0609925D02*
X0574894D01*
X0584894Y0609925D02*
X0584894Y0613075D01*
X0584106Y0609925D02*
X0584106Y0613075D01*
X0584106Y0609925D02*
X0584894D01*
X0584106Y0613075D02*
X0584894D01*
X0620500Y0554000D02*
X0623500D01*
X0620500Y0555000D02*
X0623500D01*
Y0554000D02*
Y0555000D01*
X0620500Y0554000D02*
Y0555000D01*
X0615500Y0554000D02*
X0618500D01*
X0615500Y0555000D02*
X0618500D01*
Y0554000D02*
Y0555000D01*
X0615500Y0554000D02*
Y0555000D01*
X0604500Y0575000D02*
X0607500D01*
X0604500Y0574000D02*
X0607500D01*
X0604500D02*
Y0575000D01*
X0607500Y0574000D02*
Y0575000D01*
X0584894Y0594925D02*
Y0598075D01*
X0584106Y0594925D02*
Y0598075D01*
Y0594925D02*
X0584894D01*
X0584106Y0598075D02*
X0584894D01*
X0574894Y0594925D02*
Y0598075D01*
X0574106Y0594925D02*
Y0598075D01*
Y0594925D02*
X0574894Y0594925D01*
X0574106Y0598075D02*
X0574894D01*
Y0589925D02*
X0574894Y0593075D01*
X0574106Y0589925D02*
Y0593075D01*
Y0589925D02*
X0574894D01*
X0574106Y0593075D02*
X0574894D01*
X0584106Y0589925D02*
X0584106Y0593075D01*
X0584894Y0589925D02*
Y0593075D01*
X0584106D02*
X0584894D01*
X0584106Y0589925D02*
X0584894D01*
X0574107Y0584925D02*
Y0588075D01*
X0574894Y0584925D02*
Y0588075D01*
X0574107D02*
X0574894D01*
X0574107Y0584925D02*
X0574894D01*
X0584894Y0584925D02*
X0584894Y0588075D01*
X0584106Y0584925D02*
X0584106Y0588075D01*
X0584106Y0584925D02*
X0584894Y0584925D01*
X0584106Y0588075D02*
X0584894D01*
X0705000Y0583811D02*
Y0584811D01*
X0702000Y0583811D02*
Y0584811D01*
Y0583811D02*
X0705000D01*
X0702000Y0584811D02*
X0705000D01*
X0710000Y0583811D02*
Y0584811D01*
X0713000Y0583811D02*
Y0584811D01*
X0710000D02*
X0713000D01*
X0710000Y0583811D02*
X0713000D01*
X0855925Y0611606D02*
Y0612394D01*
X0859075Y0611606D02*
Y0612394D01*
X0855925Y0611606D02*
X0859075D01*
X0855925Y0612394D02*
X0859075Y0612394D01*
X0864575Y0602106D02*
Y0602894D01*
X0861425Y0602106D02*
Y0602894D01*
X0864575Y0602894D01*
X0861425Y0602106D02*
X0864575Y0602106D01*
Y0611606D02*
Y0612394D01*
X0861425Y0611606D02*
Y0612394D01*
X0864575Y0612394D01*
X0861425Y0611606D02*
X0864575D01*
X0787423Y0641706D02*
X0790573Y0641706D01*
X0787423Y0642494D02*
X0790573D01*
X0787423Y0641706D02*
Y0642494D01*
X0790573Y0641706D02*
Y0642494D01*
X0787423Y0651706D02*
X0790573D01*
X0787423Y0652494D02*
X0790573D01*
X0787423Y0651706D02*
X0787423Y0652494D01*
X0790573Y0651706D02*
Y0652494D01*
X0843106Y0654425D02*
X0843894D01*
X0843106Y0657575D02*
X0843894D01*
Y0654425D02*
Y0657575D01*
X0843106Y0654425D02*
Y0657575D01*
X0833000Y0657500D02*
X0834000D01*
X0833000Y0654500D02*
X0834000D01*
Y0657500D01*
X0833000Y0654500D02*
Y0657500D01*
X0726500Y0665500D02*
Y0671500D01*
X0721500Y0665500D02*
Y0671500D01*
Y0665500D02*
X0726500D01*
X0721500Y0671500D02*
X0726500D01*
X0650000Y0650811D02*
Y0655811D01*
X0656000Y0650811D02*
Y0655811D01*
X0650000Y0650811D02*
X0656000D01*
X0650000Y0655811D02*
X0656000D01*
X0565500Y0690000D02*
X0567500D01*
X0565500Y0695000D02*
X0567500D01*
Y0690000D02*
Y0695000D01*
X0565500Y0690000D02*
Y0695000D01*
X0580500Y0690000D02*
X0582500D01*
X0580500Y0695000D02*
X0582500D01*
Y0690000D02*
Y0695000D01*
X0580500Y0690000D02*
Y0695000D01*
X0595500Y0690000D02*
X0597500D01*
X0595500Y0695000D02*
X0597500D01*
Y0690000D02*
Y0695000D01*
X0595500Y0690000D02*
Y0695000D01*
X0610500Y0690000D02*
X0612500D01*
X0610500Y0695000D02*
X0612500D01*
Y0690000D02*
Y0695000D01*
X0610500Y0690000D02*
Y0695000D01*
X0625500Y0690000D02*
X0627500D01*
X0625500Y0695000D02*
X0627500D01*
Y0690000D02*
Y0695000D01*
X0625500Y0690000D02*
Y0695000D01*
X0640500Y0690000D02*
X0642500D01*
X0640500Y0695000D02*
X0642500D01*
Y0690000D02*
Y0695000D01*
X0640500Y0690000D02*
Y0695000D01*
X0655500Y0690000D02*
X0657500D01*
X0655500Y0695000D02*
X0657500D01*
Y0690000D02*
Y0695000D01*
X0655500Y0690000D02*
Y0695000D01*
X0670500Y0690000D02*
X0672500D01*
X0670500Y0695000D02*
X0672500D01*
Y0690000D02*
Y0695000D01*
X0670500Y0690000D02*
Y0695000D01*
X0685500Y0690000D02*
X0687500D01*
X0685500Y0695000D02*
X0687500D01*
Y0690000D02*
Y0695000D01*
X0685500Y0690000D02*
Y0695000D01*
X0700500Y0690000D02*
X0702500D01*
X0700500Y0695000D02*
X0702500D01*
Y0690000D02*
Y0695000D01*
X0700500Y0690000D02*
Y0695000D01*
X0716000Y0690000D02*
X0718000D01*
X0716000Y0695000D02*
X0718000D01*
Y0690000D02*
Y0695000D01*
X0716000Y0690000D02*
Y0695000D01*
X0731500Y0690000D02*
X0733500D01*
X0731500Y0695000D02*
X0733500D01*
Y0690000D02*
Y0695000D01*
X0731500Y0690000D02*
Y0695000D01*
X0700106Y0551075D02*
X0700894D01*
X0700106Y0547925D02*
X0700894D01*
X0700106D02*
Y0551075D01*
X0700894Y0547925D02*
X0700894Y0551075D01*
X0585425Y0562394D02*
X0588575D01*
X0585425Y0561606D02*
X0588575D01*
Y0562394D01*
X0585425Y0561606D02*
Y0562394D01*
X0640106Y0597075D02*
X0640894D01*
X0640106Y0593925D02*
X0640894D01*
X0640106D02*
Y0597075D01*
X0640894Y0593925D02*
Y0597075D01*
X0640106Y0655575D02*
X0640894D01*
X0640106Y0652425D02*
X0640894D01*
X0640106D02*
Y0655575D01*
X0640894Y0652425D02*
Y0655575D01*
X0853638Y0690500D02*
X0858362Y0692862D01*
Y0688138D02*
Y0692862D01*
X0853638Y0690500D02*
X0858362Y0688138D01*
X0853638D02*
Y0692862D01*
X0684841Y0540988D02*
X0688384Y0544531D01*
X0684053Y0540988D02*
X0684841Y0540988D01*
X0688384Y0540988D02*
X0688384Y0552012D01*
X0675786Y0540988D02*
Y0552012D01*
X0688384Y0552012D01*
X0675786Y0540988D02*
X0688384D01*
X0869362Y0645138D02*
Y0649862D01*
X0864638D02*
X0869362Y0647500D01*
X0864638Y0645138D02*
Y0649862D01*
Y0645138D02*
X0869362Y0647500D01*
X0856000Y0622500D02*
X0859000D01*
X0856000Y0623500D02*
X0859000D01*
Y0622500D02*
Y0623500D01*
X0856000Y0622500D02*
Y0623500D01*
X0864500Y0549500D02*
X0869500D01*
X0864500Y0543500D02*
X0869500D01*
X0864500D02*
Y0549500D01*
X0869500Y0543500D02*
Y0549500D01*
X0770500Y0639500D02*
X0772500D01*
X0770500Y0634500D02*
X0772500D01*
X0770500D02*
Y0639500D01*
X0772500Y0634500D02*
Y0639500D01*
X0722500Y0660500D02*
X0723500D01*
X0722500Y0663500D02*
X0723500D01*
X0722500Y0660500D02*
Y0663500D01*
X0723500Y0660500D02*
Y0663500D01*
X0737000Y0602311D02*
X0738000D01*
X0737000Y0599311D02*
X0738000D01*
Y0602311D01*
X0737000Y0599311D02*
Y0602311D01*
Y0597311D02*
X0738000D01*
X0737000Y0594311D02*
X0738000D01*
Y0597311D01*
X0737000Y0594311D02*
Y0597311D01*
X0685000Y0576811D02*
X0686000D01*
X0685000Y0579811D02*
X0686000D01*
X0685000Y0576811D02*
Y0579811D01*
X0686000Y0576811D02*
Y0579811D01*
X0685000Y0572311D02*
X0686000D01*
X0685000Y0575311D02*
X0686000D01*
X0685000Y0572311D02*
Y0575311D01*
X0686000Y0572311D02*
Y0575311D01*
X0685000Y0588811D02*
X0686000D01*
X0685000Y0585811D02*
X0686000D01*
Y0588811D01*
X0685000Y0585811D02*
Y0588811D01*
X0806000Y0655000D02*
X0807000D01*
X0806000Y0658000D02*
X0807000D01*
X0806000Y0655000D02*
Y0658000D01*
X0807000Y0655000D02*
Y0658000D01*
X0796498Y0655100D02*
X0797498D01*
X0796498Y0658100D02*
X0797498D01*
X0796498Y0655100D02*
Y0658100D01*
X0797498Y0655100D02*
Y0658100D01*
X0818500Y0652000D02*
X0819500D01*
X0818500Y0655000D02*
X0819500D01*
X0818500Y0652000D02*
Y0655000D01*
X0819500Y0652000D02*
Y0655000D01*
X0797500Y0627500D02*
X0798500D01*
X0797500Y0624500D02*
X0798500D01*
Y0627500D01*
X0797500Y0624500D02*
Y0627500D01*
X0869500Y0552000D02*
Y0558000D01*
X0864500Y0552000D02*
Y0558000D01*
Y0552000D02*
X0869500D01*
X0864500Y0558000D02*
X0869500D01*
X0714925Y0571650D02*
X0718075Y0571650D01*
X0714925Y0570862D02*
X0718075Y0570862D01*
X0718075Y0571650D02*
X0718075Y0570862D01*
X0714925Y0571650D02*
X0714925Y0570862D01*
X0861425Y0623394D02*
X0864575Y0623394D01*
X0861425Y0622606D02*
X0864575D01*
Y0623394D01*
X0861425Y0622606D02*
Y0623394D01*
X0700894Y0541925D02*
Y0545075D01*
X0700106Y0545075D02*
X0700106Y0541925D01*
X0700894Y0541925D01*
X0700106Y0545075D02*
X0700894Y0545075D01*
X0675622Y0553925D02*
Y0557075D01*
X0674835Y0553925D02*
Y0557075D01*
Y0553925D02*
X0675622Y0553925D01*
X0674835Y0557075D02*
X0675622Y0557075D01*
X0741925Y0619606D02*
X0745075D01*
X0741925Y0620394D02*
X0745075D01*
X0741925Y0619606D02*
X0741925Y0620394D01*
X0745075Y0619606D02*
Y0620394D01*
X0741925Y0610394D02*
X0745075D01*
X0741925Y0609606D02*
X0745075D01*
Y0610394D01*
X0741925Y0609606D02*
Y0610394D01*
X0733925Y0670106D02*
X0737075D01*
X0733925Y0670894D02*
X0737075Y0670894D01*
X0733925Y0670106D02*
Y0670894D01*
X0737075Y0670106D02*
Y0670894D01*
X0748425Y0706894D02*
X0751575D01*
X0748425Y0706106D02*
X0751575D01*
Y0706894D01*
X0748425Y0706106D02*
Y0706894D01*
X0743425D02*
X0746575D01*
X0743425Y0706106D02*
X0746575D01*
Y0706894D01*
X0743425Y0706106D02*
Y0706894D01*
X0557425Y0683394D02*
X0560575D01*
X0557425Y0682606D02*
X0560575D01*
Y0683394D01*
X0557425Y0682606D02*
Y0683394D01*
X0808500Y0614500D02*
X0811500D01*
X0808500Y0615500D02*
X0811500D01*
Y0614500D02*
Y0615500D01*
X0808500Y0614500D02*
Y0615500D01*
X0797244Y0588500D02*
X0800244D01*
X0797244Y0589500D02*
X0800244D01*
Y0588500D02*
Y0589500D01*
X0797244Y0588500D02*
Y0589500D01*
X0761000Y0639000D02*
X0764000D01*
X0761000Y0638000D02*
X0764000D01*
X0761000D02*
Y0639000D01*
X0764000Y0638000D02*
Y0639000D01*
X0761000Y0647500D02*
X0764000D01*
X0761000Y0648500D02*
X0764000D01*
Y0647500D02*
Y0648500D01*
X0761000Y0647500D02*
Y0648500D01*
X0832000Y0595000D02*
Y0598000D01*
X0831000Y0595000D02*
Y0598000D01*
X0832000D01*
X0831000Y0595000D02*
X0832000D01*
X0854500Y0588000D02*
Y0591000D01*
X0853500Y0588000D02*
Y0591000D01*
X0854500D01*
X0853500Y0588000D02*
X0854500D01*
X0685000Y0581311D02*
Y0584311D01*
X0686000Y0581311D02*
Y0584311D01*
X0685000Y0581311D02*
X0686000D01*
X0685000Y0584311D02*
X0686000D01*
X0658500Y0650311D02*
X0661500D01*
X0658500Y0649311D02*
X0661500D01*
X0658500D02*
Y0650311D01*
X0661500Y0649311D02*
Y0650311D01*
X0665000Y0591000D02*
Y0594000D01*
X0664000Y0591000D02*
Y0594000D01*
X0665000D01*
X0664000Y0591000D02*
X0665000D01*
X0693000Y0561311D02*
Y0564311D01*
X0694000Y0561311D02*
Y0564311D01*
X0693000Y0561311D02*
X0694000D01*
X0693000Y0564311D02*
X0694000D01*
X0704000Y0561311D02*
Y0564311D01*
X0703000Y0561311D02*
Y0564311D01*
X0704000D01*
X0703000Y0561311D02*
X0704000D01*
X0567000Y0679000D02*
Y0682000D01*
X0566000Y0679000D02*
Y0682000D01*
X0567000D01*
X0566000Y0679000D02*
X0567000D01*
X0773138Y0718862D02*
X0777862D01*
X0773138Y0714138D02*
X0775500Y0718862D01*
X0773138Y0714138D02*
X0777862D01*
X0775500Y0718862D02*
X0777862Y0714138D01*
D16*
X0845961Y0685776D02*
G03*
X0845961Y0685776I-0000197J0000000D01*
G01*
X0877433Y0652224D02*
G03*
X0877433Y0652224I-0000197J0000000D01*
G01*
X0776587Y0640650D02*
G03*
X0776587Y0640650I-0000197J0000000D01*
G01*
X0770972Y0726736D02*
G03*
X0770972Y0726736I-0000197J0000000D01*
G01*
X0819051Y0650598D02*
X0831650D01*
X0819051Y0638000D02*
X0831650D01*
X0789031Y0672437D02*
X0792968D01*
X0789031Y0664563D02*
X0792968D01*
X0789031Y0673563D02*
X0792968D01*
X0789031Y0681437D02*
X0792968D01*
X0840846Y0736169D02*
X0851870D01*
Y0694831D02*
Y0736169D01*
X0840846Y0694831D02*
X0851870D01*
X0737020Y0700366D02*
X0738890D01*
Y0703909D01*
X0730228Y0700366D02*
X0732098D01*
X0730228D02*
Y0703909D01*
X0714728Y0700366D02*
Y0703909D01*
Y0700366D02*
X0716598D01*
X0723390D02*
Y0703909D01*
X0721520Y0700366D02*
X0723390D01*
X0706020D02*
X0707890D01*
Y0703909D01*
X0699228Y0700366D02*
X0701098D01*
X0699228D02*
Y0703909D01*
X0684228Y0700366D02*
Y0703909D01*
Y0700366D02*
X0686098D01*
X0692890D02*
Y0703909D01*
X0691020Y0700366D02*
X0692890D01*
X0676020D02*
X0677890D01*
Y0703909D01*
X0669228Y0700366D02*
X0671098D01*
X0669228D02*
Y0703909D01*
X0654228Y0700366D02*
Y0703909D01*
Y0700366D02*
X0656098D01*
X0662890D02*
Y0703909D01*
X0661020Y0700366D02*
X0662890D01*
X0646020D02*
X0647890D01*
Y0703909D01*
X0639228Y0700366D02*
X0641098D01*
X0639228D02*
Y0703909D01*
X0624228Y0700366D02*
Y0703909D01*
Y0700366D02*
X0626098D01*
X0632890D02*
Y0703909D01*
X0631020Y0700366D02*
X0632890D01*
X0616020D02*
X0617890D01*
Y0703909D01*
X0609228Y0700366D02*
X0611098D01*
X0609228D02*
Y0703909D01*
X0594228Y0700366D02*
Y0703909D01*
Y0700366D02*
X0596098D01*
X0602890D02*
Y0703909D01*
X0601020Y0700366D02*
X0602890D01*
X0586020D02*
X0587890D01*
Y0703909D01*
X0579228Y0700366D02*
X0581098D01*
X0579228D02*
Y0703909D01*
X0564228Y0700366D02*
Y0703909D01*
Y0700366D02*
X0566098D01*
X0572890D02*
Y0703909D01*
X0571020Y0700366D02*
X0572890D01*
X0864858Y0695126D02*
Y0696012D01*
X0847142Y0695126D02*
Y0696012D01*
X0864858Y0684988D02*
Y0685874D01*
X0847142Y0684988D02*
Y0685874D01*
Y0696012D02*
X0864858D01*
X0847142Y0684988D02*
X0864858D01*
X0794318Y0602215D02*
X0806522D01*
X0794318Y0611270D02*
X0806522D01*
Y0602215D02*
Y0611270D01*
X0794318Y0602215D02*
Y0611270D01*
X0858142Y0653012D02*
X0875858D01*
X0858142Y0641988D02*
X0875858D01*
Y0652126D02*
Y0653012D01*
X0858142Y0652126D02*
Y0653012D01*
X0875858Y0641988D02*
Y0642874D01*
X0858142Y0641988D02*
Y0642874D01*
X0865031Y0564000D02*
X0868968Y0562031D01*
X0865031Y0564000D02*
X0868968Y0565968D01*
Y0562031D02*
Y0565968D01*
X0865031Y0562031D02*
Y0565968D01*
X0861488Y0560457D02*
X0872512D01*
X0861488Y0567543D02*
X0872512D01*
X0861488Y0567150D02*
Y0567543D01*
X0872512Y0567150D02*
Y0567543D01*
Y0560457D02*
Y0560850D01*
X0861488Y0560457D02*
Y0560850D01*
X0751425Y0720575D02*
X0754181Y0719000D01*
X0751425Y0717425D02*
X0754181Y0719000D01*
X0754181Y0717425D02*
Y0720575D01*
X0751425Y0717425D02*
Y0720575D01*
X0749260Y0716244D02*
Y0717031D01*
X0756740Y0716244D02*
Y0717031D01*
X0749260Y0720968D02*
Y0721756D01*
X0756740Y0720968D02*
Y0721756D01*
X0749260Y0716244D02*
X0756740D01*
X0749260Y0721756D02*
X0756740D01*
X0776783Y0642028D02*
Y0649311D01*
Y0650295D01*
X0767335Y0643012D02*
Y0650295D01*
Y0642028D02*
Y0643012D01*
X0844260Y0593398D02*
Y0605602D01*
X0851740Y0593398D02*
Y0605602D01*
X0844260Y0593398D02*
X0851740D01*
X0844260Y0605602D02*
X0851740D01*
X0713657Y0552394D02*
X0713657Y0557118D01*
X0721531Y0564599D02*
X0725468D01*
X0733342Y0548851D02*
X0733342Y0557118D01*
X0729405Y0544914D02*
X0733342Y0548851D01*
X0721531Y0544914D02*
X0729405Y0544914D01*
X0772638Y0659150D02*
X0777362D01*
X0772638Y0652850D02*
X0777362D01*
X0773425Y0654032D02*
Y0657969D01*
X0773819Y0656000D02*
X0776968Y0654031D01*
X0773819Y0656000D02*
X0776968Y0657968D01*
Y0654031D02*
Y0657968D01*
X0763350Y0665638D02*
Y0670362D01*
X0769650Y0665638D02*
Y0670362D01*
X0764531Y0666425D02*
X0768468D01*
X0766500Y0666819D02*
X0768468Y0669968D01*
X0764531D02*
X0766500Y0666819D01*
X0764531Y0669968D02*
X0768468D01*
X0789031Y0682563D02*
X0792968D01*
X0789031Y0690437D02*
X0792968D01*
X0728480Y0573217D02*
Y0575087D01*
X0724937Y0575087D02*
X0728480Y0575087D01*
Y0566425D02*
X0728480Y0568295D01*
X0724937Y0566425D02*
X0728480Y0566425D01*
X0789031Y0717437D02*
X0792968D01*
X0789031Y0709563D02*
X0792968D01*
X0769988Y0707642D02*
Y0725358D01*
X0781012Y0707642D02*
Y0725358D01*
X0769988D02*
X0770874D01*
X0769988Y0707642D02*
X0770874D01*
X0780126Y0725358D02*
X0781012D01*
X0780126Y0707642D02*
X0781012D01*
X0789031Y0727563D02*
X0792968D01*
X0789031Y0735437D02*
X0792968D01*
X0789031Y0726437D02*
X0792968D01*
X0789031Y0718563D02*
X0792968D01*
X0779925Y0644425D02*
X0781500Y0647181D01*
X0783075Y0644425D01*
X0779925Y0647181D02*
X0783075D01*
X0779925Y0644425D02*
X0783075D01*
X0783468Y0642260D02*
X0784256D01*
X0783468Y0649740D02*
X0784256D01*
X0778744Y0642260D02*
X0779531D01*
X0778744Y0649740D02*
X0779531D01*
X0784256Y0642260D02*
Y0649740D01*
X0778744Y0642260D02*
Y0649740D01*
X0771260Y0627244D02*
X0778740D01*
X0771260Y0632756D02*
X0778740Y0632756D01*
X0771260Y0627244D02*
Y0628031D01*
X0778740Y0627244D02*
Y0628031D01*
X0771260Y0631968D02*
Y0632756D01*
X0778740Y0631968D02*
Y0632756D01*
X0776575Y0628425D02*
Y0631575D01*
X0773819D02*
X0773819Y0628425D01*
X0773819Y0630000D02*
X0776575Y0631575D01*
X0773819Y0630000D02*
X0776575Y0628425D01*
X0789031Y0700563D02*
X0792968D01*
X0789031Y0708437D02*
X0792968D01*
X0789031Y0699437D02*
X0792968D01*
X0789031Y0691563D02*
X0792968D01*
D17*
X0552166Y0619835D02*
X0552499Y0619502D01*
Y0618836D01*
X0552166Y0618502D01*
X0551833D01*
X0551500Y0618836D01*
Y0619502D01*
X0551166Y0619835D01*
X0550833D01*
X0550500Y0619502D01*
Y0618836D01*
X0550833Y0618502D01*
X0552499Y0620502D02*
Y0621835D01*
Y0621168D01*
X0550500D01*
Y0622501D02*
X0552499D01*
Y0623501D01*
X0552166Y0623834D01*
X0551500D01*
X0551166Y0623501D01*
Y0622501D01*
Y0623168D02*
X0550500Y0623834D01*
Y0624501D02*
X0551833D01*
X0552499Y0625167D01*
X0551833Y0625833D01*
X0550500D01*
X0551500D01*
Y0624501D01*
X0552499Y0626500D02*
Y0627166D01*
Y0626833D01*
X0550500D01*
Y0626500D01*
Y0627166D01*
Y0628166D02*
X0552499D01*
X0550500Y0629499D01*
X0552499D01*
X0550167Y0630165D02*
Y0631498D01*
X0550500Y0632165D02*
X0552499D01*
Y0633164D01*
X0552166Y0633498D01*
X0551500D01*
X0551166Y0633164D01*
Y0632165D01*
Y0632831D02*
X0550500Y0633498D01*
X0552166Y0574835D02*
X0552499Y0574502D01*
Y0573836D01*
X0552166Y0573502D01*
X0551833D01*
X0551500Y0573836D01*
Y0574502D01*
X0551166Y0574835D01*
X0550833D01*
X0550500Y0574502D01*
Y0573836D01*
X0550833Y0573502D01*
X0552499Y0575502D02*
Y0576835D01*
Y0576168D01*
X0550500D01*
Y0577501D02*
X0552499D01*
Y0578501D01*
X0552166Y0578834D01*
X0551500D01*
X0551166Y0578501D01*
Y0577501D01*
Y0578168D02*
X0550500Y0578834D01*
Y0579500D02*
X0551833D01*
X0552499Y0580167D01*
X0551833Y0580833D01*
X0550500D01*
X0551500D01*
Y0579500D01*
X0552499Y0581500D02*
Y0582166D01*
Y0581833D01*
X0550500D01*
Y0581500D01*
Y0582166D01*
Y0583166D02*
X0552499D01*
X0550500Y0584499D01*
X0552499D01*
X0550167Y0585165D02*
Y0586498D01*
X0552499Y0587165D02*
X0550500D01*
Y0588498D01*
X0552166Y0601833D02*
X0552499Y0601500D01*
Y0600833D01*
X0552166Y0600500D01*
X0550833D01*
X0550500Y0600833D01*
Y0601500D01*
X0550833Y0601833D01*
X0551500D01*
Y0601166D01*
X0550500Y0602499D02*
X0552499D01*
X0550500Y0603832D01*
X0552499D01*
Y0604499D02*
X0550500D01*
Y0605498D01*
X0550833Y0605832D01*
X0552166D01*
X0552499Y0605498D01*
Y0604499D01*
X0536000Y0692271D02*
X0537999D01*
X0536000Y0693604D01*
X0537999D01*
Y0694271D02*
Y0695603D01*
Y0694937D01*
X0536000D01*
X0537666Y0697603D02*
X0537999Y0697270D01*
Y0696603D01*
X0537666Y0696270D01*
X0536333D01*
X0536000Y0696603D01*
Y0697270D01*
X0536333Y0697603D01*
X0537666Y0685730D02*
X0537999Y0685397D01*
Y0684730D01*
X0537666Y0684397D01*
X0536333D01*
X0536000Y0684730D01*
Y0685397D01*
X0536333Y0685730D01*
X0537000D01*
Y0685064D01*
X0536000Y0686397D02*
X0537999D01*
X0536000Y0687729D01*
X0537999D01*
Y0688396D02*
X0536000D01*
Y0689396D01*
X0536333Y0689729D01*
X0537666D01*
X0537999Y0689396D01*
Y0688396D01*
X0566707Y0658166D02*
X0567040Y0658499D01*
X0567707D01*
X0568040Y0658166D01*
Y0657833D01*
X0567707Y0657500D01*
X0567040D01*
X0566707Y0657166D01*
Y0656833D01*
X0567040Y0656500D01*
X0567707D01*
X0568040Y0656833D01*
X0564708Y0658166D02*
X0565041Y0658499D01*
X0565707D01*
X0566041Y0658166D01*
Y0656833D01*
X0565707Y0656500D01*
X0565041D01*
X0564708Y0656833D01*
X0564041Y0656500D02*
Y0657833D01*
X0563375Y0658499D01*
X0562708Y0657833D01*
Y0656500D01*
Y0657500D01*
X0564041D01*
X0558833Y0658166D02*
X0559166Y0658499D01*
X0559833D01*
X0560166Y0658166D01*
Y0657833D01*
X0559833Y0657500D01*
X0559166D01*
X0558833Y0657166D01*
Y0656833D01*
X0559166Y0656500D01*
X0559833D01*
X0560166Y0656833D01*
X0556834Y0658166D02*
X0557167Y0658499D01*
X0557833D01*
X0558167Y0658166D01*
Y0656833D01*
X0557833Y0656500D01*
X0557167D01*
X0556834Y0656833D01*
X0556167Y0658499D02*
Y0656500D01*
X0554834D01*
X0544366Y0658499D02*
Y0657166D01*
X0543699Y0656500D01*
X0543033Y0657166D01*
Y0658499D01*
X0541034Y0658166D02*
X0541367Y0658499D01*
X0542033D01*
X0542367Y0658166D01*
Y0656833D01*
X0542033Y0656500D01*
X0541367D01*
X0541034Y0656833D01*
X0539034Y0658166D02*
X0539367Y0658499D01*
X0540034D01*
X0540367Y0658166D01*
Y0656833D01*
X0540034Y0656500D01*
X0539367D01*
X0539034Y0656833D01*
X0575747Y0658499D02*
X0575081D01*
X0575414D01*
Y0656500D01*
X0575747D01*
X0575081D01*
X0574081D02*
Y0658499D01*
X0572748Y0656500D01*
Y0658499D01*
X0572082D02*
X0570749D01*
X0571415D01*
Y0656500D01*
X0550933Y0658166D02*
X0551266Y0658499D01*
X0551933D01*
X0552266Y0658166D01*
Y0656833D01*
X0551933Y0656500D01*
X0551266D01*
X0550933Y0656833D01*
Y0657500D01*
X0551599D01*
X0550267Y0656500D02*
Y0658499D01*
X0548934Y0656500D01*
Y0658499D01*
X0548267D02*
Y0656500D01*
X0547267D01*
X0546934Y0656833D01*
Y0658166D01*
X0547267Y0658499D01*
X0548267D01*
X0750667Y0653666D02*
X0751000Y0653999D01*
X0751667D01*
X0752000Y0653666D01*
Y0653333D01*
X0751667Y0653000D01*
X0751000D01*
X0750667Y0652666D01*
Y0652333D01*
X0751000Y0652000D01*
X0751667D01*
X0752000Y0652333D01*
X0750001Y0653999D02*
Y0652000D01*
X0749334Y0652666D01*
X0748668Y0652000D01*
Y0653999D01*
X0747002D02*
X0747668D01*
X0748001Y0653666D01*
Y0652333D01*
X0747668Y0652000D01*
X0747002D01*
X0746668Y0652333D01*
Y0653666D01*
X0747002Y0653999D01*
X0752000Y0661000D02*
Y0662999D01*
X0750667Y0661000D01*
Y0662999D01*
X0750001Y0661000D02*
Y0662999D01*
X0749001D01*
X0748668Y0662666D01*
Y0662000D01*
X0749001Y0661666D01*
X0750001D01*
X0749334D02*
X0748668Y0661000D01*
X0746668Y0662666D02*
X0747002Y0662999D01*
X0747668D01*
X0748001Y0662666D01*
Y0662333D01*
X0747668Y0662000D01*
X0747002D01*
X0746668Y0661666D01*
Y0661333D01*
X0747002Y0661000D01*
X0747668D01*
X0748001Y0661333D01*
X0746002Y0662999D02*
X0744669D01*
X0745335D01*
Y0661000D01*
X0750667Y0680666D02*
X0751000Y0680999D01*
X0751667D01*
X0752000Y0680666D01*
Y0680333D01*
X0751667Y0680000D01*
X0751000D01*
X0750667Y0679666D01*
Y0679333D01*
X0751000Y0679000D01*
X0751667D01*
X0752000Y0679333D01*
X0750001Y0680999D02*
Y0679000D01*
X0749334Y0679666D01*
X0748668Y0679000D01*
Y0680999D01*
X0746668Y0680666D02*
X0747002Y0680999D01*
X0747668D01*
X0748001Y0680666D01*
Y0679333D01*
X0747668Y0679000D01*
X0747002D01*
X0746668Y0679333D01*
X0746002Y0680999D02*
Y0679000D01*
X0744669D01*
X0744003Y0680999D02*
Y0679000D01*
Y0679666D01*
X0742670Y0680999D01*
X0743669Y0680000D01*
X0742670Y0679000D01*
X0768667Y0683166D02*
X0769000Y0683499D01*
X0769667D01*
X0770000Y0683166D01*
Y0681833D01*
X0769667Y0681500D01*
X0769000D01*
X0768667Y0681833D01*
Y0682500D01*
X0769334D01*
X0768001Y0681500D02*
Y0683499D01*
X0766668Y0681500D01*
Y0683499D01*
X0766001D02*
Y0681500D01*
X0765002D01*
X0764668Y0681833D01*
Y0683166D01*
X0765002Y0683499D01*
X0766001D01*
X0768667Y0693166D02*
X0769000Y0693499D01*
X0769667D01*
X0770000Y0693166D01*
Y0692833D01*
X0769667Y0692500D01*
X0769000D01*
X0768667Y0692166D01*
Y0691833D01*
X0769000Y0691500D01*
X0769667D01*
X0770000Y0691833D01*
X0768001Y0693499D02*
Y0691500D01*
X0767334Y0692166D01*
X0766668Y0691500D01*
Y0693499D01*
X0766001D02*
Y0691500D01*
X0765002D01*
X0764668Y0691833D01*
Y0693166D01*
X0765002Y0693499D01*
X0766001D01*
X0764002D02*
X0763336D01*
X0763669D01*
Y0691500D01*
X0764002D01*
X0763336D01*
X0761336Y0693499D02*
X0762003D01*
X0762336Y0693166D01*
Y0691833D01*
X0762003Y0691500D01*
X0761336D01*
X0761003Y0691833D01*
Y0693166D01*
X0761336Y0693499D01*
X0770000Y0703499D02*
Y0702166D01*
X0769334Y0701500D01*
X0768667Y0702166D01*
Y0703499D01*
X0766668Y0703166D02*
X0767001Y0703499D01*
X0767667D01*
X0768001Y0703166D01*
Y0701833D01*
X0767667Y0701500D01*
X0767001D01*
X0766668Y0701833D01*
X0764668Y0703166D02*
X0765002Y0703499D01*
X0765668D01*
X0766001Y0703166D01*
Y0701833D01*
X0765668Y0701500D01*
X0765002D01*
X0764668Y0701833D01*
X0774703Y0562000D02*
Y0563999D01*
X0773703D01*
X0773370Y0563666D01*
Y0563000D01*
X0773703Y0562666D01*
X0774703D01*
X0774036D02*
X0773370Y0562000D01*
X0771371Y0563999D02*
X0772704D01*
Y0562000D01*
X0771371D01*
X0772704Y0563000D02*
X0772037D01*
X0770704Y0563999D02*
Y0562000D01*
X0769704D01*
X0769371Y0562333D01*
Y0563666D01*
X0769704Y0563999D01*
X0770704D01*
X0765470Y0563666D02*
X0765803Y0563999D01*
X0766470D01*
X0766803Y0563666D01*
Y0562333D01*
X0766470Y0562000D01*
X0765803D01*
X0765470Y0562333D01*
Y0563000D01*
X0766136D01*
X0764804Y0562000D02*
Y0563999D01*
X0763804D01*
X0763471Y0563666D01*
Y0563000D01*
X0763804Y0562666D01*
X0764804D01*
X0764137D02*
X0763471Y0562000D01*
X0762804D02*
Y0563999D01*
X0761471Y0562000D01*
Y0563999D01*
X0759929D02*
Y0562000D01*
X0758929D01*
X0758596Y0562333D01*
Y0562666D01*
X0758929Y0563000D01*
X0759929D01*
X0758929D01*
X0758596Y0563333D01*
Y0563666D01*
X0758929Y0563999D01*
X0759929D01*
X0757929D02*
Y0562000D01*
X0756596D01*
X0755930Y0563999D02*
Y0562333D01*
X0755597Y0562000D01*
X0754930D01*
X0754597Y0562333D01*
Y0563999D01*
X0752598D02*
X0753930D01*
Y0562000D01*
X0752598D01*
X0753930Y0563000D02*
X0753264D01*
X0781459Y0563666D02*
X0781792Y0563999D01*
X0782459D01*
X0782792Y0563666D01*
Y0562333D01*
X0782459Y0562000D01*
X0781792D01*
X0781459Y0562333D01*
Y0563000D01*
X0782125D01*
X0780792Y0562000D02*
Y0563999D01*
X0779459Y0562000D01*
Y0563999D01*
X0778793D02*
Y0562000D01*
X0777793D01*
X0777460Y0562333D01*
Y0563666D01*
X0777793Y0563999D01*
X0778793D01*
X0798018Y0563666D02*
X0798351Y0563999D01*
X0799017D01*
X0799351Y0563666D01*
Y0562333D01*
X0799017Y0562000D01*
X0798351D01*
X0798018Y0562333D01*
X0797351Y0563999D02*
Y0562000D01*
Y0563000D01*
X0796018D01*
Y0563999D01*
Y0562000D01*
X0794019Y0563666D02*
X0794352Y0563999D01*
X0795019D01*
X0795352Y0563666D01*
Y0562333D01*
X0795019Y0562000D01*
X0794352D01*
X0794019Y0562333D01*
Y0563000D01*
X0794685D01*
X0793353D02*
X0792020D01*
X0792686Y0563666D02*
Y0562333D01*
X0789333Y0563666D02*
X0789666Y0563999D01*
X0790333D01*
X0790666Y0563666D01*
Y0563333D01*
X0790333Y0563000D01*
X0789666D01*
X0789333Y0562666D01*
Y0562333D01*
X0789666Y0562000D01*
X0790333D01*
X0790666Y0562333D01*
X0788666Y0563999D02*
X0788000D01*
X0788333D01*
Y0562000D01*
X0788666D01*
X0788000D01*
X0785667Y0563666D02*
X0786001Y0563999D01*
X0786667D01*
X0787000Y0563666D01*
Y0562333D01*
X0786667Y0562000D01*
X0786001D01*
X0785667Y0562333D01*
Y0563000D01*
X0786334D01*
X0565207Y0556666D02*
X0565540Y0556999D01*
X0566207D01*
X0566540Y0556666D01*
Y0555333D01*
X0566207Y0555000D01*
X0565540D01*
X0565207Y0555333D01*
Y0556000D01*
X0565873D01*
X0564540Y0555000D02*
Y0556999D01*
X0563208Y0555000D01*
Y0556999D01*
X0562541D02*
Y0555000D01*
X0561541D01*
X0561208Y0555333D01*
Y0556666D01*
X0561541Y0556999D01*
X0562541D01*
X0548459D02*
X0549792D01*
Y0556000D01*
X0549126Y0556333D01*
X0548793D01*
X0548459Y0556000D01*
Y0555333D01*
X0548793Y0555000D01*
X0549459D01*
X0549792Y0555333D01*
X0547793Y0556999D02*
Y0555666D01*
X0547126Y0555000D01*
X0546460Y0555666D01*
Y0556999D01*
X0557166Y0556666D02*
X0557500Y0556999D01*
X0558166D01*
X0558499Y0556666D01*
Y0556333D01*
X0558166Y0556000D01*
X0557500D01*
X0557166Y0555666D01*
Y0555333D01*
X0557500Y0555000D01*
X0558166D01*
X0558499Y0555333D01*
X0556500Y0556999D02*
X0555833D01*
X0556167D01*
Y0555000D01*
X0556500D01*
X0555833D01*
X0553501Y0556666D02*
X0553834Y0556999D01*
X0554500D01*
X0554834Y0556666D01*
Y0555333D01*
X0554500Y0555000D01*
X0553834D01*
X0553501Y0555333D01*
Y0556000D01*
X0554167D01*
X0747833Y0552666D02*
X0748166Y0552999D01*
X0748833D01*
X0749166Y0552666D01*
Y0552333D01*
X0748833Y0552000D01*
X0748166D01*
X0747833Y0551666D01*
Y0551333D01*
X0748166Y0551000D01*
X0748833D01*
X0749166Y0551333D01*
X0747166Y0552999D02*
X0746500D01*
X0746833D01*
Y0551000D01*
X0747166D01*
X0746500D01*
X0744167Y0552666D02*
X0744501Y0552999D01*
X0745167D01*
X0745500Y0552666D01*
Y0551333D01*
X0745167Y0551000D01*
X0744501D01*
X0744167Y0551333D01*
Y0552000D01*
X0744834D01*
X0754707Y0552999D02*
X0756040D01*
Y0552000D01*
X0755374Y0552333D01*
X0755040D01*
X0754707Y0552000D01*
Y0551333D01*
X0755040Y0551000D01*
X0755707D01*
X0756040Y0551333D01*
X0754041Y0552999D02*
Y0551666D01*
X0753374Y0551000D01*
X0752708Y0551666D01*
Y0552999D01*
X0739959Y0552666D02*
X0740292Y0552999D01*
X0740959D01*
X0741292Y0552666D01*
Y0551333D01*
X0740959Y0551000D01*
X0740292D01*
X0739959Y0551333D01*
Y0552000D01*
X0740625D01*
X0739292Y0551000D02*
Y0552999D01*
X0737959Y0551000D01*
Y0552999D01*
X0737293D02*
Y0551000D01*
X0736293D01*
X0735960Y0551333D01*
Y0552666D01*
X0736293Y0552999D01*
X0737293D01*
X0710000Y0731500D02*
X0709334D01*
X0709667D01*
Y0733499D01*
X0710000Y0733166D01*
X0707001Y0731500D02*
X0708334D01*
X0707001Y0732833D01*
Y0733166D01*
X0707334Y0733499D01*
X0708001D01*
X0708334Y0733166D01*
X0700000Y0731500D02*
X0699334D01*
X0699667D01*
Y0733499D01*
X0700000Y0733166D01*
X0698334Y0731500D02*
X0697667D01*
X0698001D01*
Y0733499D01*
X0698334Y0733166D01*
X0690500Y0731500D02*
X0689834D01*
X0690167D01*
Y0733499D01*
X0690500Y0733166D01*
X0688834D02*
X0688501Y0733499D01*
X0687834D01*
X0687501Y0733166D01*
Y0731833D01*
X0687834Y0731500D01*
X0688501D01*
X0688834Y0731833D01*
Y0733166D01*
X0679500Y0731833D02*
X0679167Y0731500D01*
X0678500D01*
X0678167Y0731833D01*
Y0733166D01*
X0678500Y0733499D01*
X0679167D01*
X0679500Y0733166D01*
Y0732833D01*
X0679167Y0732500D01*
X0678167D01*
X0670000Y0733166D02*
X0669667Y0733499D01*
X0669000D01*
X0668667Y0733166D01*
Y0732833D01*
X0669000Y0732500D01*
X0668667Y0732166D01*
Y0731833D01*
X0669000Y0731500D01*
X0669667D01*
X0670000Y0731833D01*
Y0732166D01*
X0669667Y0732500D01*
X0670000Y0732833D01*
Y0733166D01*
X0669667Y0732500D02*
X0669000D01*
X0660000Y0733499D02*
X0658667D01*
Y0733166D01*
X0660000Y0731833D01*
Y0731500D01*
X0648667Y0733499D02*
X0649334Y0733166D01*
X0650000Y0732500D01*
Y0731833D01*
X0649667Y0731500D01*
X0649000D01*
X0648667Y0731833D01*
Y0732166D01*
X0649000Y0732500D01*
X0650000D01*
X0639167Y0733499D02*
X0640500D01*
Y0732500D01*
X0639834Y0732833D01*
X0639500D01*
X0639167Y0732500D01*
Y0731833D01*
X0639500Y0731500D01*
X0640167D01*
X0640500Y0731833D01*
X0629500Y0731500D02*
Y0733499D01*
X0630500Y0732500D01*
X0629167D01*
X0620500Y0733166D02*
X0620167Y0733499D01*
X0619500D01*
X0619167Y0733166D01*
Y0732833D01*
X0619500Y0732500D01*
X0619834D01*
X0619500D01*
X0619167Y0732166D01*
Y0731833D01*
X0619500Y0731500D01*
X0620167D01*
X0620500Y0731833D01*
X0609667Y0731500D02*
X0611000D01*
X0609667Y0732833D01*
Y0733166D01*
X0610000Y0733499D01*
X0610667D01*
X0611000Y0733166D01*
X0600500Y0731500D02*
X0599834D01*
X0600167D01*
Y0733499D01*
X0600500Y0733166D01*
X0591000D02*
X0590667Y0733499D01*
X0590000D01*
X0589667Y0733166D01*
Y0731833D01*
X0590000Y0731500D01*
X0590667D01*
X0591000Y0731833D01*
Y0733166D01*
X0772167Y0553166D02*
X0772500Y0553499D01*
X0773167D01*
X0773500Y0553166D01*
Y0551833D01*
X0773167Y0551500D01*
X0772500D01*
X0772167Y0551833D01*
Y0552500D01*
X0772834D01*
X0771501Y0551500D02*
Y0553499D01*
X0770168Y0551500D01*
Y0553499D01*
X0769501D02*
Y0551500D01*
X0768502D01*
X0768168Y0551833D01*
Y0553166D01*
X0768502Y0553499D01*
X0769501D01*
X0797500Y0553166D02*
X0797167Y0553499D01*
X0796500D01*
X0796167Y0553166D01*
Y0552833D01*
X0796500Y0552500D01*
X0796834D01*
X0796500D01*
X0796167Y0552167D01*
Y0551833D01*
X0796500Y0551500D01*
X0797167D01*
X0797500Y0551833D01*
X0795501Y0553499D02*
Y0552167D01*
X0794834Y0551500D01*
X0794168Y0552167D01*
Y0553499D01*
X0793501Y0553166D02*
X0793168Y0553499D01*
X0792502D01*
X0792168Y0553166D01*
Y0552833D01*
X0792502Y0552500D01*
X0792835D01*
X0792502D01*
X0792168Y0552167D01*
Y0551833D01*
X0792502Y0551500D01*
X0793168D01*
X0793501Y0551833D01*
X0803167Y0553499D02*
X0804500D01*
Y0552500D01*
X0803834Y0552833D01*
X0803500D01*
X0803167Y0552500D01*
Y0551833D01*
X0803500Y0551500D01*
X0804167D01*
X0804500Y0551833D01*
X0802501Y0553499D02*
Y0552166D01*
X0801834Y0551500D01*
X0801168Y0552166D01*
Y0553499D01*
X0814396Y0576666D02*
X0814729Y0576999D01*
X0815395D01*
X0815728Y0576666D01*
Y0575333D01*
X0815395Y0575000D01*
X0814729D01*
X0814396Y0575333D01*
X0813729Y0575000D02*
Y0576333D01*
X0813063Y0576999D01*
X0812396Y0576333D01*
Y0575000D01*
Y0576000D01*
X0813729D01*
X0811730Y0575000D02*
Y0576999D01*
X0810397Y0575000D01*
Y0576999D01*
X0809730D02*
Y0575000D01*
X0808397D01*
X0823270Y0576666D02*
X0823603Y0576999D01*
X0824269D01*
X0824603Y0576666D01*
Y0575333D01*
X0824269Y0575000D01*
X0823603D01*
X0823270Y0575333D01*
X0822603Y0575000D02*
Y0576333D01*
X0821937Y0576999D01*
X0821270Y0576333D01*
Y0575000D01*
Y0576000D01*
X0822603D01*
X0820604Y0575000D02*
Y0576999D01*
X0819271Y0575000D01*
Y0576999D01*
X0818604D02*
Y0575000D01*
Y0576000D01*
X0817272D01*
Y0576999D01*
Y0575000D01*
X0786000Y0551500D02*
Y0552833D01*
X0785334Y0553499D01*
X0784667Y0552833D01*
Y0551500D01*
Y0552500D01*
X0786000D01*
X0782668Y0553166D02*
X0783001Y0553499D01*
X0783667D01*
X0784001Y0553166D01*
Y0551833D01*
X0783667Y0551500D01*
X0783001D01*
X0782668Y0551833D01*
X0780668Y0553166D02*
X0781002Y0553499D01*
X0781668D01*
X0782001Y0553166D01*
Y0551833D01*
X0781668Y0551500D01*
X0781002D01*
X0780668Y0551833D01*
X0579900Y0559300D02*
X0581899D01*
Y0560300D01*
X0581566Y0560633D01*
X0580900D01*
X0580566Y0560300D01*
Y0559300D01*
Y0559966D02*
X0579900Y0560633D01*
X0581566Y0561299D02*
X0581899Y0561633D01*
Y0562299D01*
X0581566Y0562632D01*
X0581233D01*
X0580900Y0562299D01*
X0580566Y0562632D01*
X0580233D01*
X0579900Y0562299D01*
Y0561633D01*
X0580233Y0561299D01*
X0580566D01*
X0580900Y0561633D01*
X0581233Y0561299D01*
X0581566D01*
X0580900Y0561633D02*
Y0562299D01*
X0579900Y0564298D02*
X0581899D01*
X0580900Y0563299D01*
Y0564632D01*
X0644500Y0658500D02*
X0646499D01*
Y0659500D01*
X0646166Y0659833D01*
X0645500D01*
X0645166Y0659500D01*
Y0658500D01*
Y0659166D02*
X0644500Y0659833D01*
X0646166Y0660499D02*
X0646499Y0660833D01*
Y0661499D01*
X0646166Y0661832D01*
X0645833D01*
X0645500Y0661499D01*
X0645166Y0661832D01*
X0644833D01*
X0644500Y0661499D01*
Y0660833D01*
X0644833Y0660499D01*
X0645166D01*
X0645500Y0660833D01*
X0645833Y0660499D01*
X0646166D01*
X0645500Y0660833D02*
Y0661499D01*
X0646166Y0662499D02*
X0646499Y0662832D01*
Y0663498D01*
X0646166Y0663832D01*
X0644833D01*
X0644500Y0663498D01*
Y0662832D01*
X0644833Y0662499D01*
X0646166D01*
X0653000Y0594500D02*
Y0596499D01*
X0652000D01*
X0651667Y0596166D01*
Y0595500D01*
X0652000Y0595166D01*
X0653000D01*
X0652334D02*
X0651667Y0594500D01*
X0651001Y0596499D02*
X0649668D01*
Y0596166D01*
X0651001Y0594833D01*
Y0594500D01*
X0649001Y0594833D02*
X0648668Y0594500D01*
X0648002D01*
X0647668Y0594833D01*
Y0596166D01*
X0648002Y0596499D01*
X0648668D01*
X0649001Y0596166D01*
Y0595833D01*
X0648668Y0595500D01*
X0647668D01*
X0777500Y0664099D02*
Y0662100D01*
X0776500D01*
X0776167Y0662433D01*
Y0663766D01*
X0776500Y0664099D01*
X0777500D01*
X0775501Y0662100D02*
X0774834D01*
X0775167D01*
Y0664099D01*
X0775501Y0663766D01*
X0773835D02*
X0773501Y0664099D01*
X0772835D01*
X0772502Y0663766D01*
Y0662433D01*
X0772835Y0662100D01*
X0773501D01*
X0773835Y0662433D01*
Y0663766D01*
X0807167Y0690333D02*
Y0691666D01*
X0807500Y0691999D01*
X0808167D01*
X0808500Y0691666D01*
Y0690333D01*
X0808167Y0690000D01*
X0807500D01*
X0807834Y0690666D02*
X0807167Y0690000D01*
X0807500D02*
X0807167Y0690333D01*
X0805501Y0690000D02*
Y0691999D01*
X0806501Y0691000D01*
X0805168D01*
X0687500Y0568999D02*
X0686167Y0567000D01*
Y0568999D02*
X0687500Y0567000D01*
X0685501D02*
X0684834D01*
X0685167D01*
Y0568999D01*
X0685501Y0568666D01*
X0645499Y0635500D02*
X0643833D01*
X0643500Y0635833D01*
Y0636500D01*
X0643833Y0636833D01*
X0645499D01*
X0643500Y0637499D02*
Y0638166D01*
Y0637833D01*
X0645499D01*
X0645166Y0637499D01*
X0643500Y0640498D02*
Y0639165D01*
X0644833Y0640498D01*
X0645166D01*
X0645499Y0640165D01*
Y0639499D01*
X0645166Y0639165D01*
X0643167Y0641165D02*
Y0642498D01*
X0643500Y0643164D02*
X0644833D01*
X0645499Y0643831D01*
X0644833Y0644497D01*
X0643500D01*
X0644500D01*
Y0643164D01*
X0643167Y0645163D02*
Y0646496D01*
X0643500Y0647163D02*
X0645499D01*
Y0648163D01*
X0645166Y0648496D01*
X0644500D01*
X0644166Y0648163D01*
Y0647163D01*
Y0647829D02*
X0643500Y0648496D01*
X0646999Y0575000D02*
X0645333D01*
X0645000Y0575333D01*
Y0576000D01*
X0645333Y0576333D01*
X0646999D01*
X0645000Y0576999D02*
Y0577666D01*
Y0577333D01*
X0646999D01*
X0646666Y0576999D01*
X0645000Y0579998D02*
Y0578665D01*
X0646333Y0579998D01*
X0646666D01*
X0646999Y0579665D01*
Y0578999D01*
X0646666Y0578665D01*
X0644667Y0580665D02*
Y0581998D01*
X0645000Y0582664D02*
X0646333D01*
X0646999Y0583331D01*
X0646333Y0583997D01*
X0645000D01*
X0646000D01*
Y0582664D01*
X0644667Y0584663D02*
Y0585996D01*
X0646999Y0586663D02*
X0645000D01*
Y0587996D01*
X0597500Y0626400D02*
Y0628399D01*
X0596500D01*
X0596167Y0628066D01*
Y0627400D01*
X0596500Y0627066D01*
X0597500D01*
X0596834D02*
X0596167Y0626400D01*
X0595501Y0628399D02*
X0594168D01*
Y0628066D01*
X0595501Y0626733D01*
Y0626400D01*
X0593501Y0628066D02*
X0593168Y0628399D01*
X0592502D01*
X0592168Y0628066D01*
Y0627733D01*
X0592502Y0627400D01*
X0592835D01*
X0592502D01*
X0592168Y0627066D01*
Y0626733D01*
X0592502Y0626400D01*
X0593168D01*
X0593501Y0626733D01*
X0591502Y0626067D02*
X0590169D01*
X0589503Y0626400D02*
Y0627733D01*
X0588836Y0628399D01*
X0588170Y0627733D01*
Y0626400D01*
Y0627400D01*
X0589503D01*
X0587503Y0626067D02*
X0586170D01*
X0585504Y0626400D02*
Y0628399D01*
X0584504D01*
X0584171Y0628066D01*
Y0627400D01*
X0584504Y0627066D01*
X0585504D01*
X0584837D02*
X0584171Y0626400D01*
X0597500Y0571000D02*
Y0572999D01*
X0596500D01*
X0596167Y0572666D01*
Y0572000D01*
X0596500Y0571666D01*
X0597500D01*
X0596834D02*
X0596167Y0571000D01*
X0595501Y0572999D02*
X0594168D01*
Y0572666D01*
X0595501Y0571333D01*
Y0571000D01*
X0593501Y0572666D02*
X0593168Y0572999D01*
X0592502D01*
X0592168Y0572666D01*
Y0572333D01*
X0592502Y0572000D01*
X0592835D01*
X0592502D01*
X0592168Y0571666D01*
Y0571333D01*
X0592502Y0571000D01*
X0593168D01*
X0593501Y0571333D01*
X0591502Y0570667D02*
X0590169D01*
X0589503Y0571000D02*
Y0572333D01*
X0588836Y0572999D01*
X0588170Y0572333D01*
Y0571000D01*
Y0572000D01*
X0589503D01*
X0587503Y0570667D02*
X0586170D01*
X0585504Y0572999D02*
Y0571000D01*
X0584171D01*
X0597500Y0621400D02*
Y0623399D01*
X0596500D01*
X0596167Y0623066D01*
Y0622400D01*
X0596500Y0622066D01*
X0597500D01*
X0596834D02*
X0596167Y0621400D01*
X0595501Y0623399D02*
X0594168D01*
Y0623066D01*
X0595501Y0621733D01*
Y0621400D01*
X0592168D02*
X0593501D01*
X0592168Y0622733D01*
Y0623066D01*
X0592502Y0623399D01*
X0593168D01*
X0593501Y0623066D01*
X0591502Y0621067D02*
X0590169D01*
X0589503Y0621400D02*
Y0622733D01*
X0588836Y0623399D01*
X0588170Y0622733D01*
Y0621400D01*
Y0622400D01*
X0589503D01*
X0587503Y0621067D02*
X0586170D01*
X0585504Y0621400D02*
Y0623399D01*
X0584504D01*
X0584171Y0623066D01*
Y0622400D01*
X0584504Y0622066D01*
X0585504D01*
X0584837D02*
X0584171Y0621400D01*
X0597500Y0575500D02*
Y0577499D01*
X0596500D01*
X0596167Y0577166D01*
Y0576500D01*
X0596500Y0576166D01*
X0597500D01*
X0596834D02*
X0596167Y0575500D01*
X0595501Y0577499D02*
X0594168D01*
Y0577166D01*
X0595501Y0575833D01*
Y0575500D01*
X0592168D02*
X0593501D01*
X0592168Y0576833D01*
Y0577166D01*
X0592502Y0577499D01*
X0593168D01*
X0593501Y0577166D01*
X0591502Y0575167D02*
X0590169D01*
X0589503Y0575500D02*
Y0576833D01*
X0588836Y0577499D01*
X0588170Y0576833D01*
Y0575500D01*
Y0576500D01*
X0589503D01*
X0587503Y0575167D02*
X0586170D01*
X0585504Y0577499D02*
Y0575500D01*
X0584171D01*
X0581600Y0626400D02*
Y0628399D01*
X0580600D01*
X0580267Y0628066D01*
Y0627400D01*
X0580600Y0627066D01*
X0581600D01*
X0580934D02*
X0580267Y0626400D01*
X0578268Y0628399D02*
X0578934Y0628066D01*
X0579601Y0627400D01*
Y0626733D01*
X0579267Y0626400D01*
X0578601D01*
X0578268Y0626733D01*
Y0627066D01*
X0578601Y0627400D01*
X0579601D01*
X0577601Y0626733D02*
X0577268Y0626400D01*
X0576602D01*
X0576268Y0626733D01*
Y0628066D01*
X0576602Y0628399D01*
X0577268D01*
X0577601Y0628066D01*
Y0627733D01*
X0577268Y0627400D01*
X0576268D01*
X0575602Y0626067D02*
X0574269D01*
X0573603Y0626400D02*
Y0627733D01*
X0572936Y0628399D01*
X0572270Y0627733D01*
Y0626400D01*
Y0627400D01*
X0573603D01*
X0571603Y0626067D02*
X0570270D01*
X0569604Y0626400D02*
Y0628399D01*
X0568604D01*
X0568271Y0628066D01*
Y0627400D01*
X0568604Y0627066D01*
X0569604D01*
X0568937D02*
X0568271Y0626400D01*
X0582000Y0571000D02*
Y0572999D01*
X0581000D01*
X0580667Y0572666D01*
Y0572000D01*
X0581000Y0571666D01*
X0582000D01*
X0581334D02*
X0580667Y0571000D01*
X0578668Y0572999D02*
X0579334Y0572666D01*
X0580001Y0572000D01*
Y0571333D01*
X0579667Y0571000D01*
X0579001D01*
X0578668Y0571333D01*
Y0571666D01*
X0579001Y0572000D01*
X0580001D01*
X0578001Y0571333D02*
X0577668Y0571000D01*
X0577002D01*
X0576668Y0571333D01*
Y0572666D01*
X0577002Y0572999D01*
X0577668D01*
X0578001Y0572666D01*
Y0572333D01*
X0577668Y0572000D01*
X0576668D01*
X0576002Y0570667D02*
X0574669D01*
X0574003Y0571000D02*
Y0572333D01*
X0573336Y0572999D01*
X0572670Y0572333D01*
Y0571000D01*
Y0572000D01*
X0574003D01*
X0572003Y0570667D02*
X0570670D01*
X0570004Y0572999D02*
Y0571000D01*
X0568671D01*
X0597500Y0616400D02*
Y0618399D01*
X0596500D01*
X0596167Y0618066D01*
Y0617400D01*
X0596500Y0617066D01*
X0597500D01*
X0596834D02*
X0596167Y0616400D01*
X0594168Y0618399D02*
X0594834Y0618066D01*
X0595501Y0617400D01*
Y0616733D01*
X0595167Y0616400D01*
X0594501D01*
X0594168Y0616733D01*
Y0617066D01*
X0594501Y0617400D01*
X0595501D01*
X0593501Y0618066D02*
X0593168Y0618399D01*
X0592502D01*
X0592168Y0618066D01*
Y0617733D01*
X0592502Y0617400D01*
X0592168Y0617066D01*
Y0616733D01*
X0592502Y0616400D01*
X0593168D01*
X0593501Y0616733D01*
Y0617066D01*
X0593168Y0617400D01*
X0593501Y0617733D01*
Y0618066D01*
X0593168Y0617400D02*
X0592502D01*
X0591502Y0616067D02*
X0590169D01*
X0589503Y0616400D02*
Y0617733D01*
X0588836Y0618399D01*
X0588170Y0617733D01*
Y0616400D01*
Y0617400D01*
X0589503D01*
X0587503Y0616067D02*
X0586170D01*
X0585504Y0616400D02*
Y0618399D01*
X0584504D01*
X0584171Y0618066D01*
Y0617400D01*
X0584504Y0617066D01*
X0585504D01*
X0584837D02*
X0584171Y0616400D01*
X0597500Y0580000D02*
Y0581999D01*
X0596500D01*
X0596167Y0581666D01*
Y0581000D01*
X0596500Y0580666D01*
X0597500D01*
X0596834D02*
X0596167Y0580000D01*
X0594168Y0581999D02*
X0594834Y0581666D01*
X0595501Y0581000D01*
Y0580333D01*
X0595167Y0580000D01*
X0594501D01*
X0594168Y0580333D01*
Y0580666D01*
X0594501Y0581000D01*
X0595501D01*
X0593501Y0581666D02*
X0593168Y0581999D01*
X0592502D01*
X0592168Y0581666D01*
Y0581333D01*
X0592502Y0581000D01*
X0592168Y0580666D01*
Y0580333D01*
X0592502Y0580000D01*
X0593168D01*
X0593501Y0580333D01*
Y0580666D01*
X0593168Y0581000D01*
X0593501Y0581333D01*
Y0581666D01*
X0593168Y0581000D02*
X0592502D01*
X0591502Y0579667D02*
X0590169D01*
X0589503Y0580000D02*
Y0581333D01*
X0588836Y0581999D01*
X0588170Y0581333D01*
Y0580000D01*
Y0581000D01*
X0589503D01*
X0587503Y0579667D02*
X0586170D01*
X0585504Y0581999D02*
Y0580000D01*
X0584171D01*
X0581600Y0621400D02*
Y0623399D01*
X0580600D01*
X0580267Y0623066D01*
Y0622400D01*
X0580600Y0622066D01*
X0581600D01*
X0580934D02*
X0580267Y0621400D01*
X0578268Y0623399D02*
X0578934Y0623066D01*
X0579601Y0622400D01*
Y0621733D01*
X0579267Y0621400D01*
X0578601D01*
X0578268Y0621733D01*
Y0622066D01*
X0578601Y0622400D01*
X0579601D01*
X0577601Y0623399D02*
X0576268D01*
Y0623066D01*
X0577601Y0621733D01*
Y0621400D01*
X0575602Y0621067D02*
X0574269D01*
X0573603Y0621400D02*
Y0622733D01*
X0572936Y0623399D01*
X0572270Y0622733D01*
Y0621400D01*
Y0622400D01*
X0573603D01*
X0571603Y0621067D02*
X0570270D01*
X0569604Y0621400D02*
Y0623399D01*
X0568604D01*
X0568271Y0623066D01*
Y0622400D01*
X0568604Y0622066D01*
X0569604D01*
X0568937D02*
X0568271Y0621400D01*
X0582000Y0575500D02*
Y0577499D01*
X0581000D01*
X0580667Y0577166D01*
Y0576500D01*
X0581000Y0576166D01*
X0582000D01*
X0581334D02*
X0580667Y0575500D01*
X0578668Y0577499D02*
X0579334Y0577166D01*
X0580001Y0576500D01*
Y0575833D01*
X0579667Y0575500D01*
X0579001D01*
X0578668Y0575833D01*
Y0576166D01*
X0579001Y0576500D01*
X0580001D01*
X0578001Y0577499D02*
X0576668D01*
Y0577166D01*
X0578001Y0575833D01*
Y0575500D01*
X0576002Y0575167D02*
X0574669D01*
X0574003Y0575500D02*
Y0576833D01*
X0573336Y0577499D01*
X0572670Y0576833D01*
Y0575500D01*
Y0576500D01*
X0574003D01*
X0572003Y0575167D02*
X0570670D01*
X0570004Y0577499D02*
Y0575500D01*
X0568671D01*
X0581600Y0616400D02*
Y0618399D01*
X0580600D01*
X0580267Y0618066D01*
Y0617400D01*
X0580600Y0617066D01*
X0581600D01*
X0580934D02*
X0580267Y0616400D01*
X0578268Y0618399D02*
X0578934Y0618066D01*
X0579601Y0617400D01*
Y0616733D01*
X0579267Y0616400D01*
X0578601D01*
X0578268Y0616733D01*
Y0617066D01*
X0578601Y0617400D01*
X0579601D01*
X0576268Y0618399D02*
X0576935Y0618066D01*
X0577601Y0617400D01*
Y0616733D01*
X0577268Y0616400D01*
X0576602D01*
X0576268Y0616733D01*
Y0617066D01*
X0576602Y0617400D01*
X0577601D01*
X0575602Y0616067D02*
X0574269D01*
X0573603Y0616400D02*
Y0617733D01*
X0572936Y0618399D01*
X0572270Y0617733D01*
Y0616400D01*
Y0617400D01*
X0573603D01*
X0571603Y0616067D02*
X0570270D01*
X0569604Y0616400D02*
Y0618399D01*
X0568604D01*
X0568271Y0618066D01*
Y0617400D01*
X0568604Y0617066D01*
X0569604D01*
X0568937D02*
X0568271Y0616400D01*
X0582000Y0580000D02*
Y0581999D01*
X0581000D01*
X0580667Y0581666D01*
Y0581000D01*
X0581000Y0580666D01*
X0582000D01*
X0581334D02*
X0580667Y0580000D01*
X0578668Y0581999D02*
X0579334Y0581666D01*
X0580001Y0581000D01*
Y0580333D01*
X0579667Y0580000D01*
X0579001D01*
X0578668Y0580333D01*
Y0580666D01*
X0579001Y0581000D01*
X0580001D01*
X0576668Y0581999D02*
X0577335Y0581666D01*
X0578001Y0581000D01*
Y0580333D01*
X0577668Y0580000D01*
X0577002D01*
X0576668Y0580333D01*
Y0580666D01*
X0577002Y0581000D01*
X0578001D01*
X0576002Y0579667D02*
X0574669D01*
X0574003Y0580000D02*
Y0581333D01*
X0573336Y0581999D01*
X0572670Y0581333D01*
Y0580000D01*
Y0581000D01*
X0574003D01*
X0572003Y0579667D02*
X0570670D01*
X0570004Y0581999D02*
Y0580000D01*
X0568671D01*
X0788000Y0630000D02*
X0789999D01*
Y0631000D01*
X0789666Y0631333D01*
X0789000D01*
X0788666Y0631000D01*
Y0630000D01*
Y0630666D02*
X0788000Y0631333D01*
X0789999Y0633332D02*
X0789666Y0632666D01*
X0789000Y0631999D01*
X0788333D01*
X0788000Y0632333D01*
Y0632999D01*
X0788333Y0633332D01*
X0788666D01*
X0789000Y0632999D01*
Y0631999D01*
X0789999Y0635332D02*
Y0633999D01*
X0789000D01*
X0789333Y0634665D01*
Y0634998D01*
X0789000Y0635332D01*
X0788333D01*
X0788000Y0634998D01*
Y0634332D01*
X0788333Y0633999D01*
X0784500Y0658000D02*
X0786499D01*
Y0659000D01*
X0786166Y0659333D01*
X0785500D01*
X0785166Y0659000D01*
Y0658000D01*
Y0658666D02*
X0784500Y0659333D01*
X0786499Y0661332D02*
X0786166Y0660666D01*
X0785500Y0659999D01*
X0784833D01*
X0784500Y0660333D01*
Y0660999D01*
X0784833Y0661332D01*
X0785166D01*
X0785500Y0660999D01*
Y0659999D01*
X0784500Y0662998D02*
X0786499D01*
X0785500Y0661999D01*
Y0663332D01*
X0832267Y0633033D02*
Y0634366D01*
X0832600Y0634699D01*
X0833267D01*
X0833600Y0634366D01*
Y0633033D01*
X0833267Y0632700D01*
X0832600D01*
X0832934Y0633366D02*
X0832267Y0632700D01*
X0832600D02*
X0832267Y0633033D01*
X0831601Y0632700D02*
X0830934D01*
X0831267D01*
Y0634699D01*
X0831601Y0634366D01*
X0828602Y0634699D02*
X0829268Y0634366D01*
X0829935Y0633700D01*
Y0633033D01*
X0829601Y0632700D01*
X0828935D01*
X0828602Y0633033D01*
Y0633366D01*
X0828935Y0633700D01*
X0829935D01*
X0799501Y0670667D02*
Y0672000D01*
X0800500D01*
Y0671334D01*
Y0672000D01*
X0801500D01*
X0799834Y0670001D02*
X0799501Y0669667D01*
Y0669001D01*
X0799834Y0668668D01*
X0800167D01*
X0800500Y0669001D01*
X0800834Y0668668D01*
X0801167D01*
X0801500Y0669001D01*
Y0669667D01*
X0801167Y0670001D01*
X0800834D01*
X0800500Y0669667D01*
X0800167Y0670001D01*
X0799834D01*
X0800500Y0669667D02*
Y0669001D01*
X0799501Y0679667D02*
Y0681000D01*
X0800500D01*
Y0680334D01*
Y0681000D01*
X0801500D01*
X0799501Y0679001D02*
Y0677668D01*
X0799834D01*
X0801167Y0679001D01*
X0801500D01*
X0592666Y0647333D02*
X0592999Y0647000D01*
Y0646333D01*
X0592666Y0646000D01*
X0591333D01*
X0591000Y0646333D01*
Y0647000D01*
X0591333Y0647333D01*
X0592999Y0647999D02*
Y0649332D01*
X0592666D01*
X0591333Y0647999D01*
X0591000D01*
Y0649999D02*
Y0650665D01*
Y0650332D01*
X0592999D01*
X0592666Y0649999D01*
X0590667Y0651665D02*
Y0652998D01*
X0591000Y0653664D02*
X0592333D01*
X0592999Y0654331D01*
X0592333Y0654997D01*
X0591000D01*
X0592000D01*
Y0653664D01*
X0590667Y0655663D02*
Y0656996D01*
X0591000Y0657663D02*
X0592999D01*
Y0658663D01*
X0592666Y0658996D01*
X0592000D01*
X0591666Y0658663D01*
Y0657663D01*
Y0658329D02*
X0591000Y0658996D01*
X0603167Y0591166D02*
X0603500Y0591499D01*
X0604167D01*
X0604500Y0591166D01*
Y0589833D01*
X0604167Y0589500D01*
X0603500D01*
X0603167Y0589833D01*
X0602501Y0591499D02*
X0601168D01*
Y0591166D01*
X0602501Y0589833D01*
Y0589500D01*
X0600501D02*
X0599835D01*
X0600168D01*
Y0591499D01*
X0600501Y0591166D01*
X0598835Y0589167D02*
X0597502D01*
X0596836Y0589500D02*
Y0590833D01*
X0596169Y0591499D01*
X0595503Y0590833D01*
Y0589500D01*
Y0590500D01*
X0596836D01*
X0594837Y0589167D02*
X0593504D01*
X0592837Y0591499D02*
Y0589500D01*
X0591504D01*
X0589166Y0647333D02*
X0589499Y0647000D01*
Y0646333D01*
X0589166Y0646000D01*
X0587833D01*
X0587500Y0646333D01*
Y0647000D01*
X0587833Y0647333D01*
X0589499Y0647999D02*
Y0649332D01*
X0589166D01*
X0587833Y0647999D01*
X0587500D01*
X0589166Y0649999D02*
X0589499Y0650332D01*
Y0650998D01*
X0589166Y0651332D01*
X0587833D01*
X0587500Y0650998D01*
Y0650332D01*
X0587833Y0649999D01*
X0589166D01*
X0587167Y0651998D02*
Y0653331D01*
X0587500Y0653997D02*
X0588833D01*
X0589499Y0654664D01*
X0588833Y0655330D01*
X0587500D01*
X0588500D01*
Y0653997D01*
X0587167Y0655997D02*
Y0657330D01*
X0587500Y0657996D02*
X0589499D01*
Y0658996D01*
X0589166Y0659329D01*
X0588500D01*
X0588166Y0658996D01*
Y0657996D01*
Y0658663D02*
X0587500Y0659329D01*
X0603167Y0595166D02*
X0603500Y0595499D01*
X0604167D01*
X0604500Y0595166D01*
Y0593833D01*
X0604167Y0593500D01*
X0603500D01*
X0603167Y0593833D01*
X0602501Y0595499D02*
X0601168D01*
Y0595166D01*
X0602501Y0593833D01*
Y0593500D01*
X0600501Y0595166D02*
X0600168Y0595499D01*
X0599502D01*
X0599168Y0595166D01*
Y0593833D01*
X0599502Y0593500D01*
X0600168D01*
X0600501Y0593833D01*
Y0595166D01*
X0598502Y0593167D02*
X0597169D01*
X0596503Y0593500D02*
Y0594833D01*
X0595836Y0595499D01*
X0595170Y0594833D01*
Y0593500D01*
Y0594500D01*
X0596503D01*
X0594503Y0593167D02*
X0593170D01*
X0592504Y0595499D02*
Y0593500D01*
X0591171D01*
X0646166Y0616833D02*
X0646499Y0616500D01*
Y0615833D01*
X0646166Y0615500D01*
X0644833D01*
X0644500Y0615833D01*
Y0616500D01*
X0644833Y0616833D01*
X0646499Y0618832D02*
X0646166Y0618166D01*
X0645500Y0617499D01*
X0644833D01*
X0644500Y0617833D01*
Y0618499D01*
X0644833Y0618832D01*
X0645166D01*
X0645500Y0618499D01*
Y0617499D01*
X0644833Y0619499D02*
X0644500Y0619832D01*
Y0620498D01*
X0644833Y0620832D01*
X0646166D01*
X0646499Y0620498D01*
Y0619832D01*
X0646166Y0619499D01*
X0645833D01*
X0645500Y0619832D01*
Y0620832D01*
X0644167Y0621498D02*
Y0622831D01*
X0644500Y0623497D02*
X0645833D01*
X0646499Y0624164D01*
X0645833Y0624830D01*
X0644500D01*
X0645500D01*
Y0623497D01*
X0644167Y0625497D02*
Y0626830D01*
X0644500Y0627496D02*
X0646499D01*
Y0628496D01*
X0646166Y0628829D01*
X0645500D01*
X0645166Y0628496D01*
Y0627496D01*
Y0628163D02*
X0644500Y0628829D01*
X0607566Y0549233D02*
X0607899Y0548900D01*
Y0548233D01*
X0607566Y0547900D01*
X0606233D01*
X0605900Y0548233D01*
Y0548900D01*
X0606233Y0549233D01*
X0607899Y0551232D02*
X0607566Y0550566D01*
X0606900Y0549899D01*
X0606233D01*
X0605900Y0550233D01*
Y0550899D01*
X0606233Y0551232D01*
X0606566D01*
X0606900Y0550899D01*
Y0549899D01*
X0606233Y0551899D02*
X0605900Y0552232D01*
Y0552898D01*
X0606233Y0553232D01*
X0607566D01*
X0607899Y0552898D01*
Y0552232D01*
X0607566Y0551899D01*
X0607233D01*
X0606900Y0552232D01*
Y0553232D01*
X0605567Y0553898D02*
Y0555231D01*
X0605900Y0555897D02*
X0607233D01*
X0607899Y0556564D01*
X0607233Y0557230D01*
X0605900D01*
X0606900D01*
Y0555897D01*
X0605567Y0557897D02*
Y0559230D01*
X0607899Y0559896D02*
X0605900D01*
Y0561229D01*
X0649833Y0616833D02*
X0650166Y0616500D01*
Y0615833D01*
X0649833Y0615500D01*
X0648500D01*
X0648167Y0615833D01*
Y0616500D01*
X0648500Y0616833D01*
X0650166Y0618832D02*
X0649833Y0618166D01*
X0649166Y0617499D01*
X0648500D01*
X0648167Y0617833D01*
Y0618499D01*
X0648500Y0618832D01*
X0648833D01*
X0649166Y0618499D01*
Y0617499D01*
X0649833Y0619499D02*
X0650166Y0619832D01*
Y0620498D01*
X0649833Y0620832D01*
X0649500D01*
X0649166Y0620498D01*
X0648833Y0620832D01*
X0648500D01*
X0648167Y0620498D01*
Y0619832D01*
X0648500Y0619499D01*
X0648833D01*
X0649166Y0619832D01*
X0649500Y0619499D01*
X0649833D01*
X0649166Y0619832D02*
Y0620498D01*
X0647833Y0621498D02*
Y0622831D01*
X0648167Y0623497D02*
X0649500D01*
X0650166Y0624164D01*
X0649500Y0624830D01*
X0648167D01*
X0649166D01*
Y0623497D01*
X0647833Y0625497D02*
Y0626830D01*
X0648167Y0627496D02*
X0650166D01*
Y0628496D01*
X0649833Y0628829D01*
X0649166D01*
X0648833Y0628496D01*
Y0627496D01*
Y0628163D02*
X0648167Y0628829D01*
X0612566Y0549233D02*
X0612899Y0548900D01*
Y0548233D01*
X0612566Y0547900D01*
X0611233D01*
X0610900Y0548233D01*
Y0548900D01*
X0611233Y0549233D01*
X0612899Y0551232D02*
X0612566Y0550566D01*
X0611900Y0549899D01*
X0611233D01*
X0610900Y0550233D01*
Y0550899D01*
X0611233Y0551232D01*
X0611566D01*
X0611900Y0550899D01*
Y0549899D01*
X0612566Y0551899D02*
X0612899Y0552232D01*
Y0552898D01*
X0612566Y0553232D01*
X0612233D01*
X0611900Y0552898D01*
X0611566Y0553232D01*
X0611233D01*
X0610900Y0552898D01*
Y0552232D01*
X0611233Y0551899D01*
X0611566D01*
X0611900Y0552232D01*
X0612233Y0551899D01*
X0612566D01*
X0611900Y0552232D02*
Y0552898D01*
X0610567Y0553898D02*
Y0555231D01*
X0610900Y0555897D02*
X0612233D01*
X0612899Y0556564D01*
X0612233Y0557230D01*
X0610900D01*
X0611900D01*
Y0555897D01*
X0610567Y0557897D02*
Y0559230D01*
X0612899Y0559896D02*
X0610900D01*
Y0561229D01*
X0714167Y0662666D02*
X0714500Y0662999D01*
X0715167D01*
X0715500Y0662666D01*
Y0661333D01*
X0715167Y0661000D01*
X0714500D01*
X0714167Y0661333D01*
X0712168Y0662999D02*
X0712834Y0662666D01*
X0713501Y0662000D01*
Y0661333D01*
X0713167Y0661000D01*
X0712501D01*
X0712168Y0661333D01*
Y0661666D01*
X0712501Y0662000D01*
X0713501D01*
X0711501Y0662999D02*
X0710168D01*
Y0662666D01*
X0711501Y0661333D01*
Y0661000D01*
X0749067Y0601466D02*
X0749400Y0601799D01*
X0750067D01*
X0750400Y0601466D01*
Y0600133D01*
X0750067Y0599800D01*
X0749400D01*
X0749067Y0600133D01*
X0747068Y0601799D02*
X0747734Y0601466D01*
X0748401Y0600800D01*
Y0600133D01*
X0748067Y0599800D01*
X0747401D01*
X0747068Y0600133D01*
Y0600466D01*
X0747401Y0600800D01*
X0748401D01*
X0745068Y0601799D02*
X0745735Y0601466D01*
X0746401Y0600800D01*
Y0600133D01*
X0746068Y0599800D01*
X0745402D01*
X0745068Y0600133D01*
Y0600466D01*
X0745402Y0600800D01*
X0746401D01*
X0749067Y0596466D02*
X0749400Y0596799D01*
X0750067D01*
X0750400Y0596466D01*
Y0595133D01*
X0750067Y0594800D01*
X0749400D01*
X0749067Y0595133D01*
X0747068Y0596799D02*
X0747734Y0596466D01*
X0748401Y0595800D01*
Y0595133D01*
X0748067Y0594800D01*
X0747401D01*
X0747068Y0595133D01*
Y0595466D01*
X0747401Y0595800D01*
X0748401D01*
X0746401Y0596466D02*
X0746068Y0596799D01*
X0745402D01*
X0745068Y0596466D01*
Y0595133D01*
X0745402Y0594800D01*
X0746068D01*
X0746401Y0595133D01*
Y0596466D01*
X0653666Y0638233D02*
X0653999Y0637900D01*
Y0637233D01*
X0653666Y0636900D01*
X0652333D01*
X0652000Y0637233D01*
Y0637900D01*
X0652333Y0638233D01*
X0653999Y0640232D02*
Y0638899D01*
X0653000D01*
X0653333Y0639566D01*
Y0639899D01*
X0653000Y0640232D01*
X0652333D01*
X0652000Y0639899D01*
Y0639233D01*
X0652333Y0638899D01*
Y0640899D02*
X0652000Y0641232D01*
Y0641898D01*
X0652333Y0642232D01*
X0653666D01*
X0653999Y0641898D01*
Y0641232D01*
X0653666Y0640899D01*
X0653333D01*
X0653000Y0641232D01*
Y0642232D01*
X0730767Y0677266D02*
X0731100Y0677599D01*
X0731767D01*
X0732100Y0677266D01*
Y0675933D01*
X0731767Y0675600D01*
X0731100D01*
X0730767Y0675933D01*
X0728768Y0677599D02*
X0730101D01*
Y0676600D01*
X0729434Y0676933D01*
X0729101D01*
X0728768Y0676600D01*
Y0675933D01*
X0729101Y0675600D01*
X0729767D01*
X0730101Y0675933D01*
X0728101Y0677266D02*
X0727768Y0677599D01*
X0727102D01*
X0726768Y0677266D01*
Y0676933D01*
X0727102Y0676600D01*
X0726768Y0676266D01*
Y0675933D01*
X0727102Y0675600D01*
X0727768D01*
X0728101Y0675933D01*
Y0676266D01*
X0727768Y0676600D01*
X0728101Y0676933D01*
Y0677266D01*
X0727768Y0676600D02*
X0727102D01*
X0676567Y0578966D02*
X0676900Y0579299D01*
X0677567D01*
X0677900Y0578966D01*
Y0577633D01*
X0677567Y0577300D01*
X0676900D01*
X0676567Y0577633D01*
X0674568Y0579299D02*
X0675901D01*
Y0578300D01*
X0675234Y0578633D01*
X0674901D01*
X0674568Y0578300D01*
Y0577633D01*
X0674901Y0577300D01*
X0675567D01*
X0675901Y0577633D01*
X0673901Y0579299D02*
X0672568D01*
Y0578966D01*
X0673901Y0577633D01*
Y0577300D01*
X0676567Y0574466D02*
X0676900Y0574799D01*
X0677567D01*
X0677900Y0574466D01*
Y0573133D01*
X0677567Y0572800D01*
X0676900D01*
X0676567Y0573133D01*
X0674568Y0574799D02*
X0675901D01*
Y0573800D01*
X0675234Y0574133D01*
X0674901D01*
X0674568Y0573800D01*
Y0573133D01*
X0674901Y0572800D01*
X0675567D01*
X0675901Y0573133D01*
X0672568Y0574799D02*
X0673235Y0574466D01*
X0673901Y0573800D01*
Y0573133D01*
X0673568Y0572800D01*
X0672902D01*
X0672568Y0573133D01*
Y0573466D01*
X0672902Y0573800D01*
X0673901D01*
X0601166Y0612333D02*
X0601499Y0612000D01*
Y0611333D01*
X0601166Y0611000D01*
X0599833D01*
X0599500Y0611333D01*
Y0612000D01*
X0599833Y0612333D01*
X0601499Y0614332D02*
Y0612999D01*
X0600500D01*
X0600833Y0613666D01*
Y0613999D01*
X0600500Y0614332D01*
X0599833D01*
X0599500Y0613999D01*
Y0613333D01*
X0599833Y0612999D01*
X0601499Y0616332D02*
Y0614999D01*
X0600500D01*
X0600833Y0615665D01*
Y0615998D01*
X0600500Y0616332D01*
X0599833D01*
X0599500Y0615998D01*
Y0615332D01*
X0599833Y0614999D01*
X0599167Y0616998D02*
Y0618331D01*
X0599500Y0618997D02*
X0600833D01*
X0601499Y0619664D01*
X0600833Y0620330D01*
X0599500D01*
X0600500D01*
Y0618997D01*
X0599167Y0620997D02*
Y0622330D01*
X0599500Y0622996D02*
X0601499D01*
Y0623996D01*
X0601166Y0624329D01*
X0600500D01*
X0600166Y0623996D01*
Y0622996D01*
Y0623663D02*
X0599500Y0624329D01*
X0600566Y0569133D02*
X0600899Y0568800D01*
Y0568133D01*
X0600566Y0567800D01*
X0599233D01*
X0598900Y0568133D01*
Y0568800D01*
X0599233Y0569133D01*
X0600899Y0571132D02*
Y0569799D01*
X0599900D01*
X0600233Y0570466D01*
Y0570799D01*
X0599900Y0571132D01*
X0599233D01*
X0598900Y0570799D01*
Y0570133D01*
X0599233Y0569799D01*
X0600899Y0573132D02*
Y0571799D01*
X0599900D01*
X0600233Y0572465D01*
Y0572798D01*
X0599900Y0573132D01*
X0599233D01*
X0598900Y0572798D01*
Y0572132D01*
X0599233Y0571799D01*
X0598567Y0573798D02*
Y0575131D01*
X0598900Y0575797D02*
X0600233D01*
X0600899Y0576464D01*
X0600233Y0577130D01*
X0598900D01*
X0599900D01*
Y0575797D01*
X0598567Y0577797D02*
Y0579130D01*
X0600899Y0579796D02*
X0598900D01*
Y0581129D01*
X0597068Y0665333D02*
X0597402Y0665000D01*
Y0664333D01*
X0597068Y0664000D01*
X0595736D01*
X0595402Y0664333D01*
Y0665000D01*
X0595736Y0665333D01*
X0597402Y0667332D02*
Y0665999D01*
X0596402D01*
X0596735Y0666666D01*
Y0666999D01*
X0596402Y0667332D01*
X0595736D01*
X0595402Y0666999D01*
Y0666333D01*
X0595736Y0665999D01*
X0595402Y0669332D02*
Y0667999D01*
X0596735Y0669332D01*
X0597068D01*
X0597402Y0668998D01*
Y0668332D01*
X0597068Y0667999D01*
X0595069Y0669998D02*
Y0671331D01*
X0595402Y0671997D02*
X0596735D01*
X0597402Y0672664D01*
X0596735Y0673330D01*
X0595402D01*
X0596402D01*
Y0671997D01*
X0595069Y0673997D02*
Y0675330D01*
X0595402Y0675996D02*
X0597402D01*
Y0676996D01*
X0597068Y0677329D01*
X0596402D01*
X0596069Y0676996D01*
Y0675996D01*
Y0676663D02*
X0595402Y0677329D01*
X0646166Y0601333D02*
X0646499Y0601000D01*
Y0600333D01*
X0646166Y0600000D01*
X0644833D01*
X0644500Y0600333D01*
Y0601000D01*
X0644833Y0601333D01*
X0646499Y0603332D02*
Y0601999D01*
X0645500D01*
X0645833Y0602666D01*
Y0602999D01*
X0645500Y0603332D01*
X0644833D01*
X0644500Y0602999D01*
Y0602333D01*
X0644833Y0601999D01*
X0644500Y0605332D02*
Y0603999D01*
X0645833Y0605332D01*
X0646166D01*
X0646499Y0604998D01*
Y0604332D01*
X0646166Y0603999D01*
X0644167Y0605998D02*
Y0607331D01*
X0644500Y0607997D02*
X0645833D01*
X0646499Y0608664D01*
X0645833Y0609330D01*
X0644500D01*
X0645500D01*
Y0607997D01*
X0644167Y0609997D02*
Y0611330D01*
X0646499Y0611996D02*
X0644500D01*
Y0613329D01*
X0606667Y0660166D02*
X0607000Y0660499D01*
X0607667D01*
X0608000Y0660166D01*
Y0658833D01*
X0607667Y0658500D01*
X0607000D01*
X0606667Y0658833D01*
X0604668Y0660499D02*
X0606001D01*
Y0659500D01*
X0605334Y0659833D01*
X0605001D01*
X0604668Y0659500D01*
Y0658833D01*
X0605001Y0658500D01*
X0605667D01*
X0606001Y0658833D01*
X0604001Y0658500D02*
X0603335D01*
X0603668D01*
Y0660499D01*
X0604001Y0660166D01*
X0602335Y0658167D02*
X0601002D01*
X0600336Y0658500D02*
Y0659833D01*
X0599669Y0660499D01*
X0599003Y0659833D01*
Y0658500D01*
Y0659500D01*
X0600336D01*
X0598337Y0658167D02*
X0597004D01*
X0596337Y0658500D02*
Y0660499D01*
X0595337D01*
X0595004Y0660166D01*
Y0659500D01*
X0595337Y0659166D01*
X0596337D01*
X0595671D02*
X0595004Y0658500D01*
X0637667Y0613166D02*
X0638000Y0613499D01*
X0638667D01*
X0639000Y0613166D01*
Y0611833D01*
X0638667Y0611500D01*
X0638000D01*
X0637667Y0611833D01*
X0635668Y0613499D02*
X0637001D01*
Y0612500D01*
X0636334Y0612833D01*
X0636001D01*
X0635668Y0612500D01*
Y0611833D01*
X0636001Y0611500D01*
X0636667D01*
X0637001Y0611833D01*
X0635001Y0611500D02*
X0634335D01*
X0634668D01*
Y0613499D01*
X0635001Y0613166D01*
X0633335Y0611167D02*
X0632002D01*
X0631336Y0611500D02*
Y0612833D01*
X0630669Y0613499D01*
X0630003Y0612833D01*
Y0611500D01*
Y0612500D01*
X0631336D01*
X0629337Y0611167D02*
X0628004D01*
X0627337Y0613499D02*
Y0611500D01*
X0626004D01*
X0601601Y0665333D02*
X0601934Y0665000D01*
Y0664333D01*
X0601601Y0664000D01*
X0600268D01*
X0599935Y0664333D01*
Y0665000D01*
X0600268Y0665333D01*
X0601934Y0667332D02*
Y0665999D01*
X0600935D01*
X0601268Y0666666D01*
Y0666999D01*
X0600935Y0667332D01*
X0600268D01*
X0599935Y0666999D01*
Y0666333D01*
X0600268Y0665999D01*
X0601601Y0667999D02*
X0601934Y0668332D01*
Y0668998D01*
X0601601Y0669332D01*
X0600268D01*
X0599935Y0668998D01*
Y0668332D01*
X0600268Y0667999D01*
X0601601D01*
X0599602Y0669998D02*
Y0671331D01*
X0599935Y0671997D02*
X0601268D01*
X0601934Y0672664D01*
X0601268Y0673330D01*
X0599935D01*
X0600935D01*
Y0671997D01*
X0599602Y0673997D02*
Y0675330D01*
X0599935Y0675996D02*
X0601934D01*
Y0676996D01*
X0601601Y0677329D01*
X0600935D01*
X0600601Y0676996D01*
Y0675996D01*
Y0676663D02*
X0599935Y0677329D01*
X0649833Y0601333D02*
X0650166Y0601000D01*
Y0600333D01*
X0649833Y0600000D01*
X0648500D01*
X0648167Y0600333D01*
Y0601000D01*
X0648500Y0601333D01*
X0650166Y0603332D02*
Y0601999D01*
X0649166D01*
X0649500Y0602666D01*
Y0602999D01*
X0649166Y0603332D01*
X0648500D01*
X0648167Y0602999D01*
Y0602333D01*
X0648500Y0601999D01*
X0649833Y0603999D02*
X0650166Y0604332D01*
Y0604998D01*
X0649833Y0605332D01*
X0648500D01*
X0648167Y0604998D01*
Y0604332D01*
X0648500Y0603999D01*
X0649833D01*
X0647833Y0605998D02*
Y0607331D01*
X0648167Y0607997D02*
X0649500D01*
X0650166Y0608664D01*
X0649500Y0609330D01*
X0648167D01*
X0649166D01*
Y0607997D01*
X0647833Y0609997D02*
Y0611330D01*
X0650166Y0611996D02*
X0648167D01*
Y0613329D01*
X0610666Y0665333D02*
X0610999Y0665000D01*
Y0664333D01*
X0610666Y0664000D01*
X0609333D01*
X0609000Y0664333D01*
Y0665000D01*
X0609333Y0665333D01*
X0609000Y0666999D02*
X0610999D01*
X0610000Y0665999D01*
Y0667332D01*
X0609333Y0667999D02*
X0609000Y0668332D01*
Y0668998D01*
X0609333Y0669332D01*
X0610666D01*
X0610999Y0668998D01*
Y0668332D01*
X0610666Y0667999D01*
X0610333D01*
X0610000Y0668332D01*
Y0669332D01*
X0608667Y0669998D02*
Y0671331D01*
X0609000Y0671997D02*
X0610333D01*
X0610999Y0672664D01*
X0610333Y0673330D01*
X0609000D01*
X0610000D01*
Y0671997D01*
X0608667Y0673997D02*
Y0675330D01*
X0609000Y0675996D02*
X0610999D01*
Y0676996D01*
X0610666Y0677329D01*
X0610000D01*
X0609666Y0676996D01*
Y0675996D01*
Y0676663D02*
X0609000Y0677329D01*
X0657166Y0601333D02*
X0657499Y0601000D01*
Y0600333D01*
X0657166Y0600000D01*
X0655833D01*
X0655500Y0600333D01*
Y0601000D01*
X0655833Y0601333D01*
X0655500Y0602999D02*
X0657499D01*
X0656500Y0601999D01*
Y0603332D01*
X0655833Y0603999D02*
X0655500Y0604332D01*
Y0604998D01*
X0655833Y0605332D01*
X0657166D01*
X0657499Y0604998D01*
Y0604332D01*
X0657166Y0603999D01*
X0656833D01*
X0656500Y0604332D01*
Y0605332D01*
X0655167Y0605998D02*
Y0607331D01*
X0655500Y0607997D02*
X0656833D01*
X0657499Y0608664D01*
X0656833Y0609330D01*
X0655500D01*
X0656500D01*
Y0607997D01*
X0655167Y0609997D02*
Y0611330D01*
X0657499Y0611996D02*
X0655500D01*
Y0613329D01*
X0606134Y0665333D02*
X0606467Y0665000D01*
Y0664333D01*
X0606134Y0664000D01*
X0604801D01*
X0604467Y0664333D01*
Y0665000D01*
X0604801Y0665333D01*
X0604467Y0666999D02*
X0606467D01*
X0605467Y0665999D01*
Y0667332D01*
X0606134Y0667999D02*
X0606467Y0668332D01*
Y0668998D01*
X0606134Y0669332D01*
X0605800D01*
X0605467Y0668998D01*
X0605134Y0669332D01*
X0604801D01*
X0604467Y0668998D01*
Y0668332D01*
X0604801Y0667999D01*
X0605134D01*
X0605467Y0668332D01*
X0605800Y0667999D01*
X0606134D01*
X0605467Y0668332D02*
Y0668998D01*
X0604134Y0669998D02*
Y0671331D01*
X0604467Y0671997D02*
X0605800D01*
X0606467Y0672664D01*
X0605800Y0673330D01*
X0604467D01*
X0605467D01*
Y0671997D01*
X0604134Y0673997D02*
Y0675330D01*
X0604467Y0675996D02*
X0606467D01*
Y0676996D01*
X0606134Y0677329D01*
X0605467D01*
X0605134Y0676996D01*
Y0675996D01*
Y0676663D02*
X0604467Y0677329D01*
X0653499Y0601333D02*
X0653833Y0601000D01*
Y0600333D01*
X0653499Y0600000D01*
X0652167D01*
X0651833Y0600333D01*
Y0601000D01*
X0652167Y0601333D01*
X0651833Y0602999D02*
X0653833D01*
X0652833Y0601999D01*
Y0603332D01*
X0653499Y0603999D02*
X0653833Y0604332D01*
Y0604998D01*
X0653499Y0605332D01*
X0653166D01*
X0652833Y0604998D01*
X0652500Y0605332D01*
X0652167D01*
X0651833Y0604998D01*
Y0604332D01*
X0652167Y0603999D01*
X0652500D01*
X0652833Y0604332D01*
X0653166Y0603999D01*
X0653499D01*
X0652833Y0604332D02*
Y0604998D01*
X0651500Y0605998D02*
Y0607331D01*
X0651833Y0607997D02*
X0653166D01*
X0653833Y0608664D01*
X0653166Y0609330D01*
X0651833D01*
X0652833D01*
Y0607997D01*
X0651500Y0609997D02*
Y0611330D01*
X0653833Y0611996D02*
X0651833D01*
Y0613329D01*
X0798367Y0663366D02*
X0798700Y0663699D01*
X0799367D01*
X0799700Y0663366D01*
Y0662033D01*
X0799367Y0661700D01*
X0798700D01*
X0798367Y0662033D01*
X0796701Y0661700D02*
Y0663699D01*
X0797701Y0662700D01*
X0796368D01*
X0795701Y0663699D02*
X0794368D01*
Y0663366D01*
X0795701Y0662033D01*
Y0661700D01*
X0820367Y0660266D02*
X0820700Y0660599D01*
X0821367D01*
X0821700Y0660266D01*
Y0658933D01*
X0821367Y0658600D01*
X0820700D01*
X0820367Y0658933D01*
X0818701Y0658600D02*
Y0660599D01*
X0819701Y0659600D01*
X0818368D01*
X0816368Y0660599D02*
X0817035Y0660266D01*
X0817701Y0659600D01*
Y0658933D01*
X0817368Y0658600D01*
X0816702D01*
X0816368Y0658933D01*
Y0659266D01*
X0816702Y0659600D01*
X0817701D01*
X0676567Y0587966D02*
X0676900Y0588299D01*
X0677567D01*
X0677900Y0587966D01*
Y0586633D01*
X0677567Y0586300D01*
X0676900D01*
X0676567Y0586633D01*
X0674901Y0586300D02*
Y0588299D01*
X0675901Y0587300D01*
X0674568D01*
X0672568Y0588299D02*
X0673901D01*
Y0587300D01*
X0673235Y0587633D01*
X0672902D01*
X0672568Y0587300D01*
Y0586633D01*
X0672902Y0586300D01*
X0673568D01*
X0673901Y0586633D01*
X0871600Y0599800D02*
X0873599D01*
Y0600800D01*
X0873266Y0601133D01*
X0872600D01*
X0872266Y0600800D01*
Y0599800D01*
Y0600466D02*
X0871600Y0601133D01*
X0873266Y0601799D02*
X0873599Y0602133D01*
Y0602799D01*
X0873266Y0603132D01*
X0872933D01*
X0872600Y0602799D01*
Y0602466D01*
Y0602799D01*
X0872266Y0603132D01*
X0871933D01*
X0871600Y0602799D01*
Y0602133D01*
X0871933Y0601799D01*
X0873266Y0603799D02*
X0873599Y0604132D01*
Y0604798D01*
X0873266Y0605132D01*
X0872933D01*
X0872600Y0604798D01*
Y0604465D01*
Y0604798D01*
X0872266Y0605132D01*
X0871933D01*
X0871600Y0604798D01*
Y0604132D01*
X0871933Y0603799D01*
X0841500Y0659500D02*
Y0661499D01*
X0840500D01*
X0840167Y0661166D01*
Y0660500D01*
X0840500Y0660166D01*
X0841500D01*
X0840833D02*
X0840167Y0659500D01*
X0838168Y0661499D02*
X0839501D01*
Y0660500D01*
X0838834Y0660833D01*
X0838501D01*
X0838168Y0660500D01*
Y0659833D01*
X0838501Y0659500D01*
X0839167D01*
X0839501Y0659833D01*
X0837501Y0659500D02*
X0836835D01*
X0837168D01*
Y0661499D01*
X0837501Y0661166D01*
X0828667D02*
X0829000Y0661499D01*
X0829667D01*
X0830000Y0661166D01*
Y0659833D01*
X0829667Y0659500D01*
X0829000D01*
X0828667Y0659833D01*
X0828001Y0661166D02*
X0827667Y0661499D01*
X0827001D01*
X0826668Y0661166D01*
Y0660833D01*
X0827001Y0660500D01*
X0827334D01*
X0827001D01*
X0826668Y0660166D01*
Y0659833D01*
X0827001Y0659500D01*
X0827667D01*
X0828001Y0659833D01*
X0824668Y0661499D02*
X0825335Y0661166D01*
X0826001Y0660500D01*
Y0659833D01*
X0825668Y0659500D01*
X0825002D01*
X0824668Y0659833D01*
Y0660166D01*
X0825002Y0660500D01*
X0826001D01*
X0799501Y0688667D02*
Y0690000D01*
X0800500D01*
Y0689334D01*
Y0690000D01*
X0801500D01*
X0799501Y0686668D02*
X0799834Y0687334D01*
X0800500Y0688001D01*
X0801167D01*
X0801500Y0687667D01*
Y0687001D01*
X0801167Y0686668D01*
X0800834D01*
X0800500Y0687001D01*
Y0688001D01*
X0799501Y0697667D02*
Y0699000D01*
X0800500D01*
Y0698334D01*
Y0699000D01*
X0801500D01*
X0799501Y0695668D02*
Y0697001D01*
X0800500D01*
X0800167Y0696334D01*
Y0696001D01*
X0800500Y0695668D01*
X0801167D01*
X0801500Y0696001D01*
Y0696667D01*
X0801167Y0697001D01*
X0799501Y0706667D02*
Y0708000D01*
X0800500D01*
Y0707334D01*
Y0708000D01*
X0801500D01*
Y0705001D02*
X0799501D01*
X0800500Y0706001D01*
Y0704668D01*
X0734752Y0568165D02*
Y0566165D01*
X0733419D01*
X0731420Y0567832D02*
X0731753Y0568165D01*
X0732419D01*
X0732753Y0567832D01*
Y0567498D01*
X0732419Y0567165D01*
X0731753D01*
X0731420Y0566832D01*
Y0566499D01*
X0731753Y0566165D01*
X0732419D01*
X0732753Y0566499D01*
X0730753Y0566165D02*
X0730087D01*
X0730420D01*
Y0568165D01*
X0730753Y0567832D01*
X0776599Y0665800D02*
X0774600D01*
Y0666800D01*
X0774933Y0667133D01*
X0776266D01*
X0776599Y0666800D01*
Y0665800D01*
X0774600Y0667799D02*
Y0668466D01*
Y0668133D01*
X0776599D01*
X0776266Y0667799D01*
X0774600Y0669465D02*
Y0670132D01*
Y0669799D01*
X0776599D01*
X0776266Y0669465D01*
X0852000Y0608999D02*
Y0607333D01*
X0851667Y0607000D01*
X0851000D01*
X0850667Y0607333D01*
Y0608999D01*
X0849001Y0607000D02*
Y0608999D01*
X0850001Y0608000D01*
X0848668D01*
X0780499Y0635500D02*
X0778833D01*
X0778500Y0635833D01*
Y0636500D01*
X0778833Y0636833D01*
X0780499D01*
Y0638832D02*
X0780166Y0638166D01*
X0779500Y0637499D01*
X0778833D01*
X0778500Y0637833D01*
Y0638499D01*
X0778833Y0638832D01*
X0779166D01*
X0779500Y0638499D01*
Y0637499D01*
X0734500Y0659500D02*
X0736499D01*
Y0660500D01*
X0736166Y0660833D01*
X0735500D01*
X0735166Y0660500D01*
Y0659500D01*
Y0660166D02*
X0734500Y0660833D01*
Y0661499D02*
Y0662166D01*
Y0661833D01*
X0736499D01*
X0736166Y0661499D01*
Y0663166D02*
X0736499Y0663499D01*
Y0664165D01*
X0736166Y0664498D01*
X0735833D01*
X0735500Y0664165D01*
Y0663832D01*
Y0664165D01*
X0735166Y0664498D01*
X0734833D01*
X0734500Y0664165D01*
Y0663499D01*
X0734833Y0663166D01*
X0825500Y0555100D02*
X0827499D01*
Y0556100D01*
X0827166Y0556433D01*
X0826500D01*
X0826167Y0556100D01*
Y0555100D01*
Y0555766D02*
X0825500Y0556433D01*
X0827166Y0557099D02*
X0827499Y0557433D01*
Y0558099D01*
X0827166Y0558432D01*
X0826833D01*
X0826500Y0558099D01*
Y0557766D01*
Y0558099D01*
X0826167Y0558432D01*
X0825833D01*
X0825500Y0558099D01*
Y0557433D01*
X0825833Y0557099D01*
X0827499Y0559099D02*
Y0560432D01*
X0827166D01*
X0825833Y0559099D01*
X0825500D01*
X0760000Y0628001D02*
Y0630000D01*
X0761333D01*
X0762999D02*
Y0628001D01*
X0761999Y0629000D01*
X0763332D01*
X0751600Y0727099D02*
Y0725100D01*
X0750600D01*
X0750267Y0725433D01*
Y0726766D01*
X0750600Y0727099D01*
X0751600D01*
X0749601Y0725100D02*
X0748934D01*
X0749267D01*
Y0727099D01*
X0749601Y0726766D01*
X0746602Y0727099D02*
X0747934D01*
Y0726100D01*
X0747268Y0726433D01*
X0746935D01*
X0746602Y0726100D01*
Y0725433D01*
X0746935Y0725100D01*
X0747601D01*
X0747934Y0725433D01*
X0780000Y0625499D02*
Y0623500D01*
X0779000D01*
X0778667Y0623833D01*
Y0625166D01*
X0779000Y0625499D01*
X0780000D01*
X0778001Y0623500D02*
X0777334D01*
X0777667D01*
Y0625499D01*
X0778001Y0625166D01*
X0775335Y0623500D02*
Y0625499D01*
X0776334Y0624500D01*
X0775002D01*
X0785499Y0634000D02*
X0783500D01*
Y0635000D01*
X0783833Y0635333D01*
X0785166D01*
X0785499Y0635000D01*
Y0634000D01*
X0783500Y0635999D02*
Y0636666D01*
Y0636333D01*
X0785499D01*
X0785166Y0635999D01*
X0783500Y0638998D02*
Y0637666D01*
X0784833Y0638998D01*
X0785166D01*
X0785499Y0638665D01*
Y0637999D01*
X0785166Y0637666D01*
X0855167Y0584066D02*
X0855500Y0584399D01*
X0856167D01*
X0856500Y0584066D01*
Y0582733D01*
X0856167Y0582400D01*
X0855500D01*
X0855167Y0582733D01*
X0854501Y0582400D02*
X0853834D01*
X0854167D01*
Y0584399D01*
X0854501Y0584066D01*
X0852835D02*
X0852501Y0584399D01*
X0851835D01*
X0851502Y0584066D01*
Y0583733D01*
X0851835Y0583400D01*
X0851502Y0583066D01*
Y0582733D01*
X0851835Y0582400D01*
X0852501D01*
X0852835Y0582733D01*
Y0583066D01*
X0852501Y0583400D01*
X0852835Y0583733D01*
Y0584066D01*
X0852501Y0583400D02*
X0851835D01*
X0832667Y0591066D02*
X0833000Y0591399D01*
X0833667D01*
X0834000Y0591066D01*
Y0589733D01*
X0833667Y0589400D01*
X0833000D01*
X0832667Y0589733D01*
X0832001Y0589400D02*
X0831334D01*
X0831667D01*
Y0591399D01*
X0832001Y0591066D01*
X0830334Y0589733D02*
X0830001Y0589400D01*
X0829335D01*
X0829002Y0589733D01*
Y0591066D01*
X0829335Y0591399D01*
X0830001D01*
X0830334Y0591066D01*
Y0590733D01*
X0830001Y0590400D01*
X0829002D01*
X0757066Y0637133D02*
X0757399Y0636800D01*
Y0636133D01*
X0757066Y0635800D01*
X0755733D01*
X0755400Y0636133D01*
Y0636800D01*
X0755733Y0637133D01*
X0755400Y0639132D02*
Y0637799D01*
X0756733Y0639132D01*
X0757066D01*
X0757399Y0638799D01*
Y0638133D01*
X0757066Y0637799D01*
X0755733Y0639799D02*
X0755400Y0640132D01*
Y0640798D01*
X0755733Y0641132D01*
X0757066D01*
X0757399Y0640798D01*
Y0640132D01*
X0757066Y0639799D01*
X0756733D01*
X0756400Y0640132D01*
Y0641132D01*
X0571300Y0686400D02*
Y0688399D01*
X0570300D01*
X0569967Y0688066D01*
Y0687400D01*
X0570300Y0687066D01*
X0571300D01*
X0570634D02*
X0569967Y0686400D01*
X0569301Y0688066D02*
X0568967Y0688399D01*
X0568301D01*
X0567968Y0688066D01*
Y0687733D01*
X0568301Y0687400D01*
X0568634D01*
X0568301D01*
X0567968Y0687066D01*
Y0686733D01*
X0568301Y0686400D01*
X0568967D01*
X0569301Y0686733D01*
X0565968Y0688399D02*
X0567301D01*
Y0687400D01*
X0566635Y0687733D01*
X0566302D01*
X0565968Y0687400D01*
Y0686733D01*
X0566302Y0686400D01*
X0566968D01*
X0567301Y0686733D01*
X0565302Y0686067D02*
X0563969D01*
X0563303Y0686400D02*
X0562636D01*
X0562969D01*
Y0688399D01*
X0563303Y0688066D01*
X0586700Y0686400D02*
Y0688399D01*
X0585700D01*
X0585367Y0688066D01*
Y0687400D01*
X0585700Y0687066D01*
X0586700D01*
X0586034D02*
X0585367Y0686400D01*
X0584701Y0688066D02*
X0584367Y0688399D01*
X0583701D01*
X0583368Y0688066D01*
Y0687733D01*
X0583701Y0687400D01*
X0584034D01*
X0583701D01*
X0583368Y0687066D01*
Y0686733D01*
X0583701Y0686400D01*
X0584367D01*
X0584701Y0686733D01*
X0581368Y0688399D02*
X0582701D01*
Y0687400D01*
X0582035Y0687733D01*
X0581702D01*
X0581368Y0687400D01*
Y0686733D01*
X0581702Y0686400D01*
X0582368D01*
X0582701Y0686733D01*
X0580702Y0686067D02*
X0579369D01*
X0577370Y0686400D02*
X0578703D01*
X0577370Y0687733D01*
Y0688066D01*
X0577703Y0688399D01*
X0578369D01*
X0578703Y0688066D01*
X0601700Y0686400D02*
Y0688399D01*
X0600700D01*
X0600367Y0688066D01*
Y0687400D01*
X0600700Y0687066D01*
X0601700D01*
X0601034D02*
X0600367Y0686400D01*
X0599701Y0688066D02*
X0599367Y0688399D01*
X0598701D01*
X0598368Y0688066D01*
Y0687733D01*
X0598701Y0687400D01*
X0599034D01*
X0598701D01*
X0598368Y0687066D01*
Y0686733D01*
X0598701Y0686400D01*
X0599367D01*
X0599701Y0686733D01*
X0596368Y0688399D02*
X0597701D01*
Y0687400D01*
X0597035Y0687733D01*
X0596702D01*
X0596368Y0687400D01*
Y0686733D01*
X0596702Y0686400D01*
X0597368D01*
X0597701Y0686733D01*
X0595702Y0686067D02*
X0594369D01*
X0593703Y0688066D02*
X0593369Y0688399D01*
X0592703D01*
X0592370Y0688066D01*
Y0687733D01*
X0592703Y0687400D01*
X0593036D01*
X0592703D01*
X0592370Y0687066D01*
Y0686733D01*
X0592703Y0686400D01*
X0593369D01*
X0593703Y0686733D01*
X0616700Y0686400D02*
Y0688399D01*
X0615700D01*
X0615367Y0688066D01*
Y0687400D01*
X0615700Y0687066D01*
X0616700D01*
X0616034D02*
X0615367Y0686400D01*
X0614701Y0688066D02*
X0614367Y0688399D01*
X0613701D01*
X0613368Y0688066D01*
Y0687733D01*
X0613701Y0687400D01*
X0614034D01*
X0613701D01*
X0613368Y0687066D01*
Y0686733D01*
X0613701Y0686400D01*
X0614367D01*
X0614701Y0686733D01*
X0611368Y0688399D02*
X0612701D01*
Y0687400D01*
X0612035Y0687733D01*
X0611702D01*
X0611368Y0687400D01*
Y0686733D01*
X0611702Y0686400D01*
X0612368D01*
X0612701Y0686733D01*
X0610702Y0686067D02*
X0609369D01*
X0607703Y0686400D02*
Y0688399D01*
X0608703Y0687400D01*
X0607370D01*
X0631700Y0686400D02*
Y0688399D01*
X0630700D01*
X0630367Y0688066D01*
Y0687400D01*
X0630700Y0687066D01*
X0631700D01*
X0631034D02*
X0630367Y0686400D01*
X0629701Y0688066D02*
X0629367Y0688399D01*
X0628701D01*
X0628368Y0688066D01*
Y0687733D01*
X0628701Y0687400D01*
X0629034D01*
X0628701D01*
X0628368Y0687066D01*
Y0686733D01*
X0628701Y0686400D01*
X0629367D01*
X0629701Y0686733D01*
X0626368Y0688399D02*
X0627701D01*
Y0687400D01*
X0627035Y0687733D01*
X0626702D01*
X0626368Y0687400D01*
Y0686733D01*
X0626702Y0686400D01*
X0627368D01*
X0627701Y0686733D01*
X0625702Y0686067D02*
X0624369D01*
X0622370Y0688399D02*
X0623703D01*
Y0687400D01*
X0623036Y0687733D01*
X0622703D01*
X0622370Y0687400D01*
Y0686733D01*
X0622703Y0686400D01*
X0623369D01*
X0623703Y0686733D01*
X0646700Y0686400D02*
Y0688399D01*
X0645700D01*
X0645367Y0688066D01*
Y0687400D01*
X0645700Y0687066D01*
X0646700D01*
X0646034D02*
X0645367Y0686400D01*
X0644701Y0688066D02*
X0644367Y0688399D01*
X0643701D01*
X0643368Y0688066D01*
Y0687733D01*
X0643701Y0687400D01*
X0644034D01*
X0643701D01*
X0643368Y0687066D01*
Y0686733D01*
X0643701Y0686400D01*
X0644367D01*
X0644701Y0686733D01*
X0641368Y0688399D02*
X0642701D01*
Y0687400D01*
X0642035Y0687733D01*
X0641702D01*
X0641368Y0687400D01*
Y0686733D01*
X0641702Y0686400D01*
X0642368D01*
X0642701Y0686733D01*
X0640702Y0686067D02*
X0639369D01*
X0637370Y0688399D02*
X0638036Y0688066D01*
X0638703Y0687400D01*
Y0686733D01*
X0638369Y0686400D01*
X0637703D01*
X0637370Y0686733D01*
Y0687066D01*
X0637703Y0687400D01*
X0638703D01*
X0661700Y0686400D02*
Y0688399D01*
X0660700D01*
X0660367Y0688066D01*
Y0687400D01*
X0660700Y0687066D01*
X0661700D01*
X0661034D02*
X0660367Y0686400D01*
X0659701Y0688066D02*
X0659367Y0688399D01*
X0658701D01*
X0658368Y0688066D01*
Y0687733D01*
X0658701Y0687400D01*
X0659034D01*
X0658701D01*
X0658368Y0687066D01*
Y0686733D01*
X0658701Y0686400D01*
X0659367D01*
X0659701Y0686733D01*
X0656368Y0688399D02*
X0657701D01*
Y0687400D01*
X0657035Y0687733D01*
X0656702D01*
X0656368Y0687400D01*
Y0686733D01*
X0656702Y0686400D01*
X0657368D01*
X0657701Y0686733D01*
X0655702Y0686067D02*
X0654369D01*
X0653703Y0688399D02*
X0652370D01*
Y0688066D01*
X0653703Y0686733D01*
Y0686400D01*
X0676700D02*
Y0688399D01*
X0675700D01*
X0675367Y0688066D01*
Y0687400D01*
X0675700Y0687066D01*
X0676700D01*
X0676034D02*
X0675367Y0686400D01*
X0674701Y0688066D02*
X0674367Y0688399D01*
X0673701D01*
X0673368Y0688066D01*
Y0687733D01*
X0673701Y0687400D01*
X0674034D01*
X0673701D01*
X0673368Y0687066D01*
Y0686733D01*
X0673701Y0686400D01*
X0674367D01*
X0674701Y0686733D01*
X0671368Y0688399D02*
X0672701D01*
Y0687400D01*
X0672035Y0687733D01*
X0671702D01*
X0671368Y0687400D01*
Y0686733D01*
X0671702Y0686400D01*
X0672368D01*
X0672701Y0686733D01*
X0670702Y0686067D02*
X0669369D01*
X0668703Y0688066D02*
X0668369Y0688399D01*
X0667703D01*
X0667370Y0688066D01*
Y0687733D01*
X0667703Y0687400D01*
X0667370Y0687066D01*
Y0686733D01*
X0667703Y0686400D01*
X0668369D01*
X0668703Y0686733D01*
Y0687066D01*
X0668369Y0687400D01*
X0668703Y0687733D01*
Y0688066D01*
X0668369Y0687400D02*
X0667703D01*
X0691700Y0686400D02*
Y0688399D01*
X0690700D01*
X0690367Y0688066D01*
Y0687400D01*
X0690700Y0687066D01*
X0691700D01*
X0691034D02*
X0690367Y0686400D01*
X0689701Y0688066D02*
X0689367Y0688399D01*
X0688701D01*
X0688368Y0688066D01*
Y0687733D01*
X0688701Y0687400D01*
X0689034D01*
X0688701D01*
X0688368Y0687066D01*
Y0686733D01*
X0688701Y0686400D01*
X0689367D01*
X0689701Y0686733D01*
X0686368Y0688399D02*
X0687701D01*
Y0687400D01*
X0687035Y0687733D01*
X0686702D01*
X0686368Y0687400D01*
Y0686733D01*
X0686702Y0686400D01*
X0687368D01*
X0687701Y0686733D01*
X0685702Y0686067D02*
X0684369D01*
X0683703Y0686733D02*
X0683369Y0686400D01*
X0682703D01*
X0682370Y0686733D01*
Y0688066D01*
X0682703Y0688399D01*
X0683369D01*
X0683703Y0688066D01*
Y0687733D01*
X0683369Y0687400D01*
X0682370D01*
X0707500Y0686400D02*
Y0688399D01*
X0706500D01*
X0706167Y0688066D01*
Y0687400D01*
X0706500Y0687066D01*
X0707500D01*
X0706834D02*
X0706167Y0686400D01*
X0705501Y0688066D02*
X0705167Y0688399D01*
X0704501D01*
X0704168Y0688066D01*
Y0687733D01*
X0704501Y0687400D01*
X0704834D01*
X0704501D01*
X0704168Y0687066D01*
Y0686733D01*
X0704501Y0686400D01*
X0705167D01*
X0705501Y0686733D01*
X0702168Y0688399D02*
X0703501D01*
Y0687400D01*
X0702835Y0687733D01*
X0702502D01*
X0702168Y0687400D01*
Y0686733D01*
X0702502Y0686400D01*
X0703168D01*
X0703501Y0686733D01*
X0701502Y0686067D02*
X0700169D01*
X0699503Y0686400D02*
X0698836D01*
X0699169D01*
Y0688399D01*
X0699503Y0688066D01*
X0697836D02*
X0697503Y0688399D01*
X0696837D01*
X0696504Y0688066D01*
Y0686733D01*
X0696837Y0686400D01*
X0697503D01*
X0697836Y0686733D01*
Y0688066D01*
X0722700Y0686400D02*
Y0688399D01*
X0721700D01*
X0721367Y0688066D01*
Y0687400D01*
X0721700Y0687066D01*
X0722700D01*
X0722034D02*
X0721367Y0686400D01*
X0720701Y0688066D02*
X0720367Y0688399D01*
X0719701D01*
X0719368Y0688066D01*
Y0687733D01*
X0719701Y0687400D01*
X0720034D01*
X0719701D01*
X0719368Y0687066D01*
Y0686733D01*
X0719701Y0686400D01*
X0720367D01*
X0720701Y0686733D01*
X0717368Y0688399D02*
X0718701D01*
Y0687400D01*
X0718035Y0687733D01*
X0717702D01*
X0717368Y0687400D01*
Y0686733D01*
X0717702Y0686400D01*
X0718368D01*
X0718701Y0686733D01*
X0716702Y0686067D02*
X0715369D01*
X0714703Y0686400D02*
X0714036D01*
X0714369D01*
Y0688399D01*
X0714703Y0688066D01*
X0713036Y0686400D02*
X0712370D01*
X0712703D01*
Y0688399D01*
X0713036Y0688066D01*
X0738500Y0686400D02*
Y0688399D01*
X0737500D01*
X0737167Y0688066D01*
Y0687400D01*
X0737500Y0687066D01*
X0738500D01*
X0737834D02*
X0737167Y0686400D01*
X0736501Y0688066D02*
X0736167Y0688399D01*
X0735501D01*
X0735168Y0688066D01*
Y0687733D01*
X0735501Y0687400D01*
X0735834D01*
X0735501D01*
X0735168Y0687066D01*
Y0686733D01*
X0735501Y0686400D01*
X0736167D01*
X0736501Y0686733D01*
X0733168Y0688399D02*
X0734501D01*
Y0687400D01*
X0733835Y0687733D01*
X0733502D01*
X0733168Y0687400D01*
Y0686733D01*
X0733502Y0686400D01*
X0734168D01*
X0734501Y0686733D01*
X0732502Y0686067D02*
X0731169D01*
X0730503Y0686400D02*
X0729836D01*
X0730169D01*
Y0688399D01*
X0730503Y0688066D01*
X0727504Y0686400D02*
X0728836D01*
X0727504Y0687733D01*
Y0688066D01*
X0727837Y0688399D01*
X0728503D01*
X0728836Y0688066D01*
X0871500Y0622500D02*
X0873499D01*
Y0623500D01*
X0873166Y0623833D01*
X0872500D01*
X0872167Y0623500D01*
Y0622500D01*
Y0623166D02*
X0871500Y0623833D01*
X0873499Y0625832D02*
Y0624499D01*
X0872500D01*
X0872833Y0625166D01*
Y0625499D01*
X0872500Y0625832D01*
X0871833D01*
X0871500Y0625499D01*
Y0624833D01*
X0871833Y0624499D01*
X0873166Y0626499D02*
X0873499Y0626832D01*
Y0627498D01*
X0873166Y0627832D01*
X0871833D01*
X0871500Y0627498D01*
Y0626832D01*
X0871833Y0626499D01*
X0873166D01*
X0717666Y0583333D02*
X0717999Y0583000D01*
Y0582333D01*
X0717666Y0582000D01*
X0716333D01*
X0716000Y0582333D01*
Y0583000D01*
X0716333Y0583333D01*
X0716000Y0583999D02*
Y0584666D01*
Y0584333D01*
X0717999D01*
X0717666Y0583999D01*
Y0585666D02*
X0717999Y0585999D01*
Y0586665D01*
X0717666Y0586998D01*
X0716333D01*
X0716000Y0586665D01*
Y0585999D01*
X0716333Y0585666D01*
X0717666D01*
X0807867Y0663266D02*
X0808200Y0663599D01*
X0808867D01*
X0809200Y0663266D01*
Y0661933D01*
X0808867Y0661600D01*
X0808200D01*
X0807867Y0661933D01*
X0805868Y0661600D02*
X0807201D01*
X0805868Y0662933D01*
Y0663266D01*
X0806201Y0663599D01*
X0806867D01*
X0807201Y0663266D01*
X0803868Y0663599D02*
X0805201D01*
Y0662600D01*
X0804535Y0662933D01*
X0804202D01*
X0803868Y0662600D01*
Y0661933D01*
X0804202Y0661600D01*
X0804868D01*
X0805201Y0661933D01*
X0868000Y0609500D02*
X0869999D01*
Y0610500D01*
X0869666Y0610833D01*
X0869000D01*
X0868666Y0610500D01*
Y0609500D01*
Y0610166D02*
X0868000Y0610833D01*
X0869666Y0611499D02*
X0869999Y0611833D01*
Y0612499D01*
X0869666Y0612832D01*
X0869333D01*
X0869000Y0612499D01*
Y0612166D01*
Y0612499D01*
X0868666Y0612832D01*
X0868333D01*
X0868000Y0612499D01*
Y0611833D01*
X0868333Y0611499D01*
X0869666Y0613499D02*
X0869999Y0613832D01*
Y0614498D01*
X0869666Y0614832D01*
X0868333D01*
X0868000Y0614498D01*
Y0613832D01*
X0868333Y0613499D01*
X0869666D01*
X0862100Y0572899D02*
Y0570900D01*
X0861100D01*
X0860767Y0571233D01*
Y0572566D01*
X0861100Y0572899D01*
X0862100D01*
X0860101Y0572566D02*
X0859767Y0572899D01*
X0859101D01*
X0858768Y0572566D01*
Y0572233D01*
X0859101Y0571900D01*
X0859434D01*
X0859101D01*
X0858768Y0571566D01*
Y0571233D01*
X0859101Y0570900D01*
X0859767D01*
X0860101Y0571233D01*
X0813100Y0621801D02*
Y0623467D01*
X0813433Y0623800D01*
X0814100D01*
X0814433Y0623467D01*
Y0621801D01*
X0816432D02*
X0815099D01*
Y0622800D01*
X0815766Y0622467D01*
X0816099D01*
X0816432Y0622800D01*
Y0623467D01*
X0816099Y0623800D01*
X0815433D01*
X0815099Y0623467D01*
X0757066Y0646633D02*
X0757399Y0646300D01*
Y0645633D01*
X0757066Y0645300D01*
X0755733D01*
X0755400Y0645633D01*
Y0646300D01*
X0755733Y0646633D01*
X0755400Y0648632D02*
Y0647299D01*
X0756733Y0648632D01*
X0757066D01*
X0757399Y0648299D01*
Y0647633D01*
X0757066Y0647299D01*
Y0649299D02*
X0757399Y0649632D01*
Y0650298D01*
X0757066Y0650632D01*
X0756733D01*
X0756400Y0650298D01*
X0756066Y0650632D01*
X0755733D01*
X0755400Y0650298D01*
Y0649632D01*
X0755733Y0649299D01*
X0756066D01*
X0756400Y0649632D01*
X0756733Y0649299D01*
X0757066D01*
X0756400Y0649632D02*
Y0650298D01*
X0789067Y0626666D02*
X0789400Y0626999D01*
X0790067D01*
X0790400Y0626666D01*
Y0625333D01*
X0790067Y0625000D01*
X0789400D01*
X0789067Y0625333D01*
X0787068Y0625000D02*
X0788401D01*
X0787068Y0626333D01*
Y0626666D01*
X0787401Y0626999D01*
X0788067D01*
X0788401Y0626666D01*
X0785068Y0626999D02*
X0785735Y0626666D01*
X0786401Y0626000D01*
Y0625333D01*
X0786068Y0625000D01*
X0785402D01*
X0785068Y0625333D01*
Y0625666D01*
X0785402Y0626000D01*
X0786401D01*
X0799501Y0724667D02*
Y0726000D01*
X0800500D01*
Y0725334D01*
Y0726000D01*
X0801500D01*
Y0722668D02*
Y0724001D01*
X0800167Y0722668D01*
X0799834D01*
X0799501Y0723001D01*
Y0723667D01*
X0799834Y0724001D01*
X0799501Y0733667D02*
Y0735000D01*
X0800500D01*
Y0734334D01*
Y0735000D01*
X0801500D01*
Y0733001D02*
Y0732334D01*
Y0732667D01*
X0799501D01*
X0799834Y0733001D01*
X0749000Y0693900D02*
X0750999D01*
Y0694900D01*
X0750666Y0695233D01*
X0750000D01*
X0749666Y0694900D01*
Y0693900D01*
Y0694566D02*
X0749000Y0695233D01*
Y0695899D02*
Y0696566D01*
Y0696233D01*
X0750999D01*
X0750666Y0695899D01*
X0749000Y0698898D02*
Y0697566D01*
X0750333Y0698898D01*
X0750666D01*
X0750999Y0698565D01*
Y0697899D01*
X0750666Y0697566D01*
X0744000Y0694600D02*
X0745999D01*
Y0695600D01*
X0745666Y0695933D01*
X0745000D01*
X0744666Y0695600D01*
Y0694600D01*
Y0695266D02*
X0744000Y0695933D01*
Y0696599D02*
Y0697266D01*
Y0696933D01*
X0745999D01*
X0745666Y0696599D01*
X0744000Y0698266D02*
Y0698932D01*
Y0698599D01*
X0745999D01*
X0745666Y0698266D01*
X0703867Y0557366D02*
X0704200Y0557699D01*
X0704867D01*
X0705200Y0557366D01*
Y0556033D01*
X0704867Y0555700D01*
X0704200D01*
X0703867Y0556033D01*
X0703201Y0557699D02*
X0701868D01*
Y0557366D01*
X0703201Y0556033D01*
Y0555700D01*
X0693867Y0557366D02*
X0694200Y0557699D01*
X0694867D01*
X0695200Y0557366D01*
Y0556033D01*
X0694867Y0555700D01*
X0694200D01*
X0693867Y0556033D01*
X0693201Y0557366D02*
X0692867Y0557699D01*
X0692201D01*
X0691868Y0557366D01*
Y0557033D01*
X0692201Y0556700D01*
X0691868Y0556366D01*
Y0556033D01*
X0692201Y0555700D01*
X0692867D01*
X0693201Y0556033D01*
Y0556366D01*
X0692867Y0556700D01*
X0693201Y0557033D01*
Y0557366D01*
X0692867Y0556700D02*
X0692201D01*
X0655567Y0593166D02*
X0655900Y0593499D01*
X0656567D01*
X0656900Y0593166D01*
Y0591833D01*
X0656567Y0591500D01*
X0655900D01*
X0655567Y0591833D01*
X0654901D02*
X0654567Y0591500D01*
X0653901D01*
X0653568Y0591833D01*
Y0593166D01*
X0653901Y0593499D01*
X0654567D01*
X0654901Y0593166D01*
Y0592833D01*
X0654567Y0592500D01*
X0653568D01*
X0660666Y0639233D02*
X0660999Y0638900D01*
Y0638233D01*
X0660666Y0637900D01*
X0659333D01*
X0659000Y0638233D01*
Y0638900D01*
X0659333Y0639233D01*
X0659000Y0639899D02*
Y0640566D01*
Y0640233D01*
X0660999D01*
X0660666Y0639899D01*
X0659000Y0641566D02*
Y0642232D01*
Y0641899D01*
X0660999D01*
X0660666Y0641566D01*
X0676567Y0583466D02*
X0676900Y0583799D01*
X0677567D01*
X0677900Y0583466D01*
Y0582133D01*
X0677567Y0581800D01*
X0676900D01*
X0676567Y0582133D01*
X0675901Y0581800D02*
X0675234D01*
X0675567D01*
Y0583799D01*
X0675901Y0583466D01*
X0672902Y0581800D02*
X0674234D01*
X0672902Y0583133D01*
Y0583466D01*
X0673235Y0583799D01*
X0673901D01*
X0674234Y0583466D01*
X0725000Y0586001D02*
Y0587667D01*
X0725333Y0588000D01*
X0726000D01*
X0726333Y0587667D01*
Y0586001D01*
X0728332Y0588000D02*
X0726999D01*
X0728332Y0586667D01*
Y0586334D01*
X0727999Y0586001D01*
X0727333D01*
X0726999Y0586334D01*
X0879766Y0545133D02*
X0880099Y0544800D01*
Y0544133D01*
X0879766Y0543800D01*
X0878433D01*
X0878100Y0544133D01*
Y0544800D01*
X0878433Y0545133D01*
X0878100Y0547132D02*
Y0545799D01*
X0879433Y0547132D01*
X0879766D01*
X0880099Y0546799D01*
Y0546133D01*
X0879766Y0545799D01*
Y0547799D02*
X0880099Y0548132D01*
Y0548798D01*
X0879766Y0549132D01*
X0878433D01*
X0878100Y0548798D01*
Y0548132D01*
X0878433Y0547799D01*
X0879766D01*
X0721666Y0583833D02*
X0721999Y0583500D01*
Y0582833D01*
X0721666Y0582500D01*
X0720333D01*
X0720000Y0582833D01*
Y0583500D01*
X0720333Y0583833D01*
X0721999Y0585832D02*
X0721666Y0585166D01*
X0721000Y0584499D01*
X0720333D01*
X0720000Y0584833D01*
Y0585499D01*
X0720333Y0585832D01*
X0720666D01*
X0721000Y0585499D01*
Y0584499D01*
X0869666Y0623833D02*
X0869999Y0623500D01*
Y0622833D01*
X0869666Y0622500D01*
X0868333D01*
X0868000Y0622833D01*
Y0623500D01*
X0868333Y0623833D01*
X0869666Y0624499D02*
X0869999Y0624833D01*
Y0625499D01*
X0869666Y0625832D01*
X0869333D01*
X0869000Y0625499D01*
Y0625166D01*
Y0625499D01*
X0868666Y0625832D01*
X0868333D01*
X0868000Y0625499D01*
Y0624833D01*
X0868333Y0624499D01*
X0869666Y0626499D02*
X0869999Y0626832D01*
Y0627498D01*
X0869666Y0627832D01*
X0868333D01*
X0868000Y0627498D01*
Y0626832D01*
X0868333Y0626499D01*
X0869666D01*
X0846566Y0616533D02*
X0846899Y0616200D01*
Y0615533D01*
X0846566Y0615200D01*
X0845233D01*
X0844900Y0615533D01*
Y0616200D01*
X0845233Y0616533D01*
X0846566Y0617199D02*
X0846899Y0617533D01*
Y0618199D01*
X0846566Y0618532D01*
X0846233D01*
X0845900Y0618199D01*
Y0617866D01*
Y0618199D01*
X0845566Y0618532D01*
X0845233D01*
X0844900Y0618199D01*
Y0617533D01*
X0845233Y0617199D01*
X0844900Y0619199D02*
Y0619865D01*
Y0619532D01*
X0846899D01*
X0846566Y0619199D01*
X0858499Y0631500D02*
X0856833D01*
X0856500Y0631833D01*
Y0632500D01*
X0856833Y0632833D01*
X0858499D01*
Y0633499D02*
Y0634832D01*
X0858166D01*
X0856833Y0633499D01*
X0856500D01*
X0871500Y0609500D02*
X0873499D01*
Y0610500D01*
X0873166Y0610833D01*
X0872500D01*
X0872167Y0610500D01*
Y0609500D01*
Y0610166D02*
X0871500Y0610833D01*
X0873166Y0611499D02*
X0873499Y0611833D01*
Y0612499D01*
X0873166Y0612832D01*
X0872833D01*
X0872500Y0612499D01*
Y0612166D01*
Y0612499D01*
X0872167Y0612832D01*
X0871833D01*
X0871500Y0612499D01*
Y0611833D01*
X0871833Y0611499D01*
X0871500Y0614832D02*
Y0613499D01*
X0872833Y0614832D01*
X0873166D01*
X0873499Y0614498D01*
Y0613832D01*
X0873166Y0613499D01*
X0879766Y0554033D02*
X0880099Y0553700D01*
Y0553033D01*
X0879766Y0552700D01*
X0878433D01*
X0878100Y0553033D01*
Y0553700D01*
X0878433Y0554033D01*
X0878100Y0556032D02*
Y0554699D01*
X0879433Y0556032D01*
X0879766D01*
X0880099Y0555699D01*
Y0555033D01*
X0879766Y0554699D01*
X0878100Y0556699D02*
Y0557365D01*
Y0557032D01*
X0880099D01*
X0879766Y0556699D01*
X0877500Y0658599D02*
Y0656600D01*
X0876500D01*
X0876167Y0656933D01*
Y0658266D01*
X0876500Y0658599D01*
X0877500D01*
X0874168D02*
X0874834Y0658266D01*
X0875501Y0657600D01*
Y0656933D01*
X0875167Y0656600D01*
X0874501D01*
X0874168Y0656933D01*
Y0657266D01*
X0874501Y0657600D01*
X0875501D01*
X0695000Y0556000D02*
Y0557999D01*
X0694000D01*
X0693667Y0557666D01*
Y0557000D01*
X0694000Y0556666D01*
X0695000D01*
X0694334D02*
X0693667Y0556000D01*
X0691668D02*
X0693001D01*
X0691668Y0557333D01*
Y0557666D01*
X0692001Y0557999D01*
X0692667D01*
X0693001Y0557666D01*
X0691001D02*
X0690668Y0557999D01*
X0690002D01*
X0689668Y0557666D01*
Y0556333D01*
X0690002Y0556000D01*
X0690668D01*
X0691001Y0556333D01*
Y0557666D01*
X0678500Y0559500D02*
Y0561499D01*
X0677500D01*
X0677167Y0561166D01*
Y0560500D01*
X0677500Y0560166D01*
X0678500D01*
X0677834D02*
X0677167Y0559500D01*
X0675168D02*
X0676501D01*
X0675168Y0560833D01*
Y0561166D01*
X0675501Y0561499D01*
X0676167D01*
X0676501Y0561166D01*
X0674501Y0559500D02*
X0673835D01*
X0674168D01*
Y0561499D01*
X0674501Y0561166D01*
X0695000Y0552500D02*
Y0554499D01*
X0694000D01*
X0693667Y0554166D01*
Y0553500D01*
X0694000Y0553166D01*
X0695000D01*
X0694334D02*
X0693667Y0552500D01*
X0691668D02*
X0693001D01*
X0691668Y0553833D01*
Y0554166D01*
X0692001Y0554499D01*
X0692667D01*
X0693001Y0554166D01*
X0689668Y0554499D02*
X0690335Y0554166D01*
X0691001Y0553500D01*
Y0552833D01*
X0690668Y0552500D01*
X0690002D01*
X0689668Y0552833D01*
Y0553166D01*
X0690002Y0553500D01*
X0691001D01*
X0831500Y0555100D02*
X0833499D01*
Y0556100D01*
X0833166Y0556433D01*
X0832500D01*
X0832166Y0556100D01*
Y0555100D01*
Y0555766D02*
X0831500Y0556433D01*
X0833499Y0558432D02*
Y0557099D01*
X0832500D01*
X0832833Y0557766D01*
Y0558099D01*
X0832500Y0558432D01*
X0831833D01*
X0831500Y0558099D01*
Y0557433D01*
X0831833Y0557099D01*
X0833499Y0559099D02*
Y0560432D01*
X0833166D01*
X0831833Y0559099D01*
X0831500D01*
X0748600Y0617500D02*
X0750599D01*
Y0618500D01*
X0750266Y0618833D01*
X0749600D01*
X0749266Y0618500D01*
Y0617500D01*
Y0618166D02*
X0748600Y0618833D01*
Y0619499D02*
Y0620166D01*
Y0619833D01*
X0750599D01*
X0750266Y0619499D01*
Y0621166D02*
X0750599Y0621499D01*
Y0622165D01*
X0750266Y0622498D01*
X0749933D01*
X0749600Y0622165D01*
X0749266Y0622498D01*
X0748933D01*
X0748600Y0622165D01*
Y0621499D01*
X0748933Y0621166D01*
X0749266D01*
X0749600Y0621499D01*
X0749933Y0621166D01*
X0750266D01*
X0749600Y0621499D02*
Y0622165D01*
X0748500Y0610500D02*
X0750499D01*
Y0611500D01*
X0750166Y0611833D01*
X0749500D01*
X0749166Y0611500D01*
Y0610500D01*
Y0611166D02*
X0748500Y0611833D01*
Y0612499D02*
Y0613166D01*
Y0612833D01*
X0750499D01*
X0750166Y0612499D01*
X0750499Y0614165D02*
Y0615498D01*
X0750166D01*
X0748833Y0614165D01*
X0748500D01*
X0778000Y0731999D02*
Y0730000D01*
X0777000D01*
X0776667Y0730333D01*
Y0731666D01*
X0777000Y0731999D01*
X0778000D01*
X0776001Y0730000D02*
X0775334D01*
X0775667D01*
Y0731999D01*
X0776001Y0731666D01*
X0773002Y0731999D02*
X0773668Y0731666D01*
X0774334Y0731000D01*
Y0730333D01*
X0774001Y0730000D01*
X0773335D01*
X0773002Y0730333D01*
Y0730666D01*
X0773335Y0731000D01*
X0774334D01*
X0799501Y0715667D02*
Y0717000D01*
X0800500D01*
Y0716334D01*
Y0717000D01*
X0801500D01*
X0799834Y0715001D02*
X0799501Y0714667D01*
Y0714001D01*
X0799834Y0713668D01*
X0800167D01*
X0800500Y0714001D01*
Y0714334D01*
Y0714001D01*
X0800834Y0713668D01*
X0801167D01*
X0801500Y0714001D01*
Y0714667D01*
X0801167Y0715001D01*
X0566867Y0675066D02*
X0567200Y0675399D01*
X0567867D01*
X0568200Y0675066D01*
Y0673733D01*
X0567867Y0673400D01*
X0567200D01*
X0566867Y0673733D01*
X0564868Y0675399D02*
X0566201D01*
Y0674400D01*
X0565534Y0674733D01*
X0565201D01*
X0564868Y0674400D01*
Y0673733D01*
X0565201Y0673400D01*
X0565867D01*
X0566201Y0673733D01*
X0569967Y0712933D02*
Y0714266D01*
X0570300Y0714599D01*
X0570967D01*
X0571300Y0714266D01*
Y0712933D01*
X0570967Y0712600D01*
X0570300D01*
X0570634Y0713266D02*
X0569967Y0712600D01*
X0570300D02*
X0569967Y0712933D01*
X0569301Y0714266D02*
X0568967Y0714599D01*
X0568301D01*
X0567968Y0714266D01*
Y0713933D01*
X0568301Y0713600D01*
X0568634D01*
X0568301D01*
X0567968Y0713266D01*
Y0712933D01*
X0568301Y0712600D01*
X0568967D01*
X0569301Y0712933D01*
X0567301Y0712267D02*
X0565968D01*
X0565302Y0712600D02*
X0564636D01*
X0564969D01*
Y0714599D01*
X0565302Y0714266D01*
X0585267Y0712933D02*
Y0714266D01*
X0585600Y0714599D01*
X0586267D01*
X0586600Y0714266D01*
Y0712933D01*
X0586267Y0712600D01*
X0585600D01*
X0585934Y0713266D02*
X0585267Y0712600D01*
X0585600D02*
X0585267Y0712933D01*
X0584601Y0714266D02*
X0584267Y0714599D01*
X0583601D01*
X0583268Y0714266D01*
Y0713933D01*
X0583601Y0713600D01*
X0583934D01*
X0583601D01*
X0583268Y0713266D01*
Y0712933D01*
X0583601Y0712600D01*
X0584267D01*
X0584601Y0712933D01*
X0582601Y0712267D02*
X0581268D01*
X0579269Y0712600D02*
X0580602D01*
X0579269Y0713933D01*
Y0714266D01*
X0579602Y0714599D01*
X0580269D01*
X0580602Y0714266D01*
X0600267Y0712933D02*
Y0714266D01*
X0600600Y0714599D01*
X0601267D01*
X0601600Y0714266D01*
Y0712933D01*
X0601267Y0712600D01*
X0600600D01*
X0600934Y0713266D02*
X0600267Y0712600D01*
X0600600D02*
X0600267Y0712933D01*
X0599601Y0714266D02*
X0599267Y0714599D01*
X0598601D01*
X0598268Y0714266D01*
Y0713933D01*
X0598601Y0713600D01*
X0598934D01*
X0598601D01*
X0598268Y0713266D01*
Y0712933D01*
X0598601Y0712600D01*
X0599267D01*
X0599601Y0712933D01*
X0597601Y0712267D02*
X0596268D01*
X0595602Y0714266D02*
X0595269Y0714599D01*
X0594602D01*
X0594269Y0714266D01*
Y0713933D01*
X0594602Y0713600D01*
X0594936D01*
X0594602D01*
X0594269Y0713266D01*
Y0712933D01*
X0594602Y0712600D01*
X0595269D01*
X0595602Y0712933D01*
X0615267D02*
Y0714266D01*
X0615600Y0714599D01*
X0616267D01*
X0616600Y0714266D01*
Y0712933D01*
X0616267Y0712600D01*
X0615600D01*
X0615934Y0713266D02*
X0615267Y0712600D01*
X0615600D02*
X0615267Y0712933D01*
X0614601Y0714266D02*
X0614267Y0714599D01*
X0613601D01*
X0613268Y0714266D01*
Y0713933D01*
X0613601Y0713600D01*
X0613934D01*
X0613601D01*
X0613268Y0713266D01*
Y0712933D01*
X0613601Y0712600D01*
X0614267D01*
X0614601Y0712933D01*
X0612601Y0712267D02*
X0611268D01*
X0609602Y0712600D02*
Y0714599D01*
X0610602Y0713600D01*
X0609269D01*
X0630267Y0712933D02*
Y0714266D01*
X0630600Y0714599D01*
X0631267D01*
X0631600Y0714266D01*
Y0712933D01*
X0631267Y0712600D01*
X0630600D01*
X0630934Y0713266D02*
X0630267Y0712600D01*
X0630600D02*
X0630267Y0712933D01*
X0629601Y0714266D02*
X0629267Y0714599D01*
X0628601D01*
X0628268Y0714266D01*
Y0713933D01*
X0628601Y0713600D01*
X0628934D01*
X0628601D01*
X0628268Y0713266D01*
Y0712933D01*
X0628601Y0712600D01*
X0629267D01*
X0629601Y0712933D01*
X0627601Y0712267D02*
X0626268D01*
X0624269Y0714599D02*
X0625602D01*
Y0713600D01*
X0624935Y0713933D01*
X0624602D01*
X0624269Y0713600D01*
Y0712933D01*
X0624602Y0712600D01*
X0625269D01*
X0625602Y0712933D01*
X0645267D02*
Y0714266D01*
X0645600Y0714599D01*
X0646267D01*
X0646600Y0714266D01*
Y0712933D01*
X0646267Y0712600D01*
X0645600D01*
X0645934Y0713266D02*
X0645267Y0712600D01*
X0645600D02*
X0645267Y0712933D01*
X0644601Y0714266D02*
X0644267Y0714599D01*
X0643601D01*
X0643268Y0714266D01*
Y0713933D01*
X0643601Y0713600D01*
X0643934D01*
X0643601D01*
X0643268Y0713266D01*
Y0712933D01*
X0643601Y0712600D01*
X0644267D01*
X0644601Y0712933D01*
X0642601Y0712267D02*
X0641268D01*
X0639269Y0714599D02*
X0639935Y0714266D01*
X0640602Y0713600D01*
Y0712933D01*
X0640269Y0712600D01*
X0639602D01*
X0639269Y0712933D01*
Y0713266D01*
X0639602Y0713600D01*
X0640602D01*
X0660267Y0712933D02*
Y0714266D01*
X0660600Y0714599D01*
X0661267D01*
X0661600Y0714266D01*
Y0712933D01*
X0661267Y0712600D01*
X0660600D01*
X0660934Y0713266D02*
X0660267Y0712600D01*
X0660600D02*
X0660267Y0712933D01*
X0659601Y0714266D02*
X0659267Y0714599D01*
X0658601D01*
X0658268Y0714266D01*
Y0713933D01*
X0658601Y0713600D01*
X0658934D01*
X0658601D01*
X0658268Y0713266D01*
Y0712933D01*
X0658601Y0712600D01*
X0659267D01*
X0659601Y0712933D01*
X0657601Y0712267D02*
X0656268D01*
X0655602Y0714599D02*
X0654269D01*
Y0714266D01*
X0655602Y0712933D01*
Y0712600D01*
X0675267Y0712933D02*
Y0714266D01*
X0675600Y0714599D01*
X0676267D01*
X0676600Y0714266D01*
Y0712933D01*
X0676267Y0712600D01*
X0675600D01*
X0675934Y0713266D02*
X0675267Y0712600D01*
X0675600D02*
X0675267Y0712933D01*
X0674601Y0714266D02*
X0674267Y0714599D01*
X0673601D01*
X0673268Y0714266D01*
Y0713933D01*
X0673601Y0713600D01*
X0673934D01*
X0673601D01*
X0673268Y0713266D01*
Y0712933D01*
X0673601Y0712600D01*
X0674267D01*
X0674601Y0712933D01*
X0672601Y0712267D02*
X0671268D01*
X0670602Y0714266D02*
X0670269Y0714599D01*
X0669602D01*
X0669269Y0714266D01*
Y0713933D01*
X0669602Y0713600D01*
X0669269Y0713266D01*
Y0712933D01*
X0669602Y0712600D01*
X0670269D01*
X0670602Y0712933D01*
Y0713266D01*
X0670269Y0713600D01*
X0670602Y0713933D01*
Y0714266D01*
X0670269Y0713600D02*
X0669602D01*
X0690267Y0712933D02*
Y0714266D01*
X0690600Y0714599D01*
X0691267D01*
X0691600Y0714266D01*
Y0712933D01*
X0691267Y0712600D01*
X0690600D01*
X0690934Y0713266D02*
X0690267Y0712600D01*
X0690600D02*
X0690267Y0712933D01*
X0689601Y0714266D02*
X0689267Y0714599D01*
X0688601D01*
X0688268Y0714266D01*
Y0713933D01*
X0688601Y0713600D01*
X0688934D01*
X0688601D01*
X0688268Y0713266D01*
Y0712933D01*
X0688601Y0712600D01*
X0689267D01*
X0689601Y0712933D01*
X0687601Y0712267D02*
X0686268D01*
X0685602Y0712933D02*
X0685269Y0712600D01*
X0684602D01*
X0684269Y0712933D01*
Y0714266D01*
X0684602Y0714599D01*
X0685269D01*
X0685602Y0714266D01*
Y0713933D01*
X0685269Y0713600D01*
X0684269D01*
X0706167Y0712933D02*
Y0714266D01*
X0706500Y0714599D01*
X0707167D01*
X0707500Y0714266D01*
Y0712933D01*
X0707167Y0712600D01*
X0706500D01*
X0706834Y0713266D02*
X0706167Y0712600D01*
X0706500D02*
X0706167Y0712933D01*
X0705501Y0714266D02*
X0705167Y0714599D01*
X0704501D01*
X0704168Y0714266D01*
Y0713933D01*
X0704501Y0713600D01*
X0704834D01*
X0704501D01*
X0704168Y0713266D01*
Y0712933D01*
X0704501Y0712600D01*
X0705167D01*
X0705501Y0712933D01*
X0703501Y0712267D02*
X0702168D01*
X0701502Y0712600D02*
X0700836D01*
X0701169D01*
Y0714599D01*
X0701502Y0714266D01*
X0699836D02*
X0699503Y0714599D01*
X0698836D01*
X0698503Y0714266D01*
Y0712933D01*
X0698836Y0712600D01*
X0699503D01*
X0699836Y0712933D01*
Y0714266D01*
X0721267Y0712933D02*
Y0714266D01*
X0721600Y0714599D01*
X0722267D01*
X0722600Y0714266D01*
Y0712933D01*
X0722267Y0712600D01*
X0721600D01*
X0721934Y0713266D02*
X0721267Y0712600D01*
X0721600D02*
X0721267Y0712933D01*
X0720601Y0714266D02*
X0720267Y0714599D01*
X0719601D01*
X0719268Y0714266D01*
Y0713933D01*
X0719601Y0713600D01*
X0719934D01*
X0719601D01*
X0719268Y0713266D01*
Y0712933D01*
X0719601Y0712600D01*
X0720267D01*
X0720601Y0712933D01*
X0718601Y0712267D02*
X0717268D01*
X0716602Y0712600D02*
X0715936D01*
X0716269D01*
Y0714599D01*
X0716602Y0714266D01*
X0714936Y0712600D02*
X0714269D01*
X0714603D01*
Y0714599D01*
X0714936Y0714266D01*
X0737167Y0712933D02*
Y0714266D01*
X0737500Y0714599D01*
X0738167D01*
X0738500Y0714266D01*
Y0712933D01*
X0738167Y0712600D01*
X0737500D01*
X0737834Y0713266D02*
X0737167Y0712600D01*
X0737500D02*
X0737167Y0712933D01*
X0736501Y0714266D02*
X0736167Y0714599D01*
X0735501D01*
X0735168Y0714266D01*
Y0713933D01*
X0735501Y0713600D01*
X0735834D01*
X0735501D01*
X0735168Y0713266D01*
Y0712933D01*
X0735501Y0712600D01*
X0736167D01*
X0736501Y0712933D01*
X0734501Y0712267D02*
X0733168D01*
X0732502Y0712600D02*
X0731836D01*
X0732169D01*
Y0714599D01*
X0732502Y0714266D01*
X0729503Y0712600D02*
X0730836D01*
X0729503Y0713933D01*
Y0714266D01*
X0729836Y0714599D01*
X0730503D01*
X0730836Y0714266D01*
X0551900Y0680500D02*
X0553899D01*
Y0681500D01*
X0553566Y0681833D01*
X0552900D01*
X0552566Y0681500D01*
Y0680500D01*
Y0681166D02*
X0551900Y0681833D01*
Y0682499D02*
Y0683166D01*
Y0682833D01*
X0553899D01*
X0553566Y0682499D01*
Y0684165D02*
X0553899Y0684499D01*
Y0685165D01*
X0553566Y0685498D01*
X0552233D01*
X0551900Y0685165D01*
Y0684499D01*
X0552233Y0684165D01*
X0553566D01*
X0812499Y0599500D02*
X0810833D01*
X0810500Y0599833D01*
Y0600500D01*
X0810833Y0600833D01*
X0812499D01*
X0810500Y0601499D02*
Y0602166D01*
Y0601833D01*
X0812499D01*
X0812166Y0601499D01*
Y0603165D02*
X0812499Y0603499D01*
Y0604165D01*
X0812166Y0604498D01*
X0810833D01*
X0810500Y0604165D01*
Y0603499D01*
X0810833Y0603165D01*
X0812166D01*
X0815699Y0579000D02*
X0815366D01*
X0814700Y0579666D01*
X0815366Y0580333D01*
X0815699D01*
X0814700Y0579666D02*
X0813700D01*
Y0582332D02*
Y0580999D01*
X0815033Y0582332D01*
X0815366D01*
X0815699Y0581999D01*
Y0581333D01*
X0815366Y0580999D01*
X0793266Y0587633D02*
X0793599Y0587300D01*
Y0586633D01*
X0793266Y0586300D01*
X0791933D01*
X0791600Y0586633D01*
Y0587300D01*
X0791933Y0587633D01*
X0793266Y0588299D02*
X0793599Y0588633D01*
Y0589299D01*
X0793266Y0589632D01*
X0792933D01*
X0792600Y0589299D01*
Y0588966D01*
Y0589299D01*
X0792266Y0589632D01*
X0791933D01*
X0791600Y0589299D01*
Y0588633D01*
X0791933Y0588299D01*
X0791600Y0591298D02*
X0793599D01*
X0792600Y0590299D01*
Y0591632D01*
X0816766Y0613633D02*
X0817099Y0613300D01*
Y0612633D01*
X0816766Y0612300D01*
X0815433D01*
X0815100Y0612633D01*
Y0613300D01*
X0815433Y0613633D01*
X0816766Y0614299D02*
X0817099Y0614633D01*
Y0615299D01*
X0816766Y0615632D01*
X0816433D01*
X0816100Y0615299D01*
Y0614966D01*
Y0615299D01*
X0815766Y0615632D01*
X0815433D01*
X0815100Y0615299D01*
Y0614633D01*
X0815433Y0614299D01*
X0817099Y0617632D02*
Y0616299D01*
X0816100D01*
X0816433Y0616965D01*
Y0617298D01*
X0816100Y0617632D01*
X0815433D01*
X0815100Y0617298D01*
Y0616632D01*
X0815433Y0616299D01*
X0843500Y0555100D02*
X0845499D01*
Y0556100D01*
X0845166Y0556433D01*
X0844500D01*
X0844166Y0556100D01*
Y0555100D01*
Y0555766D02*
X0843500Y0556433D01*
Y0558432D02*
Y0557099D01*
X0844833Y0558432D01*
X0845166D01*
X0845499Y0558099D01*
Y0557433D01*
X0845166Y0557099D01*
X0845499Y0559099D02*
Y0560432D01*
X0845166D01*
X0843833Y0559099D01*
X0843500D01*
X0870001Y0683000D02*
X0872000D01*
Y0682000D01*
X0871667Y0681667D01*
X0870334D01*
X0870001Y0682000D01*
Y0683000D01*
X0872000Y0681001D02*
Y0680334D01*
Y0680667D01*
X0870001D01*
X0870334Y0681001D01*
X0870001Y0679334D02*
Y0678002D01*
X0870334D01*
X0871667Y0679334D01*
X0872000D01*
X0709400Y0568600D02*
X0711399D01*
Y0569600D01*
X0711066Y0569933D01*
X0710400D01*
X0710066Y0569600D01*
Y0568600D01*
Y0569266D02*
X0709400Y0569933D01*
X0711399Y0571932D02*
Y0570599D01*
X0710400D01*
X0710733Y0571266D01*
Y0571599D01*
X0710400Y0571932D01*
X0709733D01*
X0709400Y0571599D01*
Y0570933D01*
X0709733Y0570599D01*
Y0572599D02*
X0709400Y0572932D01*
Y0573598D01*
X0709733Y0573932D01*
X0711066D01*
X0711399Y0573598D01*
Y0572932D01*
X0711066Y0572599D01*
X0710733D01*
X0710400Y0572932D01*
Y0573932D01*
X0733667Y0573089D02*
Y0574422D01*
X0734000Y0574755D01*
X0734667D01*
X0735000Y0574422D01*
Y0573089D01*
X0734667Y0572756D01*
X0734000D01*
X0734334Y0573422D02*
X0733667Y0572756D01*
X0734000D02*
X0733667Y0573089D01*
X0733001Y0572756D02*
X0732334D01*
X0732667D01*
Y0574755D01*
X0733001Y0574422D01*
X0731334D02*
X0731001Y0574755D01*
X0730335D01*
X0730002Y0574422D01*
Y0574089D01*
X0730335Y0573756D01*
X0730668D01*
X0730335D01*
X0730002Y0573422D01*
Y0573089D01*
X0730335Y0572756D01*
X0731001D01*
X0731334Y0573089D01*
X0837500Y0555100D02*
X0839499D01*
Y0556100D01*
X0839166Y0556433D01*
X0838500D01*
X0838167Y0556100D01*
Y0555100D01*
Y0555766D02*
X0837500Y0556433D01*
X0839499Y0558432D02*
X0839166Y0557766D01*
X0838500Y0557099D01*
X0837833D01*
X0837500Y0557433D01*
Y0558099D01*
X0837833Y0558432D01*
X0838167D01*
X0838500Y0558099D01*
Y0557099D01*
X0839166Y0559099D02*
X0839499Y0559432D01*
Y0560098D01*
X0839166Y0560432D01*
X0837833D01*
X0837500Y0560098D01*
Y0559432D01*
X0837833Y0559099D01*
X0839166D01*
D18*
X0646221Y0625900D02*
X0642889Y0629232D01*
Y0625900D02*
X0646221Y0629232D01*
X0644555Y0625900D02*
Y0629232D01*
X0642889Y0627566D02*
X0646221D01*
X0646221Y0566900D02*
X0642889Y0570232D01*
Y0566900D02*
X0646221Y0570232D01*
X0644555Y0566900D02*
Y0570232D01*
X0642889Y0568566D02*
X0646221D01*
X0814315Y0626650D02*
X0810983Y0629982D01*
Y0626650D02*
X0814315Y0629982D01*
X0812649Y0626650D02*
Y0629982D01*
X0810983Y0628316D02*
X0814315D01*
D184*
X0721434Y0589579D02*
G03*
X0721434Y0589579I-0000300J0000000D01*
G01*
X0854550Y0638700D02*
G03*
X0854550Y0636300I0000000J-0001200D01*
G01*
X0725965Y0595984D02*
Y0598914D01*
X0669059Y0595984D02*
Y0598914D01*
Y0652890D02*
X0671989D01*
X0725965Y0649960D02*
Y0652890D01*
X0723034Y0595984D02*
X0725965D01*
X0669059D02*
X0671989D01*
X0669059Y0649960D02*
Y0652890D01*
X0723034D02*
X0725965D01*
X0641806Y0628883D02*
Y0644717D01*
X0609706Y0628883D02*
Y0644717D01*
X0641806Y0569883D02*
Y0585717D01*
X0609706Y0569883D02*
Y0585717D01*
X0854550Y0630539D02*
Y0644461D01*
X0834450Y0630539D02*
Y0644461D01*
X0793100Y0647610D02*
Y0650950D01*
Y0629850D02*
X0796440D01*
X0810860D02*
X0814200D01*
Y0647610D02*
Y0650950D01*
X0793100D02*
X0796440D01*
X0793100Y0629850D02*
Y0633190D01*
X0810860Y0650950D02*
X0814200D01*
Y0629850D02*
Y0633190D01*
D185*
X0848197Y0596547D02*
G03*
X0848197Y0596547I-0000787J0000000D01*
G01*
D186*
X0726877Y0591637D02*
X0723545Y0594969D01*
Y0591637D02*
X0726877Y0594969D01*
X0725211Y0591637D02*
Y0594969D01*
X0723545Y0593303D02*
X0726877D01*
M02*
