G04*
G04 #@! TF.GenerationSoftware,Altium Limited,Altium Designer,18.1.1 (9)*
G04*
G04 Layer_Physical_Order=2*
G04 Layer_Color=32768*
%FSAX25Y25*%
%MOIN*%
G70*
G01*
G75*
%ADD13C,0.01000*%
%ADD102C,0.04000*%
%ADD116C,0.04750*%
%ADD117C,0.05143*%
%ADD118C,0.06718*%
%ADD119C,0.06324*%
%ADD120C,0.09080*%
%ADD121C,0.05537*%
%ADD122C,0.13805*%
%ADD123C,0.02600*%
G36*
X0601000Y0536500D02*
D01*
D02*
G37*
D13*
X0818500Y0635000D02*
Y0658000D01*
X0815000Y0631500D02*
X0818500Y0635000D01*
X0814500Y0631500D02*
X0815000D01*
X0809000D02*
X0814500D01*
X0805000Y0635500D02*
X0809000Y0631500D01*
X0805000Y0635500D02*
Y0658000D01*
X0787000Y0715000D02*
Y0738000D01*
Y0715000D02*
X0791000Y0711000D01*
Y0672000D02*
Y0711000D01*
Y0672000D02*
X0805000Y0658000D01*
Y0658000D02*
X0889500Y0658000D01*
D102*
X0529003Y0558002D02*
G03*
X0529000Y0558002I-0000003J-0000501D01*
G01*
X0529003Y0558002D02*
G03*
X0533498Y0562500I-0000003J0004499D01*
G01*
X0533498Y0712500D02*
G03*
X0529000Y0716998I-0004499J0000000D01*
G01*
X0524000Y0738001D02*
G03*
X0524000Y0716998I0000000J-0010502D01*
G01*
X0909002Y0727500D02*
G03*
X0898500Y0738001I-0010502J0000000D01*
G01*
Y0716998D02*
G03*
X0909002Y0727500I0000000J0010502D01*
G01*
X0893497Y0716998D02*
G03*
X0893500Y0716998I0000003J0000501D01*
G01*
Y0716998D02*
G03*
X0893497Y0716998I0000000J-0004499D01*
G01*
D02*
G03*
X0889001Y0712500I0000003J-0004499D01*
G01*
X0889001Y0712497D02*
G03*
X0889001Y0712500I-0000501J0000003D01*
G01*
Y0562500D02*
G03*
X0893497Y0558002I0004499J0000000D01*
G01*
X0893500Y0558002D02*
G03*
X0893497Y0558002I0000000J-0000501D01*
G01*
X0909002Y0547500D02*
G03*
X0898500Y0558002I-0010502J0000000D01*
G01*
Y0536999D02*
G03*
X0909002Y0547500I0000000J0010502D01*
G01*
X0524000Y0558002D02*
G03*
X0524000Y0536999I0000000J-0010502D01*
G01*
Y0558002D02*
X0529000D01*
X0524000Y0536999D02*
X0898500D01*
X0893500Y0558002D02*
X0898500D01*
X0889001Y0562500D02*
Y0562500D01*
X0889001Y0712497D02*
X0889001Y0562500D01*
X0893497Y0716998D02*
X0893500D01*
Y0716998D02*
X0898500D01*
X0524000Y0738001D02*
X0898500D01*
X0524000Y0716998D02*
X0529000D01*
X0533498Y0712500D02*
X0533498Y0562500D01*
Y0562500D02*
Y0562500D01*
D116*
X0674874Y0565000D02*
D03*
X0667000D02*
D03*
X0753874Y0545500D02*
D03*
X0746000D02*
D03*
X0795685Y0569000D02*
D03*
X0787811D02*
D03*
X0772037D02*
D03*
X0764137D02*
D03*
X0756263D02*
D03*
X0778626Y0545500D02*
D03*
X0786500D02*
D03*
X0794400D02*
D03*
X0802300D02*
D03*
X0573248Y0650000D02*
D03*
X0565374D02*
D03*
X0557500D02*
D03*
X0541700D02*
D03*
X0573248Y0669500D02*
D03*
X0565374D02*
D03*
X0557500D02*
D03*
X0541700D02*
D03*
X0550626Y0550000D02*
D03*
X0558500D02*
D03*
X0812563Y0569000D02*
D03*
X0820437D02*
D03*
X0545500Y0687126D02*
D03*
D117*
X0548000Y0722000D02*
D03*
Y0732000D02*
D03*
X0630000Y0544500D02*
D03*
X0640000D02*
D03*
D118*
X0561000Y0626000D02*
D03*
Y0581000D02*
D03*
D119*
X0757500Y0707606D02*
D03*
Y0697764D02*
D03*
Y0678079D02*
D03*
Y0668236D02*
D03*
Y0658394D02*
D03*
D120*
X0682085Y0546500D02*
D03*
D121*
X0590260Y0722500D02*
D03*
X0600102D02*
D03*
X0609945D02*
D03*
X0619787D02*
D03*
X0629630D02*
D03*
X0639472D02*
D03*
X0649315D02*
D03*
X0659157D02*
D03*
X0669000D02*
D03*
X0678843D02*
D03*
X0688685D02*
D03*
X0698528D02*
D03*
X0708370D02*
D03*
D122*
X0898500Y0727500D02*
D03*
D123*
X0655000Y0553000D02*
D03*
X0661500Y0576500D02*
D03*
X0656000Y0572500D02*
D03*
X0760500Y0578000D02*
D03*
X0856500Y0563000D02*
D03*
X0854000D02*
D03*
Y0545500D02*
D03*
X0856500D02*
D03*
X0851500Y0548000D02*
D03*
X0851500Y0550500D02*
D03*
Y0558000D02*
D03*
X0851500Y0555500D02*
D03*
Y0553000D02*
D03*
X0854000Y0548000D02*
D03*
Y0550500D02*
D03*
Y0558000D02*
D03*
Y0555500D02*
D03*
Y0553000D02*
D03*
X0856500Y0548000D02*
D03*
Y0550500D02*
D03*
Y0558000D02*
D03*
Y0555500D02*
D03*
Y0553000D02*
D03*
X0851500Y0560500D02*
D03*
X0854000D02*
D03*
X0856500D02*
D03*
X0722500Y0609500D02*
D03*
Y0612500D02*
D03*
X0735000Y0633000D02*
D03*
X0740500Y0630500D02*
D03*
X0738000Y0628000D02*
D03*
X0735500Y0625500D02*
D03*
X0707500Y0552000D02*
D03*
X0710000Y0549500D02*
D03*
X0707500Y0547000D02*
D03*
X0540500Y0603500D02*
D03*
X0537500D02*
D03*
X0564000Y0638000D02*
D03*
X0585000Y0667500D02*
D03*
X0870000Y0665000D02*
D03*
X0840000Y0688500D02*
D03*
X0870013Y0667987D02*
D03*
X0760000Y0638000D02*
D03*
Y0635000D02*
D03*
X0766000Y0629000D02*
D03*
X0769000D02*
D03*
X0772000D02*
D03*
Y0632000D02*
D03*
X0626500Y0595000D02*
D03*
X0608000Y0634500D02*
D03*
X0644500Y0596000D02*
D03*
X0608000Y0624000D02*
D03*
X0603500D02*
D03*
X0598000Y0650500D02*
D03*
X0754000Y0608500D02*
D03*
X0712500Y0624500D02*
D03*
X0760000Y0608500D02*
D03*
X0716500Y0628500D02*
D03*
X0757000Y0608500D02*
D03*
X0714500Y0626500D02*
D03*
X0846000Y0722000D02*
D03*
Y0719500D02*
D03*
Y0717000D02*
D03*
X0848500Y0714500D02*
D03*
X0851000Y0712000D02*
D03*
X0848500Y0717000D02*
D03*
Y0719500D02*
D03*
X0873500Y0734500D02*
D03*
Y0732000D02*
D03*
Y0729500D02*
D03*
X0561500Y0638000D02*
D03*
X0838000Y0633500D02*
D03*
X0794500Y0590500D02*
D03*
X0657000Y0642000D02*
D03*
X0748000Y0608500D02*
D03*
X0740000Y0609000D02*
D03*
X0738000Y0607000D02*
D03*
X0751000Y0608500D02*
D03*
X0810000Y0607000D02*
D03*
X0755000Y0591000D02*
D03*
X0719000Y0579500D02*
D03*
X0689500Y0648500D02*
D03*
X0694000D02*
D03*
X0873000Y0668000D02*
D03*
X0813000Y0714000D02*
D03*
Y0711500D02*
D03*
Y0734000D02*
D03*
Y0731500D02*
D03*
Y0729000D02*
D03*
Y0726500D02*
D03*
Y0724000D02*
D03*
Y0721500D02*
D03*
Y0719000D02*
D03*
Y0716500D02*
D03*
X0838000Y0724000D02*
D03*
X0815500Y0711500D02*
D03*
Y0714000D02*
D03*
Y0716500D02*
D03*
Y0724000D02*
D03*
Y0726500D02*
D03*
Y0729000D02*
D03*
Y0719000D02*
D03*
Y0721500D02*
D03*
Y0731500D02*
D03*
Y0734000D02*
D03*
X0752500Y0623000D02*
D03*
X0709000Y0644000D02*
D03*
X0705500D02*
D03*
X0728500Y0598500D02*
D03*
X0671500Y0640500D02*
D03*
X0678000Y0609000D02*
D03*
Y0612000D02*
D03*
X0707500Y0605000D02*
D03*
X0701500Y0602500D02*
D03*
X0872500Y0650000D02*
D03*
X0586000Y0564500D02*
D03*
X0635000Y0643500D02*
D03*
X0757500Y0719000D02*
D03*
X0735000Y0604500D02*
D03*
X0679500Y0579000D02*
D03*
Y0574000D02*
D03*
X0643000Y0566500D02*
D03*
X0826500Y0542000D02*
D03*
X0832500D02*
D03*
X0838500D02*
D03*
X0844500D02*
D03*
X0837000Y0577000D02*
D03*
X0847500Y0589500D02*
D03*
X0836000Y0593500D02*
D03*
X0833000D02*
D03*
X0662500Y0586500D02*
D03*
X0665000Y0584000D02*
D03*
X0667500Y0581500D02*
D03*
X0636000D02*
D03*
X0634500Y0584000D02*
D03*
X0671500Y0659500D02*
D03*
X0668500Y0592500D02*
D03*
X0623000Y0572500D02*
D03*
X0625000Y0557000D02*
D03*
X0607500Y0611500D02*
D03*
X0623000Y0579000D02*
D03*
Y0575500D02*
D03*
X0644500Y0591500D02*
D03*
X0651000Y0563000D02*
D03*
X0646000Y0572500D02*
D03*
X0651000D02*
D03*
X0646000Y0563000D02*
D03*
X0634500Y0595000D02*
D03*
X0825500Y0642500D02*
D03*
X0823000D02*
D03*
X0820500D02*
D03*
Y0645000D02*
D03*
X0823000D02*
D03*
X0825500D02*
D03*
X0820500Y0647500D02*
D03*
X0823000D02*
D03*
X0825500D02*
D03*
X0820500Y0650000D02*
D03*
X0823000D02*
D03*
X0825500D02*
D03*
X0820500Y0652500D02*
D03*
X0823000D02*
D03*
X0825500D02*
D03*
X0769000Y0641000D02*
D03*
X0766000Y0632000D02*
D03*
X0763000D02*
D03*
X0769000D02*
D03*
X0766000Y0635000D02*
D03*
X0763000D02*
D03*
X0769000D02*
D03*
Y0638000D02*
D03*
X0763000D02*
D03*
X0789500Y0602000D02*
D03*
X0568500Y0698500D02*
D03*
X0583500D02*
D03*
X0598500D02*
D03*
X0613500D02*
D03*
X0628500D02*
D03*
X0643500D02*
D03*
X0658500D02*
D03*
X0673500D02*
D03*
X0688500D02*
D03*
X0703500D02*
D03*
X0719000D02*
D03*
X0734500D02*
D03*
X0745000Y0709500D02*
D03*
X0826500Y0610500D02*
D03*
X0824000Y0613000D02*
D03*
X0821500Y0615500D02*
D03*
X0819000Y0618000D02*
D03*
X0836500Y0609500D02*
D03*
X0718000Y0560000D02*
D03*
X0714000D02*
D03*
Y0564000D02*
D03*
X0718000D02*
D03*
X0716000Y0562000D02*
D03*
X0821000Y0560500D02*
D03*
X0791000Y0599000D02*
D03*
X0728000Y0579500D02*
D03*
X0712500Y0587000D02*
D03*
X0698000Y0605500D02*
D03*
X0693000D02*
D03*
X0598000Y0655500D02*
D03*
X0610000Y0605000D02*
D03*
X0608000Y0640000D02*
D03*
X0618500Y0635500D02*
D03*
X0616500Y0637500D02*
D03*
X0637500Y0595000D02*
D03*
X0641500Y0551500D02*
D03*
X0646500Y0553500D02*
D03*
X0676000Y0637500D02*
D03*
X0680500Y0633000D02*
D03*
X0679000Y0629000D02*
D03*
X0685000Y0620000D02*
D03*
X0746000Y0671500D02*
D03*
X0770500Y0623000D02*
D03*
X0764500Y0625500D02*
D03*
X0751000Y0644000D02*
D03*
Y0641000D02*
D03*
X0651000Y0629000D02*
D03*
X0620000Y0678500D02*
D03*
X0616500D02*
D03*
X0575500Y0679500D02*
D03*
X0563500Y0698000D02*
D03*
Y0687500D02*
D03*
X0729500Y0698000D02*
D03*
X0714000D02*
D03*
X0698500D02*
D03*
X0683500D02*
D03*
X0668500D02*
D03*
X0653500D02*
D03*
X0638500D02*
D03*
X0623500D02*
D03*
X0608500D02*
D03*
X0593500D02*
D03*
X0578500D02*
D03*
X0695500Y0587500D02*
D03*
X0881000Y0729500D02*
D03*
X0883500D02*
D03*
X0886000D02*
D03*
X0878500D02*
D03*
X0876000D02*
D03*
X0881000Y0732000D02*
D03*
X0883500D02*
D03*
X0886000D02*
D03*
X0878500D02*
D03*
X0876000D02*
D03*
X0881000Y0734500D02*
D03*
X0883500D02*
D03*
X0886000D02*
D03*
X0878500D02*
D03*
X0876000D02*
D03*
X0873500Y0727000D02*
D03*
X0876000D02*
D03*
X0878500D02*
D03*
X0886000D02*
D03*
X0883500D02*
D03*
X0881000D02*
D03*
X0873500Y0724500D02*
D03*
X0876000D02*
D03*
X0878500D02*
D03*
X0886000D02*
D03*
X0883500D02*
D03*
X0881000D02*
D03*
X0873500Y0722000D02*
D03*
X0876000D02*
D03*
X0878500D02*
D03*
X0886000D02*
D03*
X0883500D02*
D03*
X0881000D02*
D03*
X0873500Y0719500D02*
D03*
X0876000D02*
D03*
X0878500D02*
D03*
X0886000D02*
D03*
X0883500D02*
D03*
X0881000D02*
D03*
X0873500Y0717000D02*
D03*
X0876000D02*
D03*
X0878500D02*
D03*
X0886000D02*
D03*
X0883500D02*
D03*
X0881000D02*
D03*
X0873500Y0714500D02*
D03*
X0876000D02*
D03*
X0878500D02*
D03*
X0886000D02*
D03*
X0883500D02*
D03*
X0881000D02*
D03*
Y0712000D02*
D03*
X0883500D02*
D03*
X0886000D02*
D03*
X0878500D02*
D03*
X0876000D02*
D03*
X0873500D02*
D03*
X0853500D02*
D03*
X0856000D02*
D03*
X0858500D02*
D03*
X0871000D02*
D03*
X0868500D02*
D03*
X0866000D02*
D03*
X0863500D02*
D03*
X0861000D02*
D03*
Y0714500D02*
D03*
X0863500D02*
D03*
X0866000D02*
D03*
X0868500D02*
D03*
X0871000D02*
D03*
X0858500D02*
D03*
X0856000D02*
D03*
X0853500D02*
D03*
X0851000D02*
D03*
X0861000Y0717000D02*
D03*
X0863500D02*
D03*
X0866000D02*
D03*
X0868500D02*
D03*
X0871000D02*
D03*
X0858500D02*
D03*
X0856000D02*
D03*
X0853500D02*
D03*
X0851000D02*
D03*
X0861000Y0719500D02*
D03*
X0863500D02*
D03*
X0866000D02*
D03*
X0868500D02*
D03*
X0871000D02*
D03*
X0858500D02*
D03*
X0856000D02*
D03*
X0853500D02*
D03*
X0851000D02*
D03*
X0861000Y0722000D02*
D03*
X0863500D02*
D03*
X0866000D02*
D03*
X0868500D02*
D03*
X0871000D02*
D03*
X0858500D02*
D03*
X0856000D02*
D03*
X0853500D02*
D03*
X0851000D02*
D03*
X0848500D02*
D03*
X0861000Y0724500D02*
D03*
X0863500D02*
D03*
X0866000D02*
D03*
X0868500D02*
D03*
X0871000D02*
D03*
X0858500D02*
D03*
X0856000D02*
D03*
X0853500D02*
D03*
X0851000D02*
D03*
X0848500D02*
D03*
X0875000Y0645000D02*
D03*
X0872500D02*
D03*
Y0647500D02*
D03*
X0875000D02*
D03*
Y0650000D02*
D03*
X0838500Y0552500D02*
D03*
X0727000Y0657000D02*
D03*
X0724000D02*
D03*
X0743000Y0671500D02*
D03*
X0746000Y0674500D02*
D03*
X0743000D02*
D03*
X0790500Y0661000D02*
D03*
Y0658500D02*
D03*
Y0656000D02*
D03*
Y0653500D02*
D03*
X0793000Y0661000D02*
D03*
Y0658500D02*
D03*
X0795500D02*
D03*
X0793000Y0656000D02*
D03*
X0795500D02*
D03*
X0793000Y0653500D02*
D03*
X0795500D02*
D03*
X0793000Y0651000D02*
D03*
Y0648500D02*
D03*
X0795500Y0651000D02*
D03*
X0798000D02*
D03*
X0795500Y0648500D02*
D03*
X0798000D02*
D03*
X0755000Y0719000D02*
D03*
X0832500Y0552500D02*
D03*
X0863500Y0630500D02*
D03*
X0813500Y0650500D02*
D03*
X0815000Y0657000D02*
D03*
X0812500D02*
D03*
X0809000Y0648500D02*
D03*
X0810500Y0650500D02*
D03*
X0809000Y0652500D02*
D03*
X0812000D02*
D03*
X0806500Y0627500D02*
D03*
X0809000D02*
D03*
X0811500D02*
D03*
Y0630000D02*
D03*
X0809000D02*
D03*
X0806500D02*
D03*
X0811500Y0632500D02*
D03*
X0809000D02*
D03*
X0806500D02*
D03*
X0812000Y0648500D02*
D03*
X0843000Y0724000D02*
D03*
X0773000Y0721500D02*
D03*
X0775500D02*
D03*
X0778000D02*
D03*
Y0724000D02*
D03*
X0775500D02*
D03*
X0773000D02*
D03*
X0778000Y0726500D02*
D03*
X0775500D02*
D03*
X0773000D02*
D03*
X0833000Y0701500D02*
D03*
X0830500D02*
D03*
Y0704000D02*
D03*
X0833000D02*
D03*
X0830500Y0706500D02*
D03*
X0833000D02*
D03*
X0830500Y0709000D02*
D03*
X0833000D02*
D03*
X0838000Y0701500D02*
D03*
X0835500D02*
D03*
Y0704000D02*
D03*
X0838000D02*
D03*
X0835500Y0706500D02*
D03*
X0838000D02*
D03*
X0835500Y0709000D02*
D03*
X0838000D02*
D03*
X0818000Y0711500D02*
D03*
X0820500D02*
D03*
X0823000D02*
D03*
X0825500D02*
D03*
X0838000D02*
D03*
X0835500D02*
D03*
X0833000D02*
D03*
X0830500D02*
D03*
X0828000D02*
D03*
Y0714000D02*
D03*
X0830500D02*
D03*
X0833000D02*
D03*
X0835500D02*
D03*
X0838000D02*
D03*
X0825500D02*
D03*
X0823000D02*
D03*
X0820500D02*
D03*
X0818000D02*
D03*
X0828000Y0716500D02*
D03*
X0830500D02*
D03*
X0833000D02*
D03*
X0835500D02*
D03*
X0838000D02*
D03*
X0825500D02*
D03*
X0823000D02*
D03*
X0820500D02*
D03*
X0818000D02*
D03*
X0828000Y0719000D02*
D03*
X0830500D02*
D03*
X0833000D02*
D03*
X0835500D02*
D03*
X0838000D02*
D03*
X0825500D02*
D03*
X0823000D02*
D03*
X0820500D02*
D03*
X0818000D02*
D03*
X0828000Y0721500D02*
D03*
X0830500D02*
D03*
X0833000D02*
D03*
X0835500D02*
D03*
X0838000D02*
D03*
X0825500D02*
D03*
X0823000D02*
D03*
X0820500D02*
D03*
X0818000D02*
D03*
X0828000Y0724000D02*
D03*
X0830500D02*
D03*
X0833000D02*
D03*
X0835500D02*
D03*
X0825500D02*
D03*
X0823000D02*
D03*
X0820500D02*
D03*
X0818000D02*
D03*
X0828000Y0726500D02*
D03*
X0830500D02*
D03*
X0833000D02*
D03*
X0835500D02*
D03*
X0838000D02*
D03*
X0825500D02*
D03*
X0823000D02*
D03*
X0820500D02*
D03*
X0818000D02*
D03*
X0828000Y0729000D02*
D03*
X0830500D02*
D03*
X0833000D02*
D03*
X0835500D02*
D03*
X0838000D02*
D03*
X0825500D02*
D03*
X0823000D02*
D03*
X0820500D02*
D03*
X0818000D02*
D03*
X0828000Y0731500D02*
D03*
X0830500D02*
D03*
X0833000D02*
D03*
X0835500D02*
D03*
X0838000D02*
D03*
X0825500D02*
D03*
X0823000D02*
D03*
X0820500D02*
D03*
X0818000D02*
D03*
X0828000Y0734000D02*
D03*
X0830500D02*
D03*
X0833000D02*
D03*
X0835500D02*
D03*
X0838000D02*
D03*
X0825500D02*
D03*
X0823000D02*
D03*
X0820500D02*
D03*
X0818000D02*
D03*
X0869000Y0620500D02*
D03*
X0661000Y0597000D02*
D03*
X0732000Y0684500D02*
D03*
X0716500D02*
D03*
X0701000D02*
D03*
X0686000D02*
D03*
X0671000D02*
D03*
X0656000D02*
D03*
X0626000D02*
D03*
X0611000D02*
D03*
X0596000D02*
D03*
X0581000D02*
D03*
X0566000D02*
D03*
X0833500Y0603500D02*
D03*
X0828500D02*
D03*
X0841000Y0643000D02*
D03*
X0766000Y0638000D02*
D03*
X0735000Y0684500D02*
D03*
X0719500D02*
D03*
X0704000D02*
D03*
X0569000D02*
D03*
X0584000D02*
D03*
X0689000D02*
D03*
X0674000D02*
D03*
X0659000D02*
D03*
X0644000D02*
D03*
X0629000D02*
D03*
X0599000D02*
D03*
X0614000D02*
D03*
X0843220Y0650100D02*
D03*
X0747500Y0713500D02*
D03*
X0746000Y0694500D02*
D03*
X0735000Y0646500D02*
D03*
X0682500Y0624500D02*
D03*
M02*
