G04*
G04 #@! TF.GenerationSoftware,Altium Limited,Altium Designer,18.1.1 (9)*
G04*
G04 Layer_Physical_Order=4*
G04 Layer_Color=16711680*
%FSAX25Y25*%
%MOIN*%
G70*
G01*
G75*
%ADD13C,0.01000*%
%ADD19C,0.12205*%
%ADD20R,0.03543X0.02756*%
%ADD21R,0.02756X0.03543*%
%ADD25R,0.04331X0.04803*%
%ADD26R,0.01772X0.03347*%
%ADD34R,0.01968X0.01772*%
%ADD45R,0.01400X0.05600*%
%ADD98C,0.07480*%
%ADD101C,0.01000*%
%ADD104C,0.02000*%
%ADD108C,0.06300*%
%ADD109C,0.05906*%
%ADD110R,0.05906X0.05906*%
%ADD111R,0.05906X0.05906*%
%ADD112C,0.09055*%
%ADD113C,0.07874*%
%ADD114C,0.06890*%
%ADD115C,0.02000*%
%ADD124R,0.01181X0.04724*%
%ADD125R,0.04724X0.01181*%
%ADD126R,0.05906X0.10630*%
%ADD127R,0.03898X0.01595*%
%ADD128R,0.02992X0.01595*%
%ADD129R,0.03740X0.06693*%
%ADD130R,0.06693X0.03740*%
%ADD131R,0.04331X0.07874*%
%ADD132R,0.16339X0.04134*%
%ADD133R,0.34646X0.41732*%
%ADD134R,0.02756X0.05118*%
%ADD135R,0.05984X0.06614*%
%ADD136R,0.07480X0.04331*%
%ADD137O,0.01772X0.05315*%
%ADD138R,0.05512X0.03150*%
%ADD139O,0.01400X0.05800*%
%ADD140R,0.12600X0.12600*%
%ADD141R,0.03800X0.01400*%
%ADD142R,0.01400X0.03800*%
%ADD143R,0.03937X0.04331*%
%ADD144R,0.01181X0.01772*%
%ADD145R,0.06299X0.03937*%
%ADD146O,0.06299X0.01772*%
%ADD147R,0.08268X0.06693*%
%ADD148R,0.04803X0.04331*%
%ADD149R,0.03347X0.01772*%
%ADD150R,0.06614X0.05984*%
%ADD151R,0.01772X0.01968*%
%ADD152R,0.06693X0.08662*%
G36*
X0887000Y0710500D02*
X0870500Y0710500D01*
Y0695000D01*
X0859500D01*
X0852000Y0687500D01*
X0845500Y0687500D01*
X0845500Y0698500D01*
X0845500Y0724673D01*
X0848327Y0727500D01*
X0872000Y0727500D01*
Y0735500D01*
X0887000D01*
Y0710500D01*
D02*
G37*
G36*
X0790500Y0669000D02*
X0785500Y0664000D01*
X0781545Y0664000D01*
X0771970Y0664000D01*
X0770000Y0665977D01*
X0770000Y0719500D01*
X0778500Y0719500D01*
X0780000Y0721000D01*
X0780000Y0736000D01*
X0790500Y0736000D01*
X0790500Y0669000D01*
D02*
G37*
G36*
X0757000Y0721500D02*
X0758500Y0720000D01*
Y0718000D01*
X0757000Y0716500D01*
X0754500D01*
X0753500Y0717500D01*
X0753500Y0720500D01*
X0754500Y0721500D01*
X0757000Y0721500D01*
D02*
G37*
G36*
X0803500Y0694500D02*
X0805500Y0692500D01*
X0832500D01*
X0838496Y0686505D01*
X0852477Y0686473D01*
X0859997Y0694000D01*
X0871500Y0694000D01*
X0871500Y0709000D01*
X0887000Y0709000D01*
X0887000Y0663500D01*
X0875500Y0663500D01*
X0875500Y0668500D01*
X0872500Y0671500D01*
X0868500Y0671500D01*
X0864000Y0667000D01*
X0864000Y0662000D01*
X0861000Y0659000D01*
X0799500Y0659000D01*
X0792000Y0666500D01*
X0792000Y0736000D01*
X0803500D01*
X0803500Y0694500D01*
D02*
G37*
G36*
X0817500Y0658351D02*
Y0655872D01*
X0814266D01*
Y0651128D01*
X0815378D01*
Y0648465D01*
X0814414Y0647500D01*
X0802350Y0647500D01*
Y0652250D01*
X0802350Y0652250D01*
X0802350D01*
X0802677Y0652591D01*
X0804086Y0654000D01*
X0810000D01*
Y0654128D01*
X0811234D01*
Y0658351D01*
X0817500Y0658351D01*
D02*
G37*
G36*
X0728500Y0656000D02*
X0724500Y0652000D01*
X0720500D01*
Y0658000D01*
X0723000Y0660500D01*
Y0664500D01*
X0728500D01*
Y0656000D01*
D02*
G37*
G36*
X0773000Y0659600D02*
X0773000Y0649000D01*
X0761500D01*
X0761500Y0652350D01*
X0763500Y0654550D01*
Y0665000D01*
X0768500Y0665000D01*
X0773000Y0659600D01*
D02*
G37*
G36*
X0796000Y0659000D02*
X0796000Y0653828D01*
X0796620D01*
Y0655880D01*
X0797776Y0654724D01*
Y0654228D01*
X0798272D01*
X0799850Y0652650D01*
X0799450D01*
Y0649750D01*
X0798450D01*
Y0648750D01*
X0796750D01*
Y0647300D01*
Y0647046D01*
X0796500Y0647149D01*
X0791769Y0647149D01*
X0791649Y0647269D01*
X0791649Y0650500D01*
X0791459Y0650959D01*
X0791370Y0650996D01*
Y0651322D01*
X0789000D01*
Y0651500D01*
X0786000D01*
X0784000Y0649500D01*
Y0648500D01*
X0780000Y0648500D01*
X0778000Y0650500D01*
X0778000Y0660000D01*
X0780500Y0662500D01*
X0792500D01*
X0796000Y0659000D01*
D02*
G37*
G36*
X0791000Y0650500D02*
X0791000Y0647000D01*
X0791500Y0646500D01*
X0796500Y0646500D01*
Y0644500D01*
X0792000Y0644500D01*
X0791000Y0643500D01*
X0787000Y0643500D01*
X0787000Y0650500D01*
X0791000Y0650500D01*
D02*
G37*
G36*
X0827000Y0656500D02*
X0827000Y0639500D01*
X0824000Y0636500D01*
X0811000D01*
Y0644000D01*
X0815000Y0644000D01*
X0818000Y0647000D01*
Y0650500D01*
X0818500Y0651000D01*
X0818500Y0656500D01*
X0827000Y0656500D01*
D02*
G37*
G36*
X0777000Y0634000D02*
X0772000Y0634000D01*
Y0640500D01*
X0774000D01*
X0774000Y0643500D01*
X0777000Y0643500D01*
Y0634000D01*
D02*
G37*
G36*
X0770500Y0639250D02*
X0770500Y0632000D01*
X0772000Y0630500D01*
X0772000Y0629000D01*
X0768500D01*
X0767500Y0630000D01*
X0762500D01*
X0760500Y0632000D01*
X0760500Y0639000D01*
X0765500Y0639000D01*
X0766500Y0640000D01*
X0766500Y0642000D01*
X0768000Y0643500D01*
X0770500D01*
Y0639250D01*
D02*
G37*
G36*
X0813000Y0633878D02*
X0816500D01*
X0816500Y0624500D01*
X0805000Y0624500D01*
X0805000Y0633500D01*
X0810550D01*
Y0633900D01*
X0812892D01*
X0813000Y0633878D01*
D02*
G37*
G36*
X0853000Y0622000D02*
X0865000D01*
Y0618000D01*
X0849500Y0618000D01*
Y0622500D01*
X0850500Y0623500D01*
X0851500D01*
X0853000Y0622000D01*
D02*
G37*
G36*
X0842500Y0594500D02*
X0840000D01*
X0837500Y0592000D01*
X0831500Y0592000D01*
X0831500Y0597500D01*
X0833000Y0599000D01*
X0842500D01*
Y0594500D01*
D02*
G37*
G36*
X0684500Y0589500D02*
X0684500Y0572000D01*
X0679000Y0572000D01*
X0677000Y0574000D01*
X0677000Y0579000D01*
X0681500Y0583500D01*
Y0596500D01*
X0684500D01*
Y0589500D01*
D02*
G37*
G36*
X0857929Y0565000D02*
X0860898D01*
Y0564000D01*
X0861898D01*
Y0560835D01*
X0863500D01*
Y0559346D01*
X0862488D01*
Y0555000D01*
X0861488D01*
Y0554000D01*
X0858618D01*
Y0550654D01*
Y0547500D01*
X0861488D01*
Y0546500D01*
X0862488D01*
Y0542154D01*
X0863500D01*
Y0541000D01*
X0856000D01*
X0850000Y0547000D01*
X0850000Y0561000D01*
X0855500Y0566500D01*
X0857929D01*
Y0565000D01*
D02*
G37*
%LPC*%
G36*
X0797450Y0652650D02*
X0796750D01*
Y0650750D01*
X0797450D01*
Y0652650D01*
D02*
G37*
G36*
X0859898Y0563000D02*
X0857929D01*
Y0560835D01*
X0859898D01*
Y0563000D01*
D02*
G37*
G36*
X0860488Y0559346D02*
X0858618D01*
Y0556000D01*
X0860488D01*
Y0559346D01*
D02*
G37*
G36*
Y0545500D02*
X0858618D01*
Y0542154D01*
X0860488D01*
Y0545500D01*
D02*
G37*
%LPD*%
D13*
X0672968Y0566906D02*
X0674874Y0565000D01*
X0667000D02*
X0671000Y0569000D01*
Y0582737D01*
X0672968Y0582443D02*
X0679795Y0589270D01*
X0672968Y0566906D02*
Y0582443D01*
X0679795Y0589270D02*
Y0593925D01*
X0671000Y0582737D02*
X0677827Y0589564D01*
Y0593925D01*
X0675858Y0589858D02*
Y0593925D01*
X0654400Y0555900D02*
X0661500Y0563000D01*
X0661000Y0576500D02*
X0661500D01*
Y0563000D02*
Y0576500D01*
X0658500Y0579000D02*
X0661000Y0576500D01*
X0656000Y0562000D02*
Y0572500D01*
X0652500Y0558500D02*
X0656000Y0562000D01*
Y0572500D02*
Y0576500D01*
X0656500Y0577000D01*
X0643056Y0558500D02*
X0652500D01*
X0656500Y0577000D02*
Y0603608D01*
X0640056Y0561500D02*
X0643056Y0558500D01*
X0640056Y0561500D02*
Y0566300D01*
X0637456Y0561500D02*
X0643056Y0555900D01*
X0637456Y0561500D02*
Y0566300D01*
X0643056Y0555900D02*
X0654400D01*
X0658500Y0579000D02*
Y0603345D01*
X0622000Y0556500D02*
X0622500Y0557000D01*
X0703000Y0549500D02*
X0703128Y0549372D01*
X0764000Y0569000D02*
X0771000Y0576000D01*
X0772000Y0568500D02*
X0774000Y0570500D01*
X0759500Y0579000D02*
X0760500Y0578000D01*
X0759500Y0579000D02*
Y0581000D01*
X0762100Y0583600D01*
Y0597400D01*
X0751000Y0608500D02*
X0762100Y0597400D01*
X0850500Y0551500D02*
X0851500Y0550500D01*
X0847744Y0551500D02*
X0850500D01*
X0844500Y0548256D02*
X0847744Y0551500D01*
X0641800Y0631700D02*
X0656937Y0616563D01*
X0667000D01*
X0720000Y0612000D02*
Y0616000D01*
Y0612000D02*
X0722500Y0609500D01*
X0722626Y0612626D02*
X0728024D01*
X0722500Y0612500D02*
X0722626Y0612626D01*
X0720000Y0616000D02*
X0722531Y0618531D01*
X0728024D01*
X0735000Y0633000D02*
X0737000D01*
X0741400Y0637400D01*
X0740343Y0630343D02*
X0740500Y0630500D01*
X0728024Y0630343D02*
X0740343D01*
X0737748Y0628000D02*
X0738000D01*
X0728024Y0628374D02*
X0737374D01*
X0737748Y0628000D01*
X0733500Y0625500D02*
X0735500D01*
X0732595Y0626405D02*
X0733500Y0625500D01*
X0728024Y0626405D02*
X0732595D01*
X0743000Y0629500D02*
Y0652000D01*
X0735969Y0622469D02*
X0743000Y0629500D01*
X0704000Y0555500D02*
X0707500Y0552000D01*
X0678000Y0555500D02*
X0704000D01*
X0703256Y0549500D02*
X0710000D01*
X0703000D02*
X0703256D01*
X0703256Y0549500D02*
X0703256Y0549500D01*
X0704000Y0543500D02*
X0707500Y0547000D01*
X0573000Y0650500D02*
X0592900Y0670400D01*
X0756500Y0569000D02*
X0768000Y0580500D01*
Y0594500D01*
X0771000Y0576000D02*
Y0594500D01*
X0774000Y0570500D02*
Y0594500D01*
X0561000Y0581000D02*
X0566500Y0586500D01*
X0560500Y0580500D02*
X0561000Y0581000D01*
X0566500Y0586500D02*
X0571744D01*
X0561000Y0621500D02*
X0571000Y0611500D01*
X0561000Y0621500D02*
Y0626000D01*
X0580000Y0620000D02*
X0609000D01*
X0571500Y0611500D02*
X0580000Y0620000D01*
X0571000Y0611500D02*
X0571500D01*
X0580400Y0655163D02*
X0594037Y0668800D01*
X0582000Y0654500D02*
X0594700Y0667200D01*
X0580400Y0649400D02*
Y0655163D01*
X0594037Y0668800D02*
X0682463D01*
X0592900Y0670400D02*
X0683125D01*
X0582000Y0648737D02*
Y0654500D01*
X0594700Y0667200D02*
X0681800D01*
X0689638Y0659362D01*
X0565374Y0655126D02*
X0565500Y0655000D01*
X0565000Y0650000D02*
X0570000Y0645000D01*
X0682463Y0668800D02*
X0691606Y0659656D01*
X0576263Y0643000D02*
X0582000Y0648737D01*
X0563500Y0643000D02*
X0576263D01*
X0557500Y0654000D02*
Y0655000D01*
Y0649000D02*
X0563500Y0643000D01*
X0570000Y0645000D02*
X0576000D01*
X0580400Y0649400D01*
X0557500Y0669500D02*
X0557500Y0669500D01*
Y0650000D02*
Y0669500D01*
X0565374Y0650126D02*
Y0669500D01*
X0683125Y0670400D02*
X0693575Y0659951D01*
X0576000Y0672000D02*
X0683788D01*
X0573700Y0669700D02*
X0576000Y0672000D01*
X0573448Y0669700D02*
X0573700D01*
X0683788Y0672000D02*
X0695543Y0660245D01*
X0573248Y0669500D02*
X0573448Y0669700D01*
X0870000Y0659737D02*
Y0665000D01*
X0862763Y0652500D02*
X0870000Y0659737D01*
X0853500Y0650000D02*
Y0651000D01*
X0855000Y0652500D01*
X0862763D01*
X0847500Y0730000D02*
X0864106D01*
X0840000Y0688500D02*
X0841500Y0690000D01*
Y0722500D01*
X0867100Y0665074D02*
X0870013Y0667987D01*
X0841500Y0722500D02*
X0843000Y0724000D01*
X0796488Y0590500D02*
X0798744Y0592756D01*
X0587000Y0606500D02*
X0587256Y0606244D01*
X0596000Y0615000D02*
X0608000D01*
X0587500Y0606500D02*
X0596000Y0615000D01*
X0624456Y0592956D02*
X0626500Y0595000D01*
X0621856Y0593356D02*
X0625000Y0596500D01*
Y0599244D01*
X0621856Y0589300D02*
Y0593356D01*
X0637000Y0595000D02*
X0637456Y0594544D01*
X0608000Y0634500D02*
X0611237D01*
X0646600Y0582888D02*
Y0607612D01*
X0648200Y0582226D02*
Y0608275D01*
X0649800Y0581563D02*
Y0608937D01*
X0651400Y0580900D02*
Y0609600D01*
X0653000Y0579500D02*
Y0604634D01*
X0654900Y0577900D02*
Y0604271D01*
X0639712Y0576000D02*
X0646600Y0582888D01*
X0640375Y0574400D02*
X0648200Y0582226D01*
X0637456Y0569218D02*
X0649800Y0581563D01*
X0640056Y0569556D02*
X0651400Y0580900D01*
X0646000Y0572500D02*
X0653000Y0579500D01*
X0651000Y0574000D02*
X0654900Y0577900D01*
X0595500Y0635000D02*
X0603500Y0627000D01*
Y0624000D02*
Y0627000D01*
X0610000Y0604500D02*
Y0605000D01*
Y0597000D02*
Y0604500D01*
X0602000Y0654256D02*
X0611744D01*
X0600500Y0654000D02*
X0602000D01*
X0598000Y0635000D02*
X0608000Y0625000D01*
Y0624000D02*
Y0625000D01*
X0598000Y0650500D02*
Y0651500D01*
Y0635000D02*
Y0650500D01*
Y0651500D02*
X0600500Y0654000D01*
X0760500Y0585000D02*
Y0596000D01*
X0746000Y0570500D02*
X0760500Y0585000D01*
X0754000Y0608500D02*
X0768000Y0594500D01*
X0697512Y0639488D02*
X0712500Y0624500D01*
X0697512Y0639488D02*
Y0654949D01*
X0703000Y0543500D02*
X0703256D01*
X0760000Y0608500D02*
X0774000Y0594500D01*
X0701500Y0643500D02*
X0716500Y0628500D01*
X0701449Y0644551D02*
Y0654949D01*
X0701500Y0643500D02*
Y0645000D01*
X0677984Y0555500D02*
X0678484Y0555000D01*
X0757000Y0608500D02*
X0771000Y0594500D01*
X0699500Y0641500D02*
X0714500Y0626500D01*
X0699480Y0644000D02*
Y0654949D01*
X0699500Y0641500D02*
Y0644000D01*
X0730500Y0564500D02*
X0733000Y0562000D01*
X0730154Y0570756D02*
X0730500Y0570409D01*
Y0564500D02*
Y0570409D01*
X0746000Y0547000D02*
X0747000Y0546000D01*
X0746000Y0547000D02*
Y0570500D01*
X0799000Y0555000D02*
X0822500D01*
X0794400Y0550400D02*
X0799000Y0555000D01*
X0794400Y0545500D02*
Y0550400D01*
X0822500Y0555000D02*
X0826500Y0551000D01*
Y0548256D02*
Y0551000D01*
X0739839Y0612500D02*
X0747129D01*
X0788000Y0559500D02*
X0798737D01*
X0778626Y0550126D02*
X0788000Y0559500D01*
X0778626Y0545500D02*
Y0550126D01*
X0798737Y0559500D02*
X0802900Y0563663D01*
X0739064Y0617500D02*
X0767500D01*
X0799000Y0557500D02*
X0804500Y0563000D01*
X0791500Y0557500D02*
X0799000D01*
X0786500Y0552500D02*
X0791500Y0557500D01*
X0786500Y0545500D02*
Y0552500D01*
X0802900Y0563663D02*
Y0572837D01*
X0804500Y0563000D02*
Y0573500D01*
X0789900Y0585837D02*
X0802900Y0572837D01*
X0791500Y0586500D02*
X0804500Y0573500D01*
X0778500Y0545500D02*
X0778626D01*
X0791500Y0586500D02*
Y0593500D01*
X0767500Y0617500D02*
X0791500Y0593500D01*
X0738127Y0616563D02*
X0739064Y0617500D01*
X0728024Y0616563D02*
X0738127D01*
X0789900Y0585837D02*
Y0592837D01*
X0750529Y0615900D02*
X0766837D01*
X0789900Y0592837D01*
X0747129Y0612500D02*
X0750529Y0615900D01*
X0728024Y0614594D02*
X0737744D01*
X0739839Y0612500D01*
X0840000Y0633500D02*
X0843220Y0630280D01*
Y0626400D02*
Y0630280D01*
X0838000Y0633500D02*
X0840000D01*
X0838000Y0626500D02*
Y0633500D01*
X0794500Y0590500D02*
X0796488D01*
X0805872Y0582628D02*
X0806920D01*
X0801700Y0586800D02*
X0805872Y0582628D01*
X0801700Y0586800D02*
Y0597982D01*
X0806029Y0592471D02*
X0806920D01*
X0804259Y0594241D02*
X0806029Y0592471D01*
X0804259Y0594241D02*
Y0597982D01*
X0862500Y0625756D02*
X0863500Y0626756D01*
Y0630500D01*
X0569000Y0680000D02*
Y0684500D01*
X0642500Y0642000D02*
X0657000D01*
X0863000Y0605256D02*
X0865042Y0603039D01*
X0866000Y0592500D02*
Y0602082D01*
X0865042Y0603039D02*
X0866000Y0602082D01*
X0857000Y0583500D02*
X0866000Y0592500D01*
X0794531Y0637500D02*
X0798468D01*
X0748000Y0608500D02*
X0760500Y0596000D01*
X0799140Y0592585D02*
Y0597982D01*
X0740000Y0609000D02*
X0740115Y0608885D01*
X0738343Y0610657D02*
X0740000Y0609000D01*
X0736311Y0608689D02*
X0738000Y0607000D01*
X0735000Y0604500D02*
X0740756D01*
X0611237Y0634500D02*
X0614037Y0631700D01*
X0641800D01*
X0810000Y0607000D02*
Y0612244D01*
X0717100Y0585400D02*
X0723000Y0579500D01*
X0717100Y0585400D02*
Y0588663D01*
X0723000Y0579500D02*
X0728000D01*
X0720500Y0598500D02*
X0728500D01*
X0719165Y0597165D02*
X0720500Y0598500D01*
X0719165Y0593925D02*
Y0597165D01*
X0754500Y0591000D02*
X0755000Y0591500D01*
X0741500Y0591000D02*
X0754500D01*
X0737500Y0587000D02*
X0741500Y0591000D01*
X0755000D02*
Y0591500D01*
X0790763Y0599000D02*
X0795763Y0604000D01*
X0721000Y0587000D02*
X0737500D01*
X0718700Y0589300D02*
X0721000Y0587000D01*
X0717197Y0590829D02*
Y0593925D01*
X0718700Y0589300D02*
Y0589326D01*
X0717197Y0590829D02*
X0718700Y0589326D01*
X0571500Y0611500D02*
X0571744D01*
X0609000Y0620000D02*
X0611456Y0622456D01*
Y0625300D01*
X0587256Y0606500D02*
X0587500D01*
X0592000Y0591500D02*
X0614056Y0569444D01*
X0587256Y0591500D02*
Y0596756D01*
Y0591500D02*
X0592000D01*
X0614056Y0566300D02*
Y0569444D01*
X0597500Y0580500D02*
X0606500Y0571500D01*
X0607500D02*
X0611456Y0567544D01*
Y0566300D02*
Y0567544D01*
X0577500Y0580500D02*
X0597500D01*
X0577500D02*
Y0580744D01*
X0571744Y0586500D02*
X0577500Y0580744D01*
X0692321Y0543646D02*
X0697354D01*
X0689500Y0648500D02*
X0689638Y0648638D01*
Y0654949D01*
Y0659362D01*
X0691606Y0650894D02*
X0694000Y0648500D01*
X0691606Y0650894D02*
Y0654949D01*
Y0659656D01*
X0695543Y0654949D02*
Y0660245D01*
X0693575Y0654949D02*
Y0659951D01*
X0796500Y0615500D02*
Y0619000D01*
X0756500Y0633000D02*
X0764500Y0625000D01*
X0705500Y0647500D02*
Y0655000D01*
X0862160Y0654160D02*
X0867100Y0659100D01*
X0851160Y0654160D02*
X0862160D01*
X0867100Y0659100D02*
Y0665074D01*
X0865500Y0666944D02*
X0868643Y0670087D01*
X0865500Y0660500D02*
Y0666944D01*
X0868643Y0670087D02*
X0870883D01*
X0872970Y0668000D01*
X0873000D01*
X0743500Y0622756D02*
X0752256D01*
X0752500Y0623000D01*
X0705500Y0647500D02*
X0709000Y0644000D01*
X0703417Y0646083D02*
X0705500Y0644000D01*
X0695500Y0587500D02*
Y0594500D01*
X0673500Y0610500D02*
Y0638500D01*
X0671500Y0640500D02*
X0673500Y0638500D01*
X0669720Y0606720D02*
X0673500Y0610500D01*
X0667000Y0606720D02*
X0669720D01*
X0661000Y0597000D02*
Y0603500D01*
X0664220Y0606720D01*
X0667000D01*
X0640056Y0644444D02*
X0642500Y0642000D01*
X0640056Y0644444D02*
Y0648300D01*
X0642100Y0639900D02*
X0658048D01*
X0660302Y0642154D01*
X0637500Y0644500D02*
X0642100Y0639900D01*
X0637000Y0654000D02*
X0637456Y0653544D01*
X0641200Y0638300D02*
X0659232D01*
X0661117Y0640185D01*
X0639900Y0639600D02*
X0641200Y0638300D01*
X0624656Y0643844D02*
X0628900Y0639600D01*
X0661117Y0640185D02*
X0667000D01*
X0628900Y0639600D02*
X0639900D01*
X0660302Y0642154D02*
X0667000D01*
X0616500Y0637500D02*
X0617000Y0638000D01*
X0661933Y0638217D02*
X0667000D01*
X0660216Y0636500D02*
X0661933Y0638217D01*
X0640737Y0636500D02*
X0660216D01*
X0639237Y0638000D02*
X0640737Y0636500D01*
X0617000Y0638000D02*
X0639237D01*
X0618500Y0635500D02*
X0639474D01*
X0662748Y0636248D02*
X0667000D01*
X0661400Y0634900D02*
X0662748Y0636248D01*
X0639474Y0635500D02*
X0640074Y0634900D01*
X0661400D01*
X0700990Y0605000D02*
X0707500D01*
X0693575Y0597575D02*
X0693853Y0597853D01*
Y0594203D02*
Y0597853D01*
Y0597863D01*
X0700990Y0605000D01*
X0693575Y0593925D02*
X0693853Y0594203D01*
X0695543Y0596543D02*
X0701500Y0602500D01*
X0695543Y0593925D02*
Y0596543D01*
X0693575Y0593925D02*
Y0597575D01*
X0715228Y0652272D02*
X0717500Y0650000D01*
X0733000D01*
X0748500Y0665500D01*
X0640500Y0588500D02*
X0643500Y0591500D01*
X0741400Y0637400D02*
Y0653400D01*
X0756500Y0668500D01*
X0634500Y0599500D02*
X0635500Y0600500D01*
X0638000D01*
X0643256Y0595244D01*
X0792000Y0637500D02*
X0794531D01*
X0790000Y0635500D02*
X0792000Y0637500D01*
X0834697Y0648197D02*
X0835000Y0648500D01*
X0831000Y0648197D02*
X0834697D01*
X0834598Y0645598D02*
X0835000Y0646000D01*
X0831000Y0645598D02*
X0834598D01*
X0628000Y0654000D02*
X0629656Y0652344D01*
Y0648300D02*
Y0652344D01*
X0621856Y0648300D02*
Y0657366D01*
X0622734Y0658244D01*
X0623000D01*
X0619056Y0648500D02*
X0619256Y0648300D01*
X0616656D02*
Y0654194D01*
X0619056Y0648500D02*
Y0657700D01*
X0618256Y0658500D02*
X0619056Y0657700D01*
X0612744Y0658106D02*
X0616656Y0654194D01*
X0612744Y0658106D02*
Y0658500D01*
X0629500Y0593000D02*
X0629656Y0592844D01*
Y0589300D02*
Y0592844D01*
X0628000Y0584000D02*
X0634500D01*
X0635000Y0643500D02*
Y0658000D01*
X0614700Y0633300D02*
X0646700D01*
X0629656Y0621344D02*
X0637100Y0613900D01*
X0640312D01*
X0629656Y0621344D02*
Y0625300D01*
X0632256Y0621244D02*
X0638000Y0615500D01*
X0640975D01*
X0632256Y0621244D02*
Y0625300D01*
X0632500Y0561500D02*
Y0566500D01*
X0634856Y0571356D02*
X0635000Y0571500D01*
X0634856Y0566300D02*
Y0571356D01*
X0632256Y0566300D02*
Y0571756D01*
X0634900Y0574400D01*
X0640375D01*
X0629656Y0566300D02*
Y0572156D01*
X0633500Y0576000D01*
X0639712D01*
X0637456Y0566300D02*
Y0569218D01*
X0762500Y0641500D02*
Y0645244D01*
X0772000Y0646000D02*
X0772059Y0645941D01*
Y0642323D02*
Y0645941D01*
X0587256Y0601500D02*
Y0606244D01*
X0581500Y0611500D02*
X0581744Y0611256D01*
Y0606500D02*
Y0611256D01*
X0581500Y0591000D02*
X0581744Y0590756D01*
Y0586500D02*
Y0590756D01*
X0577256Y0586744D02*
X0577500Y0586500D01*
X0577256Y0586744D02*
Y0591500D01*
X0577000Y0596500D02*
X0581744D01*
X0577000Y0596500D02*
X0577000Y0596500D01*
X0581500Y0601500D02*
X0581500Y0601500D01*
X0577256Y0601500D02*
X0581500D01*
X0577256Y0606744D02*
X0577500Y0606500D01*
X0577256Y0606744D02*
Y0611500D01*
X0743000Y0652000D02*
X0750500Y0659500D01*
X0757500D01*
X0748500Y0665500D02*
Y0675000D01*
X0751500Y0672500D02*
X0757500Y0678500D01*
X0728024Y0648059D02*
X0733559D01*
X0751500Y0666000D01*
Y0672500D01*
X0804259Y0615502D02*
X0806498D01*
X0809756Y0612244D01*
X0810000D01*
X0795763Y0604000D02*
X0815500D01*
X0819500Y0608000D01*
X0835000D01*
X0836500Y0609500D01*
X0829500Y0618000D02*
X0833000Y0621500D01*
Y0636000D01*
X0838000Y0641000D01*
X0819000Y0618000D02*
X0829500D01*
X0838000Y0641000D02*
Y0648498D01*
X0734500Y0600500D02*
X0734744Y0600744D01*
X0735000Y0601000D01*
X0728024Y0600815D02*
X0734685D01*
X0734744Y0595811D02*
Y0600744D01*
Y0600811D01*
X0735000Y0601000D02*
Y0604500D01*
X0740756D02*
X0743500Y0607244D01*
X0837000Y0577000D02*
X0843500Y0583500D01*
X0857000D01*
X0853339Y0603339D02*
X0856465D01*
X0851244Y0589500D02*
Y0596244D01*
Y0601244D01*
X0853339Y0603339D01*
X0856500Y0595500D02*
X0856756Y0595244D01*
Y0589500D02*
Y0595244D01*
X0847500Y0589500D02*
X0851244D01*
Y0596244D02*
X0853500Y0598500D01*
X0831220Y0600780D02*
X0839535D01*
X0828500Y0603500D02*
X0831220Y0600780D01*
X0833661Y0603339D02*
X0839535D01*
X0833500Y0603500D02*
X0833661Y0603339D01*
X0856465Y0600780D02*
X0860720D01*
X0862000Y0599500D01*
Y0599744D01*
X0727000Y0657000D02*
X0735500Y0665500D01*
Y0667744D01*
X0719165Y0661165D02*
X0720000Y0662000D01*
X0719165Y0654949D02*
Y0661165D01*
X0666500Y0586500D02*
X0672062Y0592062D01*
X0662500Y0586500D02*
X0666500D01*
X0672062Y0592062D02*
Y0602524D01*
X0673890Y0591890D02*
Y0593925D01*
X0674000Y0591000D02*
Y0592500D01*
X0667000Y0584000D02*
X0674000Y0591000D01*
X0665000Y0584000D02*
X0667000D01*
X0667500Y0581500D02*
X0675858Y0589858D01*
X0658500Y0603345D02*
X0663844Y0608689D01*
X0656500Y0603608D02*
X0663549Y0610657D01*
X0654900Y0604271D02*
X0663255Y0612626D01*
X0629000Y0581500D02*
X0636000D01*
X0623000Y0575500D02*
X0629000Y0581500D01*
X0643256Y0595000D02*
Y0595244D01*
X0634856Y0589300D02*
Y0594644D01*
X0634500Y0595000D02*
X0634856Y0594644D01*
X0634500Y0595000D02*
Y0598744D01*
X0635000Y0599244D01*
Y0658000D02*
X0635244Y0658244D01*
X0640000D01*
Y0658000D02*
X0643256Y0654744D01*
Y0654000D02*
Y0654744D01*
X0660000Y0653000D02*
Y0656000D01*
X0663500Y0659500D01*
X0671500D01*
X0659500Y0652500D02*
X0660000Y0653000D01*
Y0652000D02*
Y0652567D01*
Y0652000D02*
X0664000Y0648000D01*
X0667000D01*
X0664000Y0599000D02*
X0665815Y0600815D01*
X0667000D01*
X0661744Y0592500D02*
Y0594244D01*
X0664000Y0596500D02*
Y0599000D01*
X0661744Y0594244D02*
X0664000Y0596500D01*
X0667256Y0592500D02*
X0668500D01*
X0670400Y0594400D01*
Y0599707D01*
X0670462Y0599769D01*
Y0601861D01*
X0669818Y0602506D02*
X0670462Y0601861D01*
X0669732Y0602506D02*
X0669818D01*
X0667000Y0604752D02*
X0669834D01*
X0672062Y0602524D01*
X0669454Y0602783D02*
X0669732Y0602506D01*
X0667000Y0602783D02*
X0669454D01*
X0711291Y0587709D02*
X0711500Y0587500D01*
X0711291Y0587709D02*
Y0593925D01*
X0619256Y0619744D02*
X0622250Y0616750D01*
X0600500Y0594500D02*
Y0605000D01*
Y0594500D02*
X0622500Y0572500D01*
X0623000D01*
X0622500Y0557000D02*
X0625000D01*
X0600500Y0605000D02*
X0607000Y0611500D01*
X0607500D01*
X0611500Y0607500D01*
X0624000D01*
X0623000Y0579000D02*
X0628000Y0584000D01*
X0622500Y0575500D02*
X0623000D01*
X0640056Y0566300D02*
Y0569556D01*
X0643500Y0591500D02*
X0644500D01*
X0646000Y0563000D02*
Y0572500D01*
X0651000D02*
Y0574000D01*
Y0563000D02*
Y0572500D01*
X0640000Y0621000D02*
X0651400Y0609600D01*
X0637500Y0621237D02*
X0649800Y0608937D01*
X0640975Y0615500D02*
X0648200Y0608275D01*
X0640312Y0613900D02*
X0646600Y0607612D01*
X0681764Y0587736D02*
X0682000Y0587500D01*
X0681744Y0587744D02*
X0681764Y0587764D01*
Y0587736D02*
Y0587764D01*
Y0593925D01*
X0681744Y0573811D02*
Y0587744D01*
X0715228Y0590534D02*
Y0593925D01*
Y0590534D02*
X0717100Y0588663D01*
X0715559Y0568197D02*
X0721846D01*
X0713260Y0590240D02*
Y0593925D01*
Y0590240D02*
X0715500Y0588000D01*
Y0579000D02*
Y0588000D01*
X0789500Y0602000D02*
X0791500D01*
X0728024Y0622469D02*
X0735969D01*
X0826500Y0610500D02*
X0834000D01*
X0824000Y0613000D02*
X0831000D01*
X0821500Y0615500D02*
X0830000D01*
X0835543Y0621043D01*
Y0626400D01*
X0834000Y0610500D02*
X0845780Y0622280D01*
Y0626400D01*
X0821000Y0560500D02*
X0846000D01*
X0869000Y0583500D01*
X0790763Y0599000D02*
X0791000D01*
X0791500Y0602000D02*
X0802000Y0612500D01*
X0713000Y0576500D02*
X0715500Y0579000D01*
X0713000Y0570756D02*
Y0576500D01*
Y0570756D02*
X0715559Y0568197D01*
X0689638Y0602138D02*
X0693000Y0605500D01*
X0689638Y0593925D02*
Y0602138D01*
X0691606Y0599106D02*
X0698000Y0605500D01*
X0691606Y0593925D02*
Y0599106D01*
X0587256Y0596756D02*
X0587500Y0597000D01*
X0608000Y0615000D02*
X0614056Y0621056D01*
X0624000Y0607500D02*
X0626000Y0609500D01*
Y0613000D01*
X0622744Y0616256D02*
X0626000Y0613000D01*
X0595500Y0635000D02*
Y0653000D01*
X0598000Y0655500D01*
X0612500Y0653500D02*
X0614056Y0651944D01*
X0612250Y0653750D02*
X0612500Y0653500D01*
X0611744Y0654256D02*
X0612500Y0653500D01*
X0602000Y0654256D02*
X0602244Y0654500D01*
X0614056Y0648300D02*
Y0651944D01*
X0608000Y0640000D02*
X0614700Y0633300D01*
X0646700D02*
X0651000Y0629000D01*
X0653500Y0648000D02*
X0657378Y0644122D01*
X0667000D01*
X0637456Y0589300D02*
Y0594544D01*
X0624456Y0589300D02*
Y0592956D01*
X0624656Y0643844D02*
Y0648100D01*
X0624456Y0648300D02*
X0624656Y0648100D01*
X0637456Y0644544D02*
Y0648300D01*
Y0653544D01*
X0671849Y0554849D02*
X0672500Y0555500D01*
X0671849Y0549354D02*
Y0554849D01*
X0697354Y0543646D02*
X0697500Y0543500D01*
X0697354Y0549354D02*
X0697500Y0549500D01*
X0692321Y0549354D02*
X0697354D01*
X0718744Y0568256D02*
X0721500D01*
X0640630Y0553600D02*
X0646400D01*
X0640500Y0553500D02*
X0640530D01*
X0640630Y0553600D01*
X0639000Y0551500D02*
X0641500D01*
X0632500Y0561500D02*
X0640500Y0553500D01*
X0646400Y0553600D02*
X0646500Y0553500D01*
X0629656Y0560844D02*
X0639000Y0551500D01*
X0637500Y0621237D02*
Y0625256D01*
X0703417Y0646083D02*
Y0654949D01*
X0678100Y0629900D02*
X0679000Y0629000D01*
X0678100Y0629900D02*
Y0654676D01*
X0675858Y0637642D02*
Y0654949D01*
Y0637642D02*
X0676000Y0637500D01*
X0677827Y0654949D02*
X0678100Y0654676D01*
X0679795Y0633705D02*
Y0654949D01*
X0680000Y0633500D02*
Y0634000D01*
Y0633500D02*
X0680500Y0633000D01*
X0681764Y0646736D02*
X0682600Y0645900D01*
Y0624600D02*
Y0645900D01*
X0682500Y0624500D02*
X0682600Y0624600D01*
X0685000Y0620000D02*
Y0646500D01*
X0683732Y0647768D02*
X0685000Y0646500D01*
X0614000Y0684500D02*
X0617900Y0680600D01*
X0869000Y0583500D02*
Y0617500D01*
Y0620500D01*
X0870000Y0647500D02*
X0872500D01*
X0874402D01*
X0862000Y0614756D02*
X0866256D01*
X0869000Y0617500D01*
X0831000Y0613000D02*
X0840661Y0622661D01*
X0764500Y0625500D02*
X0771500D01*
X0774500Y0622500D01*
X0795781D01*
X0770500Y0623000D02*
X0773000Y0620500D01*
X0795000D01*
X0763000Y0623000D02*
X0770500D01*
X0754500Y0631500D02*
X0763000Y0623000D01*
X0764500Y0625000D02*
Y0625500D01*
X0795000Y0620500D02*
X0796500Y0619000D01*
X0795781Y0622500D02*
X0799140Y0619140D01*
X0754500Y0631500D02*
Y0637500D01*
X0756500Y0633000D02*
Y0638500D01*
X0751000Y0644000D02*
X0756500Y0638500D01*
X0751000Y0641000D02*
X0754500Y0637500D01*
X0802000Y0612500D02*
Y0615500D01*
X0799140Y0615502D02*
X0799140Y0619140D01*
X0563500Y0680500D02*
X0564000Y0681000D01*
X0585163Y0675400D02*
X0588263Y0678500D01*
X0616300D01*
X0616000Y0678800D02*
X0616300Y0678500D01*
X0618000Y0680500D02*
X0620000Y0678500D01*
X0616300D02*
X0616500D01*
X0603100Y0680600D02*
X0617900D01*
X0603000Y0680500D02*
X0603100Y0680600D01*
X0617900D02*
X0618000Y0680500D01*
X0695500Y0587437D02*
Y0587500D01*
X0694000Y0574811D02*
X0697600Y0578411D01*
Y0593837D01*
X0697512Y0593925D02*
X0697600Y0593837D01*
X0838500Y0548256D02*
Y0552500D01*
X0832500Y0548256D02*
Y0552500D01*
X0815744Y0653500D02*
X0816500Y0652744D01*
X0814500Y0646000D02*
X0816500Y0648000D01*
Y0652744D01*
X0637456Y0625300D02*
X0637500Y0625256D01*
X0640000Y0621000D02*
Y0625244D01*
X0640056Y0625300D01*
X0632000Y0625044D02*
X0632256Y0625300D01*
X0632256Y0566300D02*
X0632500Y0566544D01*
X0663255Y0612626D02*
X0667000D01*
X0629500Y0625144D02*
X0629656Y0625300D01*
X0629656Y0560844D02*
Y0566300D01*
X0629500Y0566456D02*
Y0568600D01*
X0653000Y0604634D02*
X0662961Y0614594D01*
X0667000D01*
X0663844Y0608689D02*
X0667000D01*
X0663549Y0610657D02*
X0667000D01*
X0640000Y0589000D02*
X0640500Y0588500D01*
X0861986Y0609001D02*
X0862000Y0609000D01*
X0588000Y0680500D02*
X0603000D01*
X0618000D02*
X0625000D01*
X0670000D02*
X0685000D01*
X0700000D01*
X0640000D02*
X0655000D01*
X0625000D02*
X0640000D01*
X0655000D02*
X0670000D01*
X0700000D02*
X0715500D01*
X0731000D01*
X0840661Y0651100D02*
Y0656000D01*
X0813000Y0635000D02*
X0827000D01*
X0832000Y0640000D01*
Y0640402D01*
X0717000Y0674000D02*
X0739000D01*
X0791500Y0640500D02*
X0800500D01*
X0799000Y0592500D02*
X0799140Y0592585D01*
X0732000Y0684500D02*
Y0706500D01*
X0716500Y0684500D02*
Y0706500D01*
X0701000Y0684500D02*
Y0706500D01*
X0686000Y0684500D02*
Y0706500D01*
X0671000Y0684500D02*
Y0706500D01*
X0656000Y0684500D02*
Y0706500D01*
X0641000Y0684500D02*
Y0706500D01*
Y0684500D02*
X0641205Y0684295D01*
X0626000Y0684500D02*
Y0706500D01*
X0611000Y0684500D02*
Y0706500D01*
X0596000Y0684500D02*
Y0706500D01*
X0581000Y0684500D02*
Y0706500D01*
X0566000Y0684500D02*
Y0706500D01*
X0569100Y0675400D02*
X0585163D01*
X0564000Y0680500D02*
X0569100Y0675400D01*
X0563744Y0680500D02*
X0564000D01*
X0563500Y0681256D02*
Y0687000D01*
X0559756Y0680500D02*
X0563500Y0681256D01*
X0559756Y0680500D02*
X0563500D01*
X0796500Y0615500D02*
X0796581Y0615502D01*
X0705386Y0654949D02*
X0705500Y0655000D01*
X0857744Y0609244D02*
X0862000D01*
X0863000Y0605256D02*
Y0609000D01*
X0865500Y0643000D02*
X0870000Y0647500D01*
X0841000Y0643000D02*
X0865500D01*
X0734685Y0600815D02*
X0734744Y0600811D01*
X0701449Y0588551D02*
X0703000Y0587000D01*
X0701449Y0588551D02*
Y0593925D01*
X0848339Y0651339D02*
X0851160Y0654160D01*
X0731000Y0680500D02*
X0735000Y0684500D01*
X0715500Y0680500D02*
X0719500Y0684500D01*
X0700000Y0680500D02*
X0704000Y0684500D01*
X0584000D02*
X0588000Y0680500D01*
X0685000D02*
X0689000Y0684500D01*
X0670000Y0680500D02*
X0674000Y0684500D01*
X0655000Y0680500D02*
X0659000Y0684500D01*
X0569256Y0679244D02*
Y0680500D01*
Y0679244D02*
X0571500Y0677000D01*
X0584500D01*
X0588000Y0680500D01*
X0640000D02*
X0644000Y0684500D01*
X0625000Y0680500D02*
X0629000Y0684500D01*
X0599000D02*
X0603000Y0680500D01*
X0843000Y0725500D02*
X0847500Y0730000D01*
X0843000Y0724000D02*
Y0725500D01*
X0861100Y0656100D02*
X0865500Y0660500D01*
X0847372Y0656100D02*
X0861100D01*
X0847272Y0656000D02*
X0847372Y0656100D01*
X0728024Y0610657D02*
X0738343D01*
X0728024Y0608689D02*
X0736311D01*
X0801000Y0631000D02*
X0801050Y0631050D01*
X0801000Y0626744D02*
Y0631000D01*
X0800756Y0626500D02*
X0801000Y0626744D01*
X0801050Y0649750D02*
Y0652550D01*
X0803500Y0655000D01*
Y0655500D01*
X0747500Y0711500D02*
X0749500Y0709500D01*
X0747500Y0711500D02*
Y0713500D01*
X0746000Y0686500D02*
Y0694500D01*
X0737100Y0677600D02*
X0746000Y0686500D01*
X0715837Y0677600D02*
X0737100D01*
X0709323Y0671086D02*
X0715837Y0677600D01*
X0709323Y0654949D02*
Y0671086D01*
X0562760Y0690760D02*
Y0692500D01*
X0734591Y0646091D02*
X0735000Y0646500D01*
X0728024Y0646091D02*
X0734591D01*
X0840661Y0656000D02*
X0840744D01*
X0836256D02*
X0840661D01*
X0614056Y0621056D02*
Y0625300D01*
X0619256Y0562744D02*
Y0566300D01*
Y0562744D02*
X0622000Y0560000D01*
Y0558000D02*
Y0560000D01*
X0619256Y0619744D02*
Y0625300D01*
X0813000Y0635000D02*
Y0635200D01*
X0699480Y0578331D02*
Y0593925D01*
Y0578331D02*
X0702000Y0575811D01*
Y0573311D02*
Y0575811D01*
X0706256Y0562811D02*
Y0564055D01*
X0703000Y0567311D02*
X0706256Y0564055D01*
X0690744Y0562811D02*
Y0564055D01*
X0694500Y0567811D01*
X0632256Y0589300D02*
Y0593744D01*
X0630000Y0596000D02*
X0632256Y0593744D01*
X0630000Y0596000D02*
Y0599244D01*
Y0654500D02*
Y0657500D01*
Y0654500D02*
X0632256Y0652244D01*
Y0648300D02*
Y0652244D01*
X0615000Y0599000D02*
X0616656Y0597344D01*
Y0589300D02*
Y0597344D01*
X0619256Y0589300D02*
Y0598744D01*
X0717197Y0654949D02*
Y0666197D01*
X0718000Y0667000D01*
X0616656Y0557844D02*
Y0566300D01*
Y0557844D02*
X0617000Y0557500D01*
Y0557256D02*
Y0557500D01*
X0616656Y0616844D02*
Y0625300D01*
Y0616844D02*
X0617000Y0616500D01*
Y0616256D02*
Y0616500D01*
X0745000Y0700000D02*
Y0703744D01*
Y0700000D02*
X0748400Y0696600D01*
Y0685663D02*
Y0696600D01*
X0738737Y0676000D02*
X0748400Y0685663D01*
X0716500Y0676000D02*
X0738737D01*
X0711291Y0670791D02*
X0716500Y0676000D01*
X0711291Y0654949D02*
Y0670791D01*
X0750000Y0685000D02*
Y0703744D01*
X0739000Y0674000D02*
X0750000Y0685000D01*
X0713260Y0670260D02*
X0717000Y0674000D01*
X0713260Y0654949D02*
Y0670260D01*
X0838000Y0648498D02*
X0838102Y0648600D01*
X0610000Y0597000D02*
X0614056Y0592944D01*
Y0589300D02*
Y0592944D01*
X0790344Y0639344D02*
X0791500Y0640500D01*
X0788998Y0639344D02*
X0790344D01*
X0681764Y0646736D02*
Y0654949D01*
X0683732Y0647768D02*
Y0654949D01*
X0757500Y0678343D02*
Y0678500D01*
X0756000Y0698000D02*
X0757000D01*
X0752000Y0694000D02*
X0756000Y0698000D01*
X0752000Y0678500D02*
Y0694000D01*
X0748500Y0675000D02*
X0752000Y0678500D01*
X0715228Y0652272D02*
Y0654949D01*
X0840661Y0622661D02*
Y0626400D01*
D19*
X0898500Y0727500D02*
D03*
Y0547500D02*
D03*
X0524000D02*
D03*
Y0727500D02*
D03*
D20*
X0607500Y0614744D02*
D03*
Y0620256D02*
D03*
X0852000D02*
D03*
Y0614744D02*
D03*
X0844500Y0548256D02*
D03*
Y0542744D02*
D03*
X0838500Y0548256D02*
D03*
Y0542744D02*
D03*
X0832500Y0542744D02*
D03*
Y0548256D02*
D03*
X0826500Y0548256D02*
D03*
Y0542744D02*
D03*
X0640000Y0663756D02*
D03*
Y0658244D02*
D03*
X0635000Y0663756D02*
D03*
Y0658244D02*
D03*
X0630000Y0663756D02*
D03*
Y0658244D02*
D03*
X0623000Y0663756D02*
D03*
Y0658244D02*
D03*
X0602000Y0648744D02*
D03*
Y0654256D02*
D03*
X0607000Y0648744D02*
D03*
Y0654256D02*
D03*
X0617000Y0610744D02*
D03*
Y0616256D02*
D03*
X0622000Y0610744D02*
D03*
Y0616256D02*
D03*
X0625000Y0604756D02*
D03*
Y0599244D02*
D03*
X0630000Y0604756D02*
D03*
Y0599244D02*
D03*
X0635000Y0605756D02*
D03*
Y0600244D02*
D03*
X0640000Y0605756D02*
D03*
Y0600244D02*
D03*
X0622000Y0551744D02*
D03*
Y0557256D02*
D03*
X0617000Y0551744D02*
D03*
Y0557256D02*
D03*
X0606000Y0577256D02*
D03*
Y0571744D02*
D03*
X0703500Y0581555D02*
D03*
Y0587067D02*
D03*
X0711500D02*
D03*
Y0581555D02*
D03*
X0857500Y0609244D02*
D03*
Y0614756D02*
D03*
X0863000Y0605256D02*
D03*
Y0599744D02*
D03*
Y0614756D02*
D03*
Y0609244D02*
D03*
X0788998Y0639344D02*
D03*
Y0644856D02*
D03*
Y0649344D02*
D03*
Y0654856D02*
D03*
X0587000Y0564756D02*
D03*
Y0559244D02*
D03*
X0857500Y0620244D02*
D03*
Y0625756D02*
D03*
X0716500Y0574012D02*
D03*
X0716500Y0568500D02*
D03*
X0863000Y0625756D02*
D03*
Y0620244D02*
D03*
X0743500Y0617244D02*
D03*
Y0622756D02*
D03*
Y0612756D02*
D03*
Y0607244D02*
D03*
X0735500Y0667744D02*
D03*
Y0673256D02*
D03*
X0750000Y0709256D02*
D03*
Y0703744D02*
D03*
X0745000Y0709256D02*
D03*
Y0703744D02*
D03*
X0559000Y0685756D02*
D03*
Y0680244D02*
D03*
X0810000Y0612244D02*
D03*
Y0617756D02*
D03*
X0798744Y0586244D02*
D03*
Y0591756D02*
D03*
X0762500Y0641256D02*
D03*
Y0635744D02*
D03*
Y0645244D02*
D03*
Y0650756D02*
D03*
X0660000Y0652567D02*
D03*
Y0647055D02*
D03*
D21*
X0612744Y0658500D02*
D03*
X0618256D02*
D03*
X0604744Y0604500D02*
D03*
X0610256D02*
D03*
X0604744Y0599500D02*
D03*
X0610256D02*
D03*
X0614744D02*
D03*
X0620256D02*
D03*
X0587256Y0601500D02*
D03*
X0581744Y0601500D02*
D03*
X0577256D02*
D03*
X0571744D02*
D03*
X0577256Y0606500D02*
D03*
X0571744Y0606500D02*
D03*
X0581744Y0606500D02*
D03*
X0587256D02*
D03*
X0571744Y0611500D02*
D03*
X0577256D02*
D03*
X0587256Y0611500D02*
D03*
X0581744Y0611500D02*
D03*
X0587256Y0596500D02*
D03*
X0581744D02*
D03*
X0577256Y0596500D02*
D03*
X0571744D02*
D03*
X0577256Y0591500D02*
D03*
X0571744Y0591500D02*
D03*
X0581744Y0591500D02*
D03*
X0587256Y0591500D02*
D03*
X0571744Y0586500D02*
D03*
X0577256D02*
D03*
X0587256Y0586500D02*
D03*
X0581744Y0586500D02*
D03*
X0846256Y0656000D02*
D03*
X0840744D02*
D03*
X0836256D02*
D03*
X0830744D02*
D03*
X0697744Y0549500D02*
D03*
X0703256Y0549500D02*
D03*
X0637744Y0595500D02*
D03*
X0643256D02*
D03*
X0637744Y0654000D02*
D03*
X0643256D02*
D03*
X0720244Y0662000D02*
D03*
X0725756D02*
D03*
X0740256Y0600811D02*
D03*
X0734744D02*
D03*
X0740256Y0595811D02*
D03*
X0734744D02*
D03*
X0682744Y0578311D02*
D03*
X0688256D02*
D03*
X0682744Y0573811D02*
D03*
X0688256D02*
D03*
Y0587311D02*
D03*
X0682744D02*
D03*
X0803744Y0656500D02*
D03*
X0809256D02*
D03*
X0794242Y0656600D02*
D03*
X0799754D02*
D03*
X0816244Y0653500D02*
D03*
X0821756D02*
D03*
X0800756Y0626000D02*
D03*
X0795244D02*
D03*
X0703256Y0543500D02*
D03*
X0697744Y0543500D02*
D03*
X0677984Y0555500D02*
D03*
X0672473D02*
D03*
X0834256Y0596500D02*
D03*
X0828744D02*
D03*
X0856756Y0589500D02*
D03*
X0851244D02*
D03*
X0682744Y0582811D02*
D03*
X0688256D02*
D03*
X0667256Y0592500D02*
D03*
X0661744D02*
D03*
X0690744Y0562811D02*
D03*
X0696256D02*
D03*
X0706256D02*
D03*
X0700744D02*
D03*
X0569256Y0680500D02*
D03*
X0563744D02*
D03*
D25*
X0780512Y0656000D02*
D03*
X0769488D02*
D03*
D26*
X0734559Y0698693D02*
D03*
X0737118Y0707000D02*
D03*
X0732000D02*
D03*
X0716500D02*
D03*
X0721618D02*
D03*
X0719059Y0698693D02*
D03*
X0703559D02*
D03*
X0706118Y0707000D02*
D03*
X0701000D02*
D03*
X0686000D02*
D03*
X0691118D02*
D03*
X0688559Y0698693D02*
D03*
X0673559D02*
D03*
X0676118Y0707000D02*
D03*
X0671000D02*
D03*
X0656000D02*
D03*
X0661118D02*
D03*
X0658559Y0698693D02*
D03*
X0643559D02*
D03*
X0646118Y0707000D02*
D03*
X0641000D02*
D03*
X0626000D02*
D03*
X0631118D02*
D03*
X0628559Y0698693D02*
D03*
X0613559D02*
D03*
X0616118Y0707000D02*
D03*
X0611000D02*
D03*
X0596000D02*
D03*
X0601118D02*
D03*
X0598559Y0698693D02*
D03*
X0583559D02*
D03*
X0586118Y0707000D02*
D03*
X0581000D02*
D03*
X0566000D02*
D03*
X0571118D02*
D03*
X0568559Y0698693D02*
D03*
D34*
X0748374Y0719000D02*
D03*
X0757626D02*
D03*
X0770374Y0630000D02*
D03*
X0779626D02*
D03*
D45*
X0640056Y0648300D02*
D03*
X0637456D02*
D03*
X0634856D02*
D03*
X0632256D02*
D03*
X0629656D02*
D03*
X0627056D02*
D03*
X0624456D02*
D03*
X0621856D02*
D03*
X0619256D02*
D03*
X0616656D02*
D03*
X0614056D02*
D03*
X0611456D02*
D03*
Y0625300D02*
D03*
X0614056D02*
D03*
X0616656D02*
D03*
X0619256D02*
D03*
X0621856D02*
D03*
X0624456D02*
D03*
X0627056D02*
D03*
X0629656D02*
D03*
X0632256D02*
D03*
X0634856D02*
D03*
X0637456D02*
D03*
X0640056D02*
D03*
Y0589300D02*
D03*
X0637456D02*
D03*
X0634856D02*
D03*
X0632256D02*
D03*
X0629656D02*
D03*
X0627056D02*
D03*
X0624456D02*
D03*
X0621856D02*
D03*
X0619256D02*
D03*
X0616656D02*
D03*
X0614056D02*
D03*
X0611456D02*
D03*
Y0566300D02*
D03*
X0614056D02*
D03*
X0616656D02*
D03*
X0619256D02*
D03*
X0621856D02*
D03*
X0624456D02*
D03*
X0627056D02*
D03*
X0629656D02*
D03*
X0632256D02*
D03*
X0634856D02*
D03*
X0637456D02*
D03*
X0640056D02*
D03*
D98*
X0682085Y0546500D02*
D03*
D101*
X0798468Y0637500D02*
D03*
X0794531D02*
D03*
D104*
X0571500Y0606500D02*
X0571744Y0606256D01*
X0567244Y0603500D02*
X0571744Y0599000D01*
X0540500Y0603500D02*
X0567244D01*
X0537500D02*
X0540500D01*
X0553500Y0638000D02*
X0564000D01*
X0541500Y0650000D02*
X0553500Y0638000D01*
X0541500Y0650000D02*
Y0669000D01*
X0542000Y0669500D01*
X0571744Y0596500D02*
Y0599000D01*
Y0601500D01*
X0766000Y0673500D02*
Y0713000D01*
X0755000Y0719000D02*
X0757500D01*
X0757626D01*
X0760000D02*
X0766000Y0713000D01*
X0711500Y0587067D02*
X0712433D01*
X0703500D02*
X0711500D01*
X0571744Y0601500D02*
Y0606256D01*
Y0601500D02*
X0571744D01*
X0712433Y0587067D02*
X0712500Y0587000D01*
X0571744Y0591500D02*
Y0596500D01*
X0575500Y0679500D02*
X0577760Y0681760D01*
X0757626Y0719000D02*
X0760000D01*
X0578500Y0690500D02*
Y0714382D01*
X0734500Y0698500D02*
Y0698744D01*
X0719000Y0698500D02*
Y0698744D01*
X0703500Y0698500D02*
Y0698744D01*
X0688500Y0698500D02*
Y0698744D01*
X0673500Y0698500D02*
Y0698744D01*
X0658500Y0698500D02*
Y0698744D01*
X0643500Y0698500D02*
Y0698744D01*
X0628500Y0698500D02*
Y0698744D01*
X0613500Y0698500D02*
Y0698744D01*
X0598500Y0698500D02*
Y0698744D01*
X0583500Y0698500D02*
Y0698744D01*
X0568500Y0698500D02*
Y0698744D01*
X0729500Y0690500D02*
Y0699500D01*
X0721809Y0707191D02*
X0729500Y0699500D01*
X0699500Y0713500D02*
X0706059Y0706941D01*
X0714000Y0690500D02*
Y0699000D01*
X0706059Y0706941D02*
X0714000Y0699000D01*
X0698500Y0690500D02*
Y0702843D01*
X0678843Y0722500D02*
X0698500Y0702843D01*
X0683500Y0692500D02*
Y0708000D01*
Y0690500D02*
Y0692500D01*
X0661000Y0705000D02*
Y0707000D01*
X0659078Y0722421D02*
X0659078Y0722421D01*
X0661118Y0720382D01*
X0659000Y0722500D02*
X0659078Y0722421D01*
X0668500Y0690500D02*
Y0697500D01*
X0653500Y0690500D02*
Y0713000D01*
X0638500Y0690500D02*
Y0714382D01*
Y0721000D01*
X0623500Y0690500D02*
Y0716500D01*
X0616118Y0709118D02*
X0623500Y0716500D01*
X0629500Y0722500D01*
X0608500Y0690500D02*
Y0713382D01*
X0609618Y0714500D01*
X0593500Y0690500D02*
Y0710500D01*
X0592000Y0713000D02*
X0596000D01*
X0601500D02*
X0610472Y0721972D01*
X0610500Y0722000D01*
X0571118Y0707000D02*
X0578500Y0714382D01*
X0580118Y0716000D01*
X0850514Y0622242D02*
X0850898Y0622626D01*
X0854000Y0626150D02*
X0857500D01*
X0559000Y0687000D02*
X0562760Y0690760D01*
X0563500Y0691500D01*
Y0710500D01*
X0736240Y0692500D02*
Y0696760D01*
X0734500Y0698500D02*
X0736240Y0696760D01*
X0734500Y0698744D02*
X0734559Y0698693D01*
X0720740Y0692500D02*
Y0696760D01*
X0719000Y0698500D02*
X0720740Y0696760D01*
X0719000Y0698744D02*
X0719059Y0698693D01*
X0705240Y0692500D02*
Y0696760D01*
X0703500Y0698500D02*
X0705240Y0696760D01*
X0703500Y0698744D02*
X0703559Y0698693D01*
X0690240Y0692500D02*
Y0696760D01*
X0688500Y0698500D02*
X0690240Y0696760D01*
X0688500Y0698744D02*
X0688559Y0698693D01*
X0675240Y0692500D02*
Y0696760D01*
X0673500Y0698500D02*
X0675240Y0696760D01*
X0673500Y0698744D02*
X0673559Y0698693D01*
X0660240Y0692500D02*
Y0696760D01*
X0658500Y0698500D02*
X0660240Y0696760D01*
X0658500Y0698744D02*
X0658559Y0698693D01*
X0645240Y0692500D02*
Y0696760D01*
X0643500Y0698500D02*
X0645240Y0696760D01*
X0643500Y0698744D02*
X0643559Y0698693D01*
X0630240Y0692500D02*
Y0696760D01*
X0628500Y0698500D02*
X0630240Y0696760D01*
X0628500Y0698744D02*
X0628559Y0698693D01*
X0615240Y0692500D02*
Y0696760D01*
X0613500Y0698500D02*
X0615240Y0696760D01*
X0613500Y0698744D02*
X0613559Y0698693D01*
X0600240Y0692500D02*
Y0696760D01*
X0598500Y0698500D02*
X0600240Y0696760D01*
X0598500Y0698744D02*
X0598559Y0698693D01*
X0585240Y0692500D02*
Y0696760D01*
X0583500Y0698500D02*
X0585240Y0696760D01*
X0583500Y0698744D02*
X0583559Y0698693D01*
X0570240Y0692500D02*
Y0696760D01*
X0568500Y0698500D02*
X0570240Y0696760D01*
X0568500Y0698744D02*
X0568559Y0698693D01*
X0708500Y0722000D02*
X0722500D01*
X0736500Y0708000D01*
X0718000Y0711000D02*
X0721809Y0707191D01*
X0710000Y0711000D02*
X0718000D01*
X0698528Y0722472D02*
X0710000Y0711000D01*
X0698528Y0722472D02*
Y0722500D01*
X0689000Y0721500D02*
Y0722000D01*
Y0721500D02*
X0697000Y0713500D01*
X0699500D01*
X0706059Y0706941D02*
X0706118Y0707000D01*
X0691118D02*
Y0709882D01*
X0676118Y0707000D02*
Y0715382D01*
X0683500Y0708000D01*
X0669000Y0722500D02*
X0676118Y0715382D01*
X0661118Y0707000D02*
Y0720382D01*
X0661000Y0705000D02*
X0668500Y0697500D01*
Y0697850D01*
X0649500Y0722500D02*
X0653500Y0718500D01*
Y0713000D02*
Y0718500D01*
X0647118Y0707000D02*
X0653118Y0713000D01*
X0653500D01*
X0631118Y0707000D02*
X0638500Y0714382D01*
Y0721000D02*
X0639000Y0721500D01*
X0616118Y0707000D02*
Y0709118D01*
X0612500Y0714500D02*
X0619500Y0721500D01*
X0609618Y0714500D02*
X0612500D01*
X0602118Y0707000D02*
X0608500Y0713382D01*
Y0713500D01*
X0586559Y0707559D02*
X0592000Y0713000D01*
X0593500Y0710500D02*
X0596000Y0713000D01*
X0601500D01*
X0577760Y0681760D02*
Y0692500D01*
X0593602Y0716000D02*
X0600102Y0722500D01*
X0580118Y0716000D02*
X0593602D01*
X0850898Y0622626D02*
Y0626400D01*
X0857500Y0625756D02*
Y0626150D01*
X0575500Y0722500D02*
X0590260D01*
X0563500Y0710500D02*
X0575500Y0722500D01*
X0559000Y0685756D02*
Y0687000D01*
D108*
X0674874Y0565000D02*
D03*
X0667000D02*
D03*
X0753874Y0545500D02*
D03*
X0738126D02*
D03*
X0746000D02*
D03*
X0795685Y0569000D02*
D03*
X0787811D02*
D03*
X0779937D02*
D03*
X0772037D02*
D03*
X0764137D02*
D03*
X0756263D02*
D03*
X0770752Y0545500D02*
D03*
X0778626D02*
D03*
X0786500D02*
D03*
X0794400D02*
D03*
X0802300D02*
D03*
X0573248Y0650000D02*
D03*
X0565374D02*
D03*
X0557500D02*
D03*
X0549600D02*
D03*
X0541700D02*
D03*
X0573248Y0669500D02*
D03*
X0565374D02*
D03*
X0557500D02*
D03*
X0549600D02*
D03*
X0541700D02*
D03*
X0550626Y0550000D02*
D03*
X0566374D02*
D03*
X0558500D02*
D03*
X0812563Y0569000D02*
D03*
X0820437D02*
D03*
X0545500Y0687126D02*
D03*
Y0695000D02*
D03*
D109*
X0558000Y0722000D02*
D03*
X0548000D02*
D03*
X0558000Y0732000D02*
D03*
X0630000Y0544500D02*
D03*
X0640000D02*
D03*
X0650000D02*
D03*
D110*
X0548000Y0732000D02*
D03*
D111*
X0660000Y0544500D02*
D03*
D112*
X0561000Y0626000D02*
D03*
Y0611000D02*
D03*
Y0596000D02*
D03*
Y0581000D02*
D03*
D113*
X0757500Y0707606D02*
D03*
Y0697764D02*
D03*
Y0687921D02*
D03*
Y0678079D02*
D03*
Y0668236D02*
D03*
Y0658394D02*
D03*
D114*
X0590260Y0722500D02*
D03*
X0600102D02*
D03*
X0609945D02*
D03*
X0619787D02*
D03*
X0629630D02*
D03*
X0639472D02*
D03*
X0649315D02*
D03*
X0659157D02*
D03*
X0669000D02*
D03*
X0678843D02*
D03*
X0688685D02*
D03*
X0698528D02*
D03*
X0708370D02*
D03*
D115*
X0655000Y0553000D02*
D03*
X0661500Y0576500D02*
D03*
X0656000Y0572500D02*
D03*
X0760500Y0578000D02*
D03*
X0856500Y0563000D02*
D03*
X0854000D02*
D03*
Y0545500D02*
D03*
X0856500D02*
D03*
X0851500Y0548000D02*
D03*
X0851500Y0550500D02*
D03*
Y0558000D02*
D03*
X0851500Y0555500D02*
D03*
Y0553000D02*
D03*
X0854000Y0548000D02*
D03*
Y0550500D02*
D03*
Y0558000D02*
D03*
Y0555500D02*
D03*
Y0553000D02*
D03*
X0856500Y0548000D02*
D03*
Y0550500D02*
D03*
Y0558000D02*
D03*
Y0555500D02*
D03*
Y0553000D02*
D03*
X0851500Y0560500D02*
D03*
X0854000D02*
D03*
X0856500D02*
D03*
X0722500Y0609500D02*
D03*
Y0612500D02*
D03*
X0735000Y0633000D02*
D03*
X0740500Y0630500D02*
D03*
X0738000Y0628000D02*
D03*
X0735500Y0625500D02*
D03*
X0707500Y0552000D02*
D03*
X0710000Y0549500D02*
D03*
X0707500Y0547000D02*
D03*
X0540500Y0603500D02*
D03*
X0537500D02*
D03*
X0564000Y0638000D02*
D03*
X0585000Y0667500D02*
D03*
X0863500Y0678500D02*
D03*
Y0681000D02*
D03*
X0866000Y0686000D02*
D03*
Y0683500D02*
D03*
X0868500Y0691000D02*
D03*
Y0688500D02*
D03*
X0866000Y0681000D02*
D03*
Y0678500D02*
D03*
Y0676000D02*
D03*
X0870000Y0665000D02*
D03*
X0840000Y0688500D02*
D03*
X0870013Y0667987D02*
D03*
X0760000Y0638000D02*
D03*
Y0635000D02*
D03*
X0766000Y0629000D02*
D03*
X0769000D02*
D03*
X0772000D02*
D03*
Y0632000D02*
D03*
X0626500Y0595000D02*
D03*
X0608000Y0634500D02*
D03*
X0644500Y0596000D02*
D03*
X0608000Y0624000D02*
D03*
X0603500D02*
D03*
X0598000Y0650500D02*
D03*
X0754000Y0608500D02*
D03*
X0712500Y0624500D02*
D03*
X0760000Y0608500D02*
D03*
X0716500Y0628500D02*
D03*
X0757000Y0608500D02*
D03*
X0714500Y0626500D02*
D03*
X0813000Y0678500D02*
D03*
X0818000Y0683500D02*
D03*
Y0681000D02*
D03*
Y0678500D02*
D03*
X0846000Y0722000D02*
D03*
Y0719500D02*
D03*
Y0717000D02*
D03*
X0848500Y0714500D02*
D03*
X0851000Y0712000D02*
D03*
X0848500Y0717000D02*
D03*
Y0719500D02*
D03*
X0873500Y0734500D02*
D03*
Y0732000D02*
D03*
Y0729500D02*
D03*
X0561500Y0638000D02*
D03*
X0838000Y0633500D02*
D03*
X0794500Y0590500D02*
D03*
X0657000Y0642000D02*
D03*
X0795500Y0699000D02*
D03*
X0793000D02*
D03*
X0795500Y0701500D02*
D03*
X0793000D02*
D03*
Y0704000D02*
D03*
X0795500D02*
D03*
Y0706500D02*
D03*
X0793000D02*
D03*
X0832500Y0660500D02*
D03*
Y0663000D02*
D03*
Y0665500D02*
D03*
X0772000Y0699000D02*
D03*
X0748000Y0608500D02*
D03*
X0740000Y0609000D02*
D03*
X0738000Y0607000D02*
D03*
X0751000Y0608500D02*
D03*
X0810000Y0607000D02*
D03*
X0755000Y0591000D02*
D03*
X0719000Y0579500D02*
D03*
X0689500Y0648500D02*
D03*
X0694000D02*
D03*
X0763000Y0732000D02*
D03*
X0765500D02*
D03*
Y0729500D02*
D03*
X0763000Y0727000D02*
D03*
X0765500D02*
D03*
X0763000Y0729500D02*
D03*
X0760500Y0732000D02*
D03*
Y0727000D02*
D03*
Y0729500D02*
D03*
X0789500Y0670000D02*
D03*
X0777000Y0671500D02*
D03*
X0779500Y0674000D02*
D03*
X0782000Y0676500D02*
D03*
X0784500Y0679000D02*
D03*
X0787000Y0681500D02*
D03*
X0789500Y0684000D02*
D03*
X0876000Y0666000D02*
D03*
X0868500Y0673500D02*
D03*
X0876000Y0668500D02*
D03*
X0878500Y0666000D02*
D03*
Y0668500D02*
D03*
X0876000Y0671000D02*
D03*
X0873500D02*
D03*
X0871000Y0673500D02*
D03*
X0868500Y0676000D02*
D03*
X0873000Y0668000D02*
D03*
X0868500Y0686000D02*
D03*
X0871000Y0691000D02*
D03*
X0873500Y0693500D02*
D03*
Y0696000D02*
D03*
Y0698500D02*
D03*
Y0701000D02*
D03*
Y0703500D02*
D03*
Y0706000D02*
D03*
X0813000Y0714000D02*
D03*
Y0711500D02*
D03*
Y0734000D02*
D03*
Y0731500D02*
D03*
Y0729000D02*
D03*
Y0726500D02*
D03*
Y0724000D02*
D03*
Y0721500D02*
D03*
Y0719000D02*
D03*
Y0716500D02*
D03*
X0838000Y0724000D02*
D03*
X0815500Y0711500D02*
D03*
Y0714000D02*
D03*
Y0716500D02*
D03*
Y0724000D02*
D03*
Y0726500D02*
D03*
Y0729000D02*
D03*
Y0719000D02*
D03*
Y0721500D02*
D03*
Y0731500D02*
D03*
Y0734000D02*
D03*
X0878500Y0671000D02*
D03*
X0868500Y0678500D02*
D03*
Y0681000D02*
D03*
Y0683500D02*
D03*
X0815500Y0681000D02*
D03*
Y0678500D02*
D03*
Y0676000D02*
D03*
X0810500D02*
D03*
X0813000D02*
D03*
Y0673500D02*
D03*
X0808000D02*
D03*
X0810500D02*
D03*
Y0671000D02*
D03*
X0808000D02*
D03*
Y0668500D02*
D03*
X0805500Y0671000D02*
D03*
X0803000Y0668500D02*
D03*
X0805500D02*
D03*
X0800500Y0666000D02*
D03*
X0803000D02*
D03*
X0805500D02*
D03*
X0881000Y0671000D02*
D03*
X0883500D02*
D03*
X0886000D02*
D03*
X0881000Y0668500D02*
D03*
X0883500D02*
D03*
X0886000D02*
D03*
Y0666000D02*
D03*
X0883500D02*
D03*
X0881000D02*
D03*
X0752500Y0623000D02*
D03*
X0709000Y0644000D02*
D03*
X0705500D02*
D03*
X0728500Y0598500D02*
D03*
X0671500Y0640500D02*
D03*
X0678000Y0609000D02*
D03*
Y0612000D02*
D03*
X0707500Y0605000D02*
D03*
X0701500Y0602500D02*
D03*
X0872500Y0650000D02*
D03*
X0586000Y0564500D02*
D03*
X0772000Y0671500D02*
D03*
Y0674000D02*
D03*
Y0676500D02*
D03*
X0774500Y0671500D02*
D03*
X0789500Y0686500D02*
D03*
Y0689000D02*
D03*
Y0691500D02*
D03*
Y0704000D02*
D03*
Y0701500D02*
D03*
Y0699000D02*
D03*
Y0696500D02*
D03*
Y0694000D02*
D03*
Y0706500D02*
D03*
X0784500Y0681500D02*
D03*
X0782000D02*
D03*
Y0679000D02*
D03*
X0777000Y0674000D02*
D03*
X0779500Y0676500D02*
D03*
X0777000D02*
D03*
X0779500Y0679000D02*
D03*
X0777000D02*
D03*
X0779500Y0681500D02*
D03*
X0777000D02*
D03*
X0774500Y0674000D02*
D03*
Y0676500D02*
D03*
Y0679000D02*
D03*
X0772000D02*
D03*
X0774500Y0681500D02*
D03*
X0772000D02*
D03*
X0787000Y0706500D02*
D03*
X0784500D02*
D03*
X0782000D02*
D03*
X0779500D02*
D03*
X0772000Y0704000D02*
D03*
X0774500Y0699000D02*
D03*
Y0701500D02*
D03*
X0772000D02*
D03*
X0774500Y0704000D02*
D03*
Y0706500D02*
D03*
X0772000D02*
D03*
Y0696500D02*
D03*
X0774500D02*
D03*
X0772000Y0694000D02*
D03*
X0774500D02*
D03*
X0772000Y0691500D02*
D03*
X0774500D02*
D03*
X0772000Y0689000D02*
D03*
X0774500D02*
D03*
X0772000Y0686500D02*
D03*
X0774500D02*
D03*
X0772000Y0684000D02*
D03*
X0774500D02*
D03*
X0777000Y0706500D02*
D03*
Y0694000D02*
D03*
X0779500D02*
D03*
X0782000D02*
D03*
X0784500D02*
D03*
X0787000D02*
D03*
Y0696500D02*
D03*
X0784500D02*
D03*
X0782000D02*
D03*
X0779500D02*
D03*
X0777000D02*
D03*
X0787000Y0699000D02*
D03*
X0784500D02*
D03*
X0782000D02*
D03*
X0779500D02*
D03*
X0777000D02*
D03*
X0787000Y0701500D02*
D03*
X0784500D02*
D03*
X0782000D02*
D03*
X0779500D02*
D03*
X0777000D02*
D03*
X0787000Y0704000D02*
D03*
X0784500D02*
D03*
X0782000D02*
D03*
X0779500D02*
D03*
X0777000D02*
D03*
Y0691500D02*
D03*
X0779500D02*
D03*
X0782000D02*
D03*
X0784500D02*
D03*
X0787000D02*
D03*
X0777000Y0689000D02*
D03*
X0779500D02*
D03*
X0782000D02*
D03*
X0784500D02*
D03*
X0787000D02*
D03*
X0777000Y0686500D02*
D03*
X0779500D02*
D03*
X0782000D02*
D03*
X0784500D02*
D03*
X0787000D02*
D03*
Y0684000D02*
D03*
X0784500D02*
D03*
X0782000D02*
D03*
X0779500D02*
D03*
X0777000D02*
D03*
X0871000Y0676000D02*
D03*
Y0678500D02*
D03*
Y0681000D02*
D03*
Y0683500D02*
D03*
Y0686000D02*
D03*
Y0688500D02*
D03*
X0873500Y0673500D02*
D03*
Y0676000D02*
D03*
Y0678500D02*
D03*
Y0681000D02*
D03*
X0876000Y0673500D02*
D03*
X0878500D02*
D03*
X0881000D02*
D03*
X0883500D02*
D03*
X0886000D02*
D03*
Y0676000D02*
D03*
X0883500D02*
D03*
X0881000D02*
D03*
X0878500D02*
D03*
X0876000D02*
D03*
X0886000Y0678500D02*
D03*
X0883500D02*
D03*
X0881000D02*
D03*
X0878500D02*
D03*
X0876000D02*
D03*
X0886000Y0681000D02*
D03*
X0883500D02*
D03*
X0881000D02*
D03*
X0878500D02*
D03*
X0876000D02*
D03*
Y0706000D02*
D03*
X0878500D02*
D03*
X0881000D02*
D03*
X0883500D02*
D03*
X0886000D02*
D03*
X0876000Y0703500D02*
D03*
X0878500D02*
D03*
X0881000D02*
D03*
X0883500D02*
D03*
X0886000D02*
D03*
X0876000Y0701000D02*
D03*
X0878500D02*
D03*
X0881000D02*
D03*
X0883500D02*
D03*
X0886000D02*
D03*
X0876000Y0698500D02*
D03*
X0878500D02*
D03*
X0881000D02*
D03*
X0883500D02*
D03*
X0886000D02*
D03*
X0876000Y0696000D02*
D03*
X0878500D02*
D03*
X0881000D02*
D03*
X0883500D02*
D03*
X0886000D02*
D03*
X0876000Y0693500D02*
D03*
X0878500D02*
D03*
X0881000D02*
D03*
X0883500D02*
D03*
X0886000D02*
D03*
X0873500Y0691000D02*
D03*
X0876000D02*
D03*
X0878500D02*
D03*
X0881000D02*
D03*
X0883500D02*
D03*
X0886000D02*
D03*
X0873500Y0688500D02*
D03*
X0876000D02*
D03*
X0878500D02*
D03*
X0881000D02*
D03*
X0883500D02*
D03*
X0886000D02*
D03*
X0873500Y0686000D02*
D03*
X0876000D02*
D03*
X0878500D02*
D03*
X0881000D02*
D03*
X0883500D02*
D03*
X0886000D02*
D03*
Y0683500D02*
D03*
X0883500D02*
D03*
X0881000D02*
D03*
X0878500D02*
D03*
X0876000D02*
D03*
X0873500D02*
D03*
X0603500Y0645000D02*
D03*
Y0642500D02*
D03*
Y0640000D02*
D03*
X0629500Y0593500D02*
D03*
X0635000Y0643500D02*
D03*
Y0571500D02*
D03*
X0682500Y0663000D02*
D03*
X0685000Y0660500D02*
D03*
X0757500Y0719000D02*
D03*
X0686500Y0599500D02*
D03*
X0735000Y0604500D02*
D03*
X0679500Y0579000D02*
D03*
Y0574000D02*
D03*
X0643000Y0566500D02*
D03*
X0826500Y0542000D02*
D03*
X0832500D02*
D03*
X0838500D02*
D03*
X0844500D02*
D03*
X0837000Y0577000D02*
D03*
X0847500Y0589500D02*
D03*
X0836000Y0593500D02*
D03*
X0833000D02*
D03*
X0662500Y0586500D02*
D03*
X0665000Y0584000D02*
D03*
X0667500Y0581500D02*
D03*
X0636000D02*
D03*
X0634500Y0584000D02*
D03*
X0671500Y0659500D02*
D03*
X0668500Y0592500D02*
D03*
X0661000D02*
D03*
X0623000Y0572500D02*
D03*
X0625000Y0557000D02*
D03*
X0607500Y0611500D02*
D03*
X0623000Y0579000D02*
D03*
Y0575500D02*
D03*
X0644500Y0591500D02*
D03*
X0651000Y0563000D02*
D03*
X0646000Y0572500D02*
D03*
X0651000D02*
D03*
X0646000Y0563000D02*
D03*
X0634500Y0595000D02*
D03*
X0825500Y0642500D02*
D03*
X0823000D02*
D03*
X0820500D02*
D03*
Y0645000D02*
D03*
X0823000D02*
D03*
X0825500D02*
D03*
X0820500Y0647500D02*
D03*
X0823000D02*
D03*
X0825500D02*
D03*
X0820500Y0650000D02*
D03*
X0823000D02*
D03*
X0825500D02*
D03*
X0820500Y0652500D02*
D03*
X0823000D02*
D03*
X0825500D02*
D03*
X0769000Y0641000D02*
D03*
X0766000Y0632000D02*
D03*
X0763000D02*
D03*
X0769000D02*
D03*
X0766000Y0635000D02*
D03*
X0763000D02*
D03*
X0769000D02*
D03*
Y0638000D02*
D03*
X0763000D02*
D03*
X0789500Y0602000D02*
D03*
X0568500Y0698500D02*
D03*
X0583500D02*
D03*
X0598500D02*
D03*
X0613500D02*
D03*
X0628500D02*
D03*
X0643500D02*
D03*
X0658500D02*
D03*
X0673500D02*
D03*
X0688500D02*
D03*
X0703500D02*
D03*
X0719000D02*
D03*
X0734500D02*
D03*
X0745000Y0709500D02*
D03*
X0826500Y0610500D02*
D03*
X0824000Y0613000D02*
D03*
X0821500Y0615500D02*
D03*
X0819000Y0618000D02*
D03*
X0836500Y0609500D02*
D03*
X0718000Y0560000D02*
D03*
X0714000D02*
D03*
Y0564000D02*
D03*
X0718000D02*
D03*
X0716000Y0562000D02*
D03*
X0821000Y0560500D02*
D03*
X0791000Y0599000D02*
D03*
X0728000Y0579500D02*
D03*
X0712500Y0587000D02*
D03*
X0698000Y0605500D02*
D03*
X0693000D02*
D03*
X0617000Y0611000D02*
D03*
X0598000Y0655500D02*
D03*
X0610000Y0605000D02*
D03*
X0608000Y0640000D02*
D03*
X0618500Y0635500D02*
D03*
X0616500Y0637500D02*
D03*
X0637500Y0595000D02*
D03*
X0641500Y0551500D02*
D03*
X0646500Y0553500D02*
D03*
X0676000Y0637500D02*
D03*
X0680500Y0633000D02*
D03*
X0679000Y0629000D02*
D03*
X0685000Y0620000D02*
D03*
X0746000Y0671500D02*
D03*
X0809000Y0657000D02*
D03*
Y0638000D02*
D03*
Y0635500D02*
D03*
X0770500Y0623000D02*
D03*
X0764500Y0625500D02*
D03*
X0751000Y0644000D02*
D03*
Y0641000D02*
D03*
X0651000Y0629000D02*
D03*
X0620000Y0678500D02*
D03*
X0616500D02*
D03*
X0575500Y0679500D02*
D03*
X0563500Y0698000D02*
D03*
Y0687500D02*
D03*
X0729500Y0698000D02*
D03*
X0714000D02*
D03*
X0698500D02*
D03*
X0683500D02*
D03*
X0668500D02*
D03*
X0653500D02*
D03*
X0638500D02*
D03*
X0623500D02*
D03*
X0608500D02*
D03*
X0593500D02*
D03*
X0578500D02*
D03*
X0695500Y0587500D02*
D03*
X0881000Y0729500D02*
D03*
X0883500D02*
D03*
X0886000D02*
D03*
X0878500D02*
D03*
X0876000D02*
D03*
X0881000Y0732000D02*
D03*
X0883500D02*
D03*
X0886000D02*
D03*
X0878500D02*
D03*
X0876000D02*
D03*
X0881000Y0734500D02*
D03*
X0883500D02*
D03*
X0886000D02*
D03*
X0878500D02*
D03*
X0876000D02*
D03*
X0873500Y0727000D02*
D03*
X0876000D02*
D03*
X0878500D02*
D03*
X0886000D02*
D03*
X0883500D02*
D03*
X0881000D02*
D03*
X0873500Y0724500D02*
D03*
X0876000D02*
D03*
X0878500D02*
D03*
X0886000D02*
D03*
X0883500D02*
D03*
X0881000D02*
D03*
X0873500Y0722000D02*
D03*
X0876000D02*
D03*
X0878500D02*
D03*
X0886000D02*
D03*
X0883500D02*
D03*
X0881000D02*
D03*
X0873500Y0719500D02*
D03*
X0876000D02*
D03*
X0878500D02*
D03*
X0886000D02*
D03*
X0883500D02*
D03*
X0881000D02*
D03*
X0873500Y0717000D02*
D03*
X0876000D02*
D03*
X0878500D02*
D03*
X0886000D02*
D03*
X0883500D02*
D03*
X0881000D02*
D03*
X0873500Y0714500D02*
D03*
X0876000D02*
D03*
X0878500D02*
D03*
X0886000D02*
D03*
X0883500D02*
D03*
X0881000D02*
D03*
Y0712000D02*
D03*
X0883500D02*
D03*
X0886000D02*
D03*
X0878500D02*
D03*
X0876000D02*
D03*
X0873500D02*
D03*
X0853500D02*
D03*
X0856000D02*
D03*
X0858500D02*
D03*
X0871000D02*
D03*
X0868500D02*
D03*
X0866000D02*
D03*
X0863500D02*
D03*
X0861000D02*
D03*
Y0714500D02*
D03*
X0863500D02*
D03*
X0866000D02*
D03*
X0868500D02*
D03*
X0871000D02*
D03*
X0858500D02*
D03*
X0856000D02*
D03*
X0853500D02*
D03*
X0851000D02*
D03*
X0861000Y0717000D02*
D03*
X0863500D02*
D03*
X0866000D02*
D03*
X0868500D02*
D03*
X0871000D02*
D03*
X0858500D02*
D03*
X0856000D02*
D03*
X0853500D02*
D03*
X0851000D02*
D03*
X0861000Y0719500D02*
D03*
X0863500D02*
D03*
X0866000D02*
D03*
X0868500D02*
D03*
X0871000D02*
D03*
X0858500D02*
D03*
X0856000D02*
D03*
X0853500D02*
D03*
X0851000D02*
D03*
X0861000Y0722000D02*
D03*
X0863500D02*
D03*
X0866000D02*
D03*
X0868500D02*
D03*
X0871000D02*
D03*
X0858500D02*
D03*
X0856000D02*
D03*
X0853500D02*
D03*
X0851000D02*
D03*
X0848500D02*
D03*
X0861000Y0724500D02*
D03*
X0863500D02*
D03*
X0866000D02*
D03*
X0868500D02*
D03*
X0871000D02*
D03*
X0858500D02*
D03*
X0856000D02*
D03*
X0853500D02*
D03*
X0851000D02*
D03*
X0848500D02*
D03*
X0875000Y0645000D02*
D03*
X0872500D02*
D03*
Y0647500D02*
D03*
X0875000D02*
D03*
Y0650000D02*
D03*
X0838500Y0552500D02*
D03*
X0727000Y0657000D02*
D03*
X0724000D02*
D03*
X0743000Y0671500D02*
D03*
X0746000Y0674500D02*
D03*
X0743000D02*
D03*
X0790500Y0661000D02*
D03*
Y0658500D02*
D03*
Y0656000D02*
D03*
Y0653500D02*
D03*
X0793000Y0661000D02*
D03*
Y0658500D02*
D03*
X0795500D02*
D03*
X0793000Y0656000D02*
D03*
X0795500D02*
D03*
X0793000Y0653500D02*
D03*
X0795500D02*
D03*
X0793000Y0651000D02*
D03*
Y0648500D02*
D03*
X0795500Y0651000D02*
D03*
X0798000D02*
D03*
X0795500Y0648500D02*
D03*
X0798000D02*
D03*
X0755000Y0719000D02*
D03*
X0832500Y0552500D02*
D03*
X0863500Y0630500D02*
D03*
X0813500Y0650500D02*
D03*
X0815000Y0657000D02*
D03*
X0812500D02*
D03*
X0809000Y0648500D02*
D03*
X0810500Y0650500D02*
D03*
X0809000Y0652500D02*
D03*
X0812000D02*
D03*
X0806500Y0627500D02*
D03*
X0809000D02*
D03*
X0811500D02*
D03*
Y0630000D02*
D03*
X0809000D02*
D03*
X0806500D02*
D03*
X0811500Y0632500D02*
D03*
X0809000D02*
D03*
X0806500D02*
D03*
X0812000Y0648500D02*
D03*
X0843000Y0724000D02*
D03*
X0773000Y0721500D02*
D03*
X0775500D02*
D03*
X0778000D02*
D03*
Y0724000D02*
D03*
X0775500D02*
D03*
X0773000D02*
D03*
X0778000Y0726500D02*
D03*
X0775500D02*
D03*
X0773000D02*
D03*
X0833000Y0701500D02*
D03*
X0830500D02*
D03*
Y0704000D02*
D03*
X0833000D02*
D03*
X0830500Y0706500D02*
D03*
X0833000D02*
D03*
X0830500Y0709000D02*
D03*
X0833000D02*
D03*
X0838000Y0701500D02*
D03*
X0835500D02*
D03*
Y0704000D02*
D03*
X0838000D02*
D03*
X0835500Y0706500D02*
D03*
X0838000D02*
D03*
X0835500Y0709000D02*
D03*
X0838000D02*
D03*
X0818000Y0711500D02*
D03*
X0820500D02*
D03*
X0823000D02*
D03*
X0825500D02*
D03*
X0838000D02*
D03*
X0835500D02*
D03*
X0833000D02*
D03*
X0830500D02*
D03*
X0828000D02*
D03*
Y0714000D02*
D03*
X0830500D02*
D03*
X0833000D02*
D03*
X0835500D02*
D03*
X0838000D02*
D03*
X0825500D02*
D03*
X0823000D02*
D03*
X0820500D02*
D03*
X0818000D02*
D03*
X0828000Y0716500D02*
D03*
X0830500D02*
D03*
X0833000D02*
D03*
X0835500D02*
D03*
X0838000D02*
D03*
X0825500D02*
D03*
X0823000D02*
D03*
X0820500D02*
D03*
X0818000D02*
D03*
X0828000Y0719000D02*
D03*
X0830500D02*
D03*
X0833000D02*
D03*
X0835500D02*
D03*
X0838000D02*
D03*
X0825500D02*
D03*
X0823000D02*
D03*
X0820500D02*
D03*
X0818000D02*
D03*
X0828000Y0721500D02*
D03*
X0830500D02*
D03*
X0833000D02*
D03*
X0835500D02*
D03*
X0838000D02*
D03*
X0825500D02*
D03*
X0823000D02*
D03*
X0820500D02*
D03*
X0818000D02*
D03*
X0828000Y0724000D02*
D03*
X0830500D02*
D03*
X0833000D02*
D03*
X0835500D02*
D03*
X0825500D02*
D03*
X0823000D02*
D03*
X0820500D02*
D03*
X0818000D02*
D03*
X0828000Y0726500D02*
D03*
X0830500D02*
D03*
X0833000D02*
D03*
X0835500D02*
D03*
X0838000D02*
D03*
X0825500D02*
D03*
X0823000D02*
D03*
X0820500D02*
D03*
X0818000D02*
D03*
X0828000Y0729000D02*
D03*
X0830500D02*
D03*
X0833000D02*
D03*
X0835500D02*
D03*
X0838000D02*
D03*
X0825500D02*
D03*
X0823000D02*
D03*
X0820500D02*
D03*
X0818000D02*
D03*
X0828000Y0731500D02*
D03*
X0830500D02*
D03*
X0833000D02*
D03*
X0835500D02*
D03*
X0838000D02*
D03*
X0825500D02*
D03*
X0823000D02*
D03*
X0820500D02*
D03*
X0818000D02*
D03*
X0828000Y0734000D02*
D03*
X0830500D02*
D03*
X0833000D02*
D03*
X0835500D02*
D03*
X0838000D02*
D03*
X0825500D02*
D03*
X0823000D02*
D03*
X0820500D02*
D03*
X0818000D02*
D03*
X0869000Y0620500D02*
D03*
X0661000Y0597000D02*
D03*
X0732000Y0684500D02*
D03*
X0716500D02*
D03*
X0701000D02*
D03*
X0686000D02*
D03*
X0671000D02*
D03*
X0656000D02*
D03*
X0626000D02*
D03*
X0611000D02*
D03*
X0596000D02*
D03*
X0581000D02*
D03*
X0566000D02*
D03*
X0833500Y0603500D02*
D03*
X0828500D02*
D03*
X0841000Y0643000D02*
D03*
X0766000Y0638000D02*
D03*
X0735000Y0684500D02*
D03*
X0719500D02*
D03*
X0704000D02*
D03*
X0569000D02*
D03*
X0584000D02*
D03*
X0689000D02*
D03*
X0674000D02*
D03*
X0659000D02*
D03*
X0644000D02*
D03*
X0629000D02*
D03*
X0599000D02*
D03*
X0614000D02*
D03*
X0843220Y0650100D02*
D03*
X0747500Y0713500D02*
D03*
X0746000Y0694500D02*
D03*
X0735000Y0646500D02*
D03*
X0682500Y0624500D02*
D03*
D124*
X0721134Y0593925D02*
D03*
X0719165D02*
D03*
X0717197D02*
D03*
X0715228D02*
D03*
X0713260D02*
D03*
X0711291D02*
D03*
X0709323D02*
D03*
X0707354D02*
D03*
X0705386D02*
D03*
X0703417D02*
D03*
X0701449D02*
D03*
X0699480D02*
D03*
X0697512D02*
D03*
X0695543D02*
D03*
X0693575D02*
D03*
X0691606D02*
D03*
X0689638D02*
D03*
X0687669D02*
D03*
X0685701D02*
D03*
X0683732D02*
D03*
X0681764D02*
D03*
X0679795D02*
D03*
X0677827D02*
D03*
X0675858D02*
D03*
X0673890D02*
D03*
Y0654949D02*
D03*
X0675858D02*
D03*
X0677827D02*
D03*
X0679795D02*
D03*
X0681764D02*
D03*
X0683732D02*
D03*
X0685701D02*
D03*
X0687669D02*
D03*
X0689638D02*
D03*
X0691606D02*
D03*
X0693575D02*
D03*
X0695543D02*
D03*
X0697512D02*
D03*
X0699480D02*
D03*
X0701449D02*
D03*
X0703417D02*
D03*
X0705386D02*
D03*
X0707354D02*
D03*
X0709323D02*
D03*
X0711291D02*
D03*
X0713260D02*
D03*
X0715228D02*
D03*
X0717197D02*
D03*
X0719165D02*
D03*
X0721134D02*
D03*
D125*
X0667000Y0600815D02*
D03*
Y0602783D02*
D03*
Y0604752D02*
D03*
Y0606720D02*
D03*
Y0608689D02*
D03*
Y0610657D02*
D03*
Y0612626D02*
D03*
Y0614594D02*
D03*
Y0616563D02*
D03*
Y0618531D02*
D03*
Y0620500D02*
D03*
Y0622468D02*
D03*
Y0624437D02*
D03*
Y0626405D02*
D03*
Y0628374D02*
D03*
Y0630343D02*
D03*
Y0632311D02*
D03*
Y0634280D02*
D03*
Y0636248D02*
D03*
Y0638217D02*
D03*
Y0640185D02*
D03*
Y0642154D02*
D03*
Y0644122D02*
D03*
Y0646091D02*
D03*
Y0648059D02*
D03*
X0728024D02*
D03*
Y0646091D02*
D03*
Y0644122D02*
D03*
Y0642154D02*
D03*
Y0640185D02*
D03*
Y0638217D02*
D03*
Y0636248D02*
D03*
Y0634280D02*
D03*
Y0632311D02*
D03*
Y0630343D02*
D03*
Y0628374D02*
D03*
Y0626405D02*
D03*
Y0624437D02*
D03*
Y0622469D02*
D03*
Y0620500D02*
D03*
Y0618531D02*
D03*
Y0616563D02*
D03*
Y0614594D02*
D03*
Y0612626D02*
D03*
Y0610657D02*
D03*
Y0608689D02*
D03*
Y0606720D02*
D03*
Y0604752D02*
D03*
Y0602783D02*
D03*
Y0600815D02*
D03*
D126*
X0694760Y0571811D02*
D03*
X0702240D02*
D03*
D127*
X0831000Y0648197D02*
D03*
Y0645598D02*
D03*
Y0643000D02*
D03*
Y0640402D02*
D03*
D128*
X0819248Y0648197D02*
D03*
Y0645598D02*
D03*
Y0643000D02*
D03*
Y0640402D02*
D03*
D129*
X0718488Y0668500D02*
D03*
X0729512D02*
D03*
X0872512Y0546500D02*
D03*
X0861488D02*
D03*
Y0555000D02*
D03*
X0872512D02*
D03*
D130*
X0653000Y0658823D02*
D03*
Y0647799D02*
D03*
D131*
X0785882Y0668500D02*
D03*
X0796118D02*
D03*
Y0677500D02*
D03*
X0785882D02*
D03*
X0796118Y0686500D02*
D03*
X0785882D02*
D03*
Y0713500D02*
D03*
X0796118D02*
D03*
Y0731500D02*
D03*
X0785882D02*
D03*
Y0722500D02*
D03*
X0796118D02*
D03*
Y0704500D02*
D03*
X0785882D02*
D03*
Y0695500D02*
D03*
X0796118D02*
D03*
D132*
X0862106Y0730500D02*
D03*
Y0725500D02*
D03*
Y0720500D02*
D03*
Y0710500D02*
D03*
Y0705500D02*
D03*
Y0700500D02*
D03*
D133*
X0821949Y0715500D02*
D03*
D134*
X0570240Y0692500D02*
D03*
X0562760D02*
D03*
X0585240D02*
D03*
X0577760D02*
D03*
X0600240D02*
D03*
X0592760D02*
D03*
X0615240D02*
D03*
X0607760D02*
D03*
X0630240D02*
D03*
X0622760D02*
D03*
X0645240D02*
D03*
X0637760D02*
D03*
X0660240D02*
D03*
X0652760D02*
D03*
X0675240D02*
D03*
X0667760D02*
D03*
X0690240D02*
D03*
X0682760D02*
D03*
X0705240D02*
D03*
X0697760D02*
D03*
X0720740D02*
D03*
X0713260D02*
D03*
X0736240D02*
D03*
X0728760D02*
D03*
X0767760Y0637000D02*
D03*
X0775240D02*
D03*
D135*
X0863402Y0690500D02*
D03*
X0848598D02*
D03*
X0874402Y0647500D02*
D03*
X0859598D02*
D03*
D136*
X0806920Y0590971D02*
D03*
Y0581128D02*
D03*
D137*
X0804259Y0597982D02*
D03*
X0801700Y0597982D02*
D03*
X0799140D02*
D03*
X0796581Y0597982D02*
D03*
X0804259Y0615502D02*
D03*
X0801700Y0615502D02*
D03*
X0799140D02*
D03*
X0796581Y0615502D02*
D03*
D138*
X0671849Y0543646D02*
D03*
Y0549354D02*
D03*
X0692321Y0543646D02*
D03*
X0692321Y0549354D02*
D03*
D139*
X0853457Y0648600D02*
D03*
X0850898D02*
D03*
X0848339D02*
D03*
X0845780D02*
D03*
X0843220D02*
D03*
X0840661D02*
D03*
X0838102D02*
D03*
X0835543D02*
D03*
Y0626400D02*
D03*
X0838102D02*
D03*
X0840661D02*
D03*
X0843220D02*
D03*
X0845780D02*
D03*
X0848339D02*
D03*
X0850898D02*
D03*
X0853457D02*
D03*
D140*
X0803650Y0640400D02*
D03*
D141*
X0813000Y0635200D02*
D03*
Y0637800D02*
D03*
Y0640400D02*
D03*
Y0643000D02*
D03*
Y0645600D02*
D03*
X0794300D02*
D03*
Y0643000D02*
D03*
Y0640400D02*
D03*
Y0637800D02*
D03*
Y0635200D02*
D03*
D142*
X0808850Y0649750D02*
D03*
X0806250D02*
D03*
X0803650D02*
D03*
X0801050D02*
D03*
X0798450D02*
D03*
Y0631050D02*
D03*
X0801050D02*
D03*
X0803650D02*
D03*
X0806250D02*
D03*
X0808850D02*
D03*
D143*
X0860898Y0564000D02*
D03*
X0873102D02*
D03*
D144*
X0774618Y0642323D02*
D03*
X0772059D02*
D03*
X0769500D02*
D03*
Y0650000D02*
D03*
X0772059D02*
D03*
X0774618D02*
D03*
D145*
X0772059Y0646161D02*
D03*
D146*
X0839535Y0595661D02*
D03*
Y0598220D02*
D03*
Y0600780D02*
D03*
Y0603339D02*
D03*
X0856465Y0595661D02*
D03*
Y0598220D02*
D03*
Y0600780D02*
D03*
Y0603339D02*
D03*
D147*
X0716020Y0561646D02*
D03*
Y0547866D02*
D03*
X0730980Y0561646D02*
D03*
D148*
X0766500Y0673512D02*
D03*
Y0662488D02*
D03*
D149*
X0730154Y0570756D02*
D03*
X0721846Y0573315D02*
D03*
Y0568197D02*
D03*
D150*
X0775500Y0723902D02*
D03*
Y0709098D02*
D03*
D151*
X0781500Y0641374D02*
D03*
Y0650626D02*
D03*
D152*
X0823185Y0644299D02*
D03*
M02*
