G04*
G04 #@! TF.GenerationSoftware,Altium Limited,Altium Designer,18.1.1 (9)*
G04*
G04 Layer_Color=128*
%FSAX25Y25*%
%MOIN*%
G70*
G01*
G75*
%ADD19C,0.12205*%
%ADD20R,0.03543X0.02756*%
%ADD21R,0.02756X0.03543*%
%ADD25R,0.04331X0.04803*%
%ADD26R,0.01772X0.03347*%
%ADD34R,0.01968X0.01772*%
%ADD45R,0.01400X0.05600*%
%ADD124R,0.01181X0.04724*%
%ADD125R,0.04724X0.01181*%
%ADD126R,0.05906X0.10630*%
%ADD127R,0.03898X0.01595*%
%ADD128R,0.02992X0.01595*%
%ADD129R,0.03740X0.06693*%
%ADD130R,0.06693X0.03740*%
%ADD131R,0.04331X0.07874*%
%ADD132R,0.16339X0.04134*%
%ADD133R,0.34646X0.41732*%
%ADD134R,0.02756X0.05118*%
%ADD135R,0.05984X0.06614*%
%ADD136R,0.07480X0.04331*%
%ADD137O,0.01772X0.05315*%
%ADD138R,0.05512X0.03150*%
%ADD139O,0.01400X0.05800*%
%ADD141R,0.03800X0.01400*%
%ADD142R,0.01400X0.03800*%
%ADD143R,0.03937X0.04331*%
%ADD144R,0.01181X0.01772*%
%ADD146O,0.06299X0.01772*%
%ADD147R,0.08268X0.06693*%
%ADD148R,0.04803X0.04331*%
%ADD149R,0.03347X0.01772*%
%ADD150R,0.06614X0.05984*%
%ADD151R,0.01772X0.01968*%
G04:AMPARAMS|DCode=182|XSize=39.37mil|YSize=27.56mil|CornerRadius=0mil|HoleSize=0mil|Usage=FLASHONLY|Rotation=90.000|XOffset=0mil|YOffset=0mil|HoleType=Round|Shape=RoundedRectangle|*
%AMROUNDEDRECTD182*
21,1,0.03937,0.02756,0,0,90.0*
21,1,0.03937,0.02756,0,0,90.0*
1,1,0.00000,0.01378,0.01968*
1,1,0.00000,0.01378,-0.01968*
1,1,0.00000,-0.01378,-0.01968*
1,1,0.00000,-0.01378,0.01968*
%
%ADD182ROUNDEDRECTD182*%
%ADD183R,0.00100X0.00100*%
G36*
X0803256Y0640006D02*
Y0634494D01*
X0797744Y0634494D01*
X0797744Y0640006D01*
X0803256D01*
D02*
G37*
G36*
X0803256Y0646306D02*
Y0640794D01*
X0797744D01*
X0797744Y0646306D01*
X0803256D01*
D02*
G37*
G36*
X0809556Y0640006D02*
Y0634494D01*
X0804044D01*
X0804044Y0640006D01*
X0809556D01*
D02*
G37*
G36*
Y0646306D02*
Y0640794D01*
X0804044D01*
X0804044Y0646306D01*
X0809556D01*
D02*
G37*
D19*
X0524000Y0547500D02*
D03*
Y0727500D02*
D03*
X0898500Y0547500D02*
D03*
Y0727500D02*
D03*
D20*
X0607500Y0614744D02*
D03*
Y0620256D02*
D03*
X0852000D02*
D03*
Y0614744D02*
D03*
X0844500Y0548256D02*
D03*
Y0542744D02*
D03*
X0838500Y0548256D02*
D03*
Y0542744D02*
D03*
X0832500Y0542744D02*
D03*
Y0548256D02*
D03*
X0826500Y0548256D02*
D03*
Y0542744D02*
D03*
X0640000Y0663756D02*
D03*
Y0658244D02*
D03*
X0635000Y0663756D02*
D03*
Y0658244D02*
D03*
X0630000Y0663756D02*
D03*
Y0658244D02*
D03*
X0623000Y0663756D02*
D03*
Y0658244D02*
D03*
X0602000Y0648744D02*
D03*
Y0654256D02*
D03*
X0607000Y0648744D02*
D03*
Y0654256D02*
D03*
X0617000Y0610744D02*
D03*
Y0616256D02*
D03*
X0622000Y0610744D02*
D03*
Y0616256D02*
D03*
X0625000Y0604756D02*
D03*
Y0599244D02*
D03*
X0630000Y0604756D02*
D03*
Y0599244D02*
D03*
X0635000Y0605756D02*
D03*
Y0600244D02*
D03*
X0640000Y0605756D02*
D03*
Y0600244D02*
D03*
X0622000Y0551744D02*
D03*
Y0557256D02*
D03*
X0617000Y0551744D02*
D03*
Y0557256D02*
D03*
X0606000Y0577256D02*
D03*
Y0571744D02*
D03*
X0703500Y0581555D02*
D03*
Y0587067D02*
D03*
X0711500D02*
D03*
Y0581555D02*
D03*
X0857500Y0609244D02*
D03*
Y0614756D02*
D03*
X0863000Y0605256D02*
D03*
Y0599744D02*
D03*
Y0614756D02*
D03*
Y0609244D02*
D03*
X0788998Y0639344D02*
D03*
Y0644856D02*
D03*
Y0649344D02*
D03*
Y0654856D02*
D03*
X0587000Y0564756D02*
D03*
Y0559244D02*
D03*
X0857500Y0620244D02*
D03*
Y0625756D02*
D03*
X0716500Y0574012D02*
D03*
X0716500Y0568500D02*
D03*
X0863000Y0625756D02*
D03*
Y0620244D02*
D03*
X0743500Y0617244D02*
D03*
Y0622756D02*
D03*
Y0612756D02*
D03*
Y0607244D02*
D03*
X0735500Y0667744D02*
D03*
Y0673256D02*
D03*
X0750000Y0709256D02*
D03*
Y0703744D02*
D03*
X0745000Y0709256D02*
D03*
Y0703744D02*
D03*
X0559000Y0685756D02*
D03*
Y0680244D02*
D03*
X0810000Y0612244D02*
D03*
Y0617756D02*
D03*
X0798744Y0586244D02*
D03*
Y0591756D02*
D03*
X0762500Y0641256D02*
D03*
Y0635744D02*
D03*
Y0645244D02*
D03*
Y0650756D02*
D03*
X0660000Y0652567D02*
D03*
Y0647055D02*
D03*
D21*
X0612744Y0658500D02*
D03*
X0618256D02*
D03*
X0604744Y0604500D02*
D03*
X0610256D02*
D03*
X0604744Y0599500D02*
D03*
X0610256D02*
D03*
X0614744D02*
D03*
X0620256D02*
D03*
X0587256Y0601500D02*
D03*
X0581744Y0601500D02*
D03*
X0577256D02*
D03*
X0571744D02*
D03*
X0577256Y0606500D02*
D03*
X0571744Y0606500D02*
D03*
X0581744Y0606500D02*
D03*
X0587256D02*
D03*
X0571744Y0611500D02*
D03*
X0577256D02*
D03*
X0587256Y0611500D02*
D03*
X0581744Y0611500D02*
D03*
X0587256Y0596500D02*
D03*
X0581744D02*
D03*
X0577256Y0596500D02*
D03*
X0571744D02*
D03*
X0577256Y0591500D02*
D03*
X0571744Y0591500D02*
D03*
X0581744Y0591500D02*
D03*
X0587256Y0591500D02*
D03*
X0571744Y0586500D02*
D03*
X0577256D02*
D03*
X0587256Y0586500D02*
D03*
X0581744Y0586500D02*
D03*
X0846256Y0656000D02*
D03*
X0840744D02*
D03*
X0836256D02*
D03*
X0830744D02*
D03*
X0697744Y0549500D02*
D03*
X0703256Y0549500D02*
D03*
X0637744Y0595500D02*
D03*
X0643256D02*
D03*
X0637744Y0654000D02*
D03*
X0643256D02*
D03*
X0720244Y0662000D02*
D03*
X0725756D02*
D03*
X0740256Y0600811D02*
D03*
X0734744D02*
D03*
X0740256Y0595811D02*
D03*
X0734744D02*
D03*
X0682744Y0578311D02*
D03*
X0688256D02*
D03*
X0682744Y0573811D02*
D03*
X0688256D02*
D03*
Y0587311D02*
D03*
X0682744D02*
D03*
X0803744Y0656500D02*
D03*
X0809256D02*
D03*
X0794242Y0656600D02*
D03*
X0799754D02*
D03*
X0816244Y0653500D02*
D03*
X0821756D02*
D03*
X0800756Y0626000D02*
D03*
X0795244D02*
D03*
X0703256Y0543500D02*
D03*
X0697744Y0543500D02*
D03*
X0677984Y0555500D02*
D03*
X0672473D02*
D03*
X0834256Y0596500D02*
D03*
X0828744D02*
D03*
X0856756Y0589500D02*
D03*
X0851244D02*
D03*
X0682744Y0582811D02*
D03*
X0688256D02*
D03*
X0667256Y0592500D02*
D03*
X0661744D02*
D03*
X0690744Y0562811D02*
D03*
X0696256D02*
D03*
X0706256D02*
D03*
X0700744D02*
D03*
X0569256Y0680500D02*
D03*
X0563744D02*
D03*
D25*
X0780512Y0656000D02*
D03*
X0769488D02*
D03*
D26*
X0734559Y0698693D02*
D03*
X0737118Y0707000D02*
D03*
X0732000D02*
D03*
X0716500D02*
D03*
X0721618D02*
D03*
X0719059Y0698693D02*
D03*
X0703559D02*
D03*
X0706118Y0707000D02*
D03*
X0701000D02*
D03*
X0686000D02*
D03*
X0691118D02*
D03*
X0688559Y0698693D02*
D03*
X0673559D02*
D03*
X0676118Y0707000D02*
D03*
X0671000D02*
D03*
X0656000D02*
D03*
X0661118D02*
D03*
X0658559Y0698693D02*
D03*
X0643559D02*
D03*
X0646118Y0707000D02*
D03*
X0641000D02*
D03*
X0626000D02*
D03*
X0631118D02*
D03*
X0628559Y0698693D02*
D03*
X0613559D02*
D03*
X0616118Y0707000D02*
D03*
X0611000D02*
D03*
X0596000D02*
D03*
X0601118D02*
D03*
X0598559Y0698693D02*
D03*
X0583559D02*
D03*
X0586118Y0707000D02*
D03*
X0581000D02*
D03*
X0566000D02*
D03*
X0571118D02*
D03*
X0568559Y0698693D02*
D03*
D34*
X0748374Y0719000D02*
D03*
X0757626D02*
D03*
X0770374Y0630000D02*
D03*
X0779626D02*
D03*
D45*
X0640056Y0648300D02*
D03*
X0637456D02*
D03*
X0634856D02*
D03*
X0632256D02*
D03*
X0629656D02*
D03*
X0627056D02*
D03*
X0624456D02*
D03*
X0621856D02*
D03*
X0619256D02*
D03*
X0616656D02*
D03*
X0614056D02*
D03*
X0611456D02*
D03*
Y0625300D02*
D03*
X0614056D02*
D03*
X0616656D02*
D03*
X0619256D02*
D03*
X0621856D02*
D03*
X0624456D02*
D03*
X0627056D02*
D03*
X0629656D02*
D03*
X0632256D02*
D03*
X0634856D02*
D03*
X0637456D02*
D03*
X0640056D02*
D03*
Y0589300D02*
D03*
X0637456D02*
D03*
X0634856D02*
D03*
X0632256D02*
D03*
X0629656D02*
D03*
X0627056D02*
D03*
X0624456D02*
D03*
X0621856D02*
D03*
X0619256D02*
D03*
X0616656D02*
D03*
X0614056D02*
D03*
X0611456D02*
D03*
Y0566300D02*
D03*
X0614056D02*
D03*
X0616656D02*
D03*
X0619256D02*
D03*
X0621856D02*
D03*
X0624456D02*
D03*
X0627056D02*
D03*
X0629656D02*
D03*
X0632256D02*
D03*
X0634856D02*
D03*
X0637456D02*
D03*
X0640056D02*
D03*
D124*
X0721134Y0593925D02*
D03*
X0719165D02*
D03*
X0717197D02*
D03*
X0715228D02*
D03*
X0713260D02*
D03*
X0711291D02*
D03*
X0709323D02*
D03*
X0707354D02*
D03*
X0705386D02*
D03*
X0703417D02*
D03*
X0701449D02*
D03*
X0699480D02*
D03*
X0697512D02*
D03*
X0695543D02*
D03*
X0693575D02*
D03*
X0691606D02*
D03*
X0689638D02*
D03*
X0687669D02*
D03*
X0685701D02*
D03*
X0683732D02*
D03*
X0681764D02*
D03*
X0679795D02*
D03*
X0677827D02*
D03*
X0675858D02*
D03*
X0673890D02*
D03*
Y0654949D02*
D03*
X0675858D02*
D03*
X0677827D02*
D03*
X0679795D02*
D03*
X0681764D02*
D03*
X0683732D02*
D03*
X0685701D02*
D03*
X0687669D02*
D03*
X0689638D02*
D03*
X0691606D02*
D03*
X0693575D02*
D03*
X0695543D02*
D03*
X0697512D02*
D03*
X0699480D02*
D03*
X0701449D02*
D03*
X0703417D02*
D03*
X0705386D02*
D03*
X0707354D02*
D03*
X0709323D02*
D03*
X0711291D02*
D03*
X0713260D02*
D03*
X0715228D02*
D03*
X0717197D02*
D03*
X0719165D02*
D03*
X0721134D02*
D03*
D125*
X0667000Y0600815D02*
D03*
Y0602783D02*
D03*
Y0604752D02*
D03*
Y0606720D02*
D03*
Y0608689D02*
D03*
Y0610657D02*
D03*
Y0612626D02*
D03*
Y0614594D02*
D03*
Y0616563D02*
D03*
Y0618531D02*
D03*
Y0620500D02*
D03*
Y0622468D02*
D03*
Y0624437D02*
D03*
Y0626405D02*
D03*
Y0628374D02*
D03*
Y0630343D02*
D03*
Y0632311D02*
D03*
Y0634280D02*
D03*
Y0636248D02*
D03*
Y0638217D02*
D03*
Y0640185D02*
D03*
Y0642154D02*
D03*
Y0644122D02*
D03*
Y0646091D02*
D03*
Y0648059D02*
D03*
X0728024D02*
D03*
Y0646091D02*
D03*
Y0644122D02*
D03*
Y0642154D02*
D03*
Y0640185D02*
D03*
Y0638217D02*
D03*
Y0636248D02*
D03*
Y0634280D02*
D03*
Y0632311D02*
D03*
Y0630343D02*
D03*
Y0628374D02*
D03*
Y0626405D02*
D03*
Y0624437D02*
D03*
Y0622469D02*
D03*
Y0620500D02*
D03*
Y0618531D02*
D03*
Y0616563D02*
D03*
Y0614594D02*
D03*
Y0612626D02*
D03*
Y0610657D02*
D03*
Y0608689D02*
D03*
Y0606720D02*
D03*
Y0604752D02*
D03*
Y0602783D02*
D03*
Y0600815D02*
D03*
D126*
X0694760Y0571811D02*
D03*
X0702240D02*
D03*
D127*
X0831000Y0648197D02*
D03*
Y0645598D02*
D03*
Y0643000D02*
D03*
Y0640402D02*
D03*
D128*
X0819248Y0648197D02*
D03*
Y0645598D02*
D03*
Y0643000D02*
D03*
Y0640402D02*
D03*
D129*
X0718488Y0668500D02*
D03*
X0729512D02*
D03*
X0872512Y0546500D02*
D03*
X0861488D02*
D03*
Y0555000D02*
D03*
X0872512D02*
D03*
D130*
X0653000Y0658823D02*
D03*
Y0647799D02*
D03*
D131*
X0785882Y0668500D02*
D03*
X0796118D02*
D03*
Y0677500D02*
D03*
X0785882D02*
D03*
X0796118Y0686500D02*
D03*
X0785882D02*
D03*
Y0713500D02*
D03*
X0796118D02*
D03*
Y0731500D02*
D03*
X0785882D02*
D03*
Y0722500D02*
D03*
X0796118D02*
D03*
Y0704500D02*
D03*
X0785882D02*
D03*
Y0695500D02*
D03*
X0796118D02*
D03*
D132*
X0862106Y0730500D02*
D03*
Y0725500D02*
D03*
Y0720500D02*
D03*
Y0710500D02*
D03*
Y0705500D02*
D03*
Y0700500D02*
D03*
D133*
X0821949Y0715500D02*
D03*
D134*
X0570240Y0692500D02*
D03*
X0562760D02*
D03*
X0585240D02*
D03*
X0577760D02*
D03*
X0600240D02*
D03*
X0592760D02*
D03*
X0615240D02*
D03*
X0607760D02*
D03*
X0630240D02*
D03*
X0622760D02*
D03*
X0645240D02*
D03*
X0637760D02*
D03*
X0660240D02*
D03*
X0652760D02*
D03*
X0675240D02*
D03*
X0667760D02*
D03*
X0690240D02*
D03*
X0682760D02*
D03*
X0705240D02*
D03*
X0697760D02*
D03*
X0720740D02*
D03*
X0713260D02*
D03*
X0736240D02*
D03*
X0728760D02*
D03*
X0767760Y0637000D02*
D03*
X0775240D02*
D03*
D135*
X0863402Y0690500D02*
D03*
X0848598D02*
D03*
X0874402Y0647500D02*
D03*
X0859598D02*
D03*
D136*
X0806920Y0590971D02*
D03*
Y0581128D02*
D03*
D137*
X0804259Y0597982D02*
D03*
X0801700Y0597982D02*
D03*
X0799140D02*
D03*
X0796581Y0597982D02*
D03*
X0804259Y0615502D02*
D03*
X0801700Y0615502D02*
D03*
X0799140D02*
D03*
X0796581Y0615502D02*
D03*
D138*
X0671849Y0543646D02*
D03*
Y0549354D02*
D03*
X0692321Y0543646D02*
D03*
X0692321Y0549354D02*
D03*
D139*
X0853457Y0648600D02*
D03*
X0850898D02*
D03*
X0848339D02*
D03*
X0845780D02*
D03*
X0843220D02*
D03*
X0840661D02*
D03*
X0838102D02*
D03*
X0835543D02*
D03*
Y0626400D02*
D03*
X0838102D02*
D03*
X0840661D02*
D03*
X0843220D02*
D03*
X0845780D02*
D03*
X0848339D02*
D03*
X0850898D02*
D03*
X0853457D02*
D03*
D141*
X0813000Y0635200D02*
D03*
Y0637800D02*
D03*
Y0640400D02*
D03*
Y0643000D02*
D03*
Y0645600D02*
D03*
X0794300D02*
D03*
Y0643000D02*
D03*
Y0640400D02*
D03*
Y0637800D02*
D03*
Y0635200D02*
D03*
D142*
X0808850Y0649750D02*
D03*
X0806250D02*
D03*
X0803650D02*
D03*
X0801050D02*
D03*
X0798450D02*
D03*
Y0631050D02*
D03*
X0801050D02*
D03*
X0803650D02*
D03*
X0806250D02*
D03*
X0808850D02*
D03*
D143*
X0860898Y0564000D02*
D03*
X0873102D02*
D03*
D144*
X0774618Y0642323D02*
D03*
X0772059D02*
D03*
X0769500D02*
D03*
Y0650000D02*
D03*
X0772059D02*
D03*
X0774618D02*
D03*
D146*
X0839535Y0595661D02*
D03*
Y0598220D02*
D03*
Y0600780D02*
D03*
Y0603339D02*
D03*
X0856465Y0595661D02*
D03*
Y0598220D02*
D03*
Y0600780D02*
D03*
Y0603339D02*
D03*
D147*
X0716020Y0561646D02*
D03*
Y0547866D02*
D03*
X0730980Y0561646D02*
D03*
D148*
X0766500Y0673512D02*
D03*
Y0662488D02*
D03*
D149*
X0730154Y0570756D02*
D03*
X0721846Y0573315D02*
D03*
Y0568197D02*
D03*
D150*
X0775500Y0723902D02*
D03*
Y0709098D02*
D03*
D151*
X0781500Y0641374D02*
D03*
Y0650626D02*
D03*
D182*
X0773831Y0646161D02*
D03*
X0770287D02*
D03*
D183*
X0803650Y0640400D02*
D03*
M02*
