G04*
G04 #@! TF.GenerationSoftware,Altium Limited,Altium Designer,18.1.1 (9)*
G04*
G04 Layer_Color=16711935*
%FSAX25Y25*%
%MOIN*%
G70*
G01*
G75*
%ADD19C,0.12205*%
%ADD56R,0.04143X0.03356*%
%ADD57R,0.03356X0.04143*%
%ADD61R,0.04931X0.05403*%
%ADD62R,0.02372X0.03947*%
%ADD70R,0.02568X0.02372*%
%ADD81R,0.02000X0.06200*%
%ADD92C,0.06900*%
%ADD93C,0.06506*%
%ADD94R,0.06506X0.06506*%
%ADD95R,0.06506X0.06506*%
%ADD96C,0.09655*%
%ADD97C,0.08474*%
%ADD98C,0.07480*%
%ADD99C,0.07490*%
%ADD100C,0.01200*%
%ADD153R,0.01781X0.05324*%
%ADD154R,0.05324X0.01781*%
%ADD155R,0.06506X0.11230*%
%ADD156R,0.04498X0.02195*%
%ADD157R,0.03592X0.02195*%
%ADD158R,0.04340X0.07293*%
%ADD159R,0.07293X0.04340*%
%ADD160R,0.04931X0.08474*%
%ADD161R,0.16739X0.04534*%
%ADD162R,0.35246X0.42332*%
%ADD163R,0.03356X0.05718*%
%ADD164R,0.06584X0.07214*%
%ADD165R,0.08080X0.04931*%
%ADD166O,0.02372X0.05915*%
%ADD167R,0.06112X0.03750*%
%ADD168O,0.02000X0.06400*%
%ADD169R,0.13200X0.13200*%
%ADD170R,0.04400X0.02000*%
%ADD171R,0.02000X0.04400*%
%ADD172R,0.04537X0.04931*%
%ADD173R,0.01781X0.02372*%
%ADD174R,0.06899X0.04537*%
%ADD175O,0.06899X0.02372*%
%ADD176R,0.08868X0.07293*%
%ADD177R,0.05403X0.04931*%
%ADD178R,0.03947X0.02372*%
%ADD179R,0.07214X0.06584*%
%ADD180R,0.02372X0.02568*%
%ADD181R,0.07293X0.09262*%
D19*
X0898500Y0727500D02*
D03*
Y0547500D02*
D03*
X0524000D02*
D03*
Y0727500D02*
D03*
D56*
X0607500Y0614744D02*
D03*
Y0620256D02*
D03*
X0852000D02*
D03*
Y0614744D02*
D03*
X0844500Y0548256D02*
D03*
Y0542744D02*
D03*
X0838500Y0548256D02*
D03*
Y0542744D02*
D03*
X0832500Y0542744D02*
D03*
Y0548256D02*
D03*
X0826500Y0548256D02*
D03*
Y0542744D02*
D03*
X0640000Y0663756D02*
D03*
Y0658244D02*
D03*
X0635000Y0663756D02*
D03*
Y0658244D02*
D03*
X0630000Y0663756D02*
D03*
Y0658244D02*
D03*
X0623000Y0663756D02*
D03*
Y0658244D02*
D03*
X0602000Y0648744D02*
D03*
Y0654256D02*
D03*
X0607000Y0648744D02*
D03*
Y0654256D02*
D03*
X0617000Y0610744D02*
D03*
Y0616256D02*
D03*
X0622000Y0610744D02*
D03*
Y0616256D02*
D03*
X0625000Y0604756D02*
D03*
Y0599244D02*
D03*
X0630000Y0604756D02*
D03*
Y0599244D02*
D03*
X0635000Y0605756D02*
D03*
Y0600244D02*
D03*
X0640000Y0605756D02*
D03*
Y0600244D02*
D03*
X0622000Y0551744D02*
D03*
Y0557256D02*
D03*
X0617000Y0551744D02*
D03*
Y0557256D02*
D03*
X0606000Y0577256D02*
D03*
Y0571744D02*
D03*
X0703500Y0581555D02*
D03*
Y0587067D02*
D03*
X0711500D02*
D03*
Y0581555D02*
D03*
X0857500Y0609244D02*
D03*
Y0614756D02*
D03*
X0863000Y0605256D02*
D03*
Y0599744D02*
D03*
Y0614756D02*
D03*
Y0609244D02*
D03*
X0788998Y0639344D02*
D03*
Y0644856D02*
D03*
Y0649344D02*
D03*
Y0654856D02*
D03*
X0587000Y0564756D02*
D03*
Y0559244D02*
D03*
X0857500Y0620244D02*
D03*
Y0625756D02*
D03*
X0716500Y0574012D02*
D03*
X0716500Y0568500D02*
D03*
X0863000Y0625756D02*
D03*
Y0620244D02*
D03*
X0743500Y0617244D02*
D03*
Y0622756D02*
D03*
Y0612756D02*
D03*
Y0607244D02*
D03*
X0735500Y0667744D02*
D03*
Y0673256D02*
D03*
X0750000Y0709256D02*
D03*
Y0703744D02*
D03*
X0745000Y0709256D02*
D03*
Y0703744D02*
D03*
X0559000Y0685756D02*
D03*
Y0680244D02*
D03*
X0810000Y0612244D02*
D03*
Y0617756D02*
D03*
X0798744Y0586244D02*
D03*
Y0591756D02*
D03*
X0762500Y0641256D02*
D03*
Y0635744D02*
D03*
Y0645244D02*
D03*
Y0650756D02*
D03*
X0660000Y0652567D02*
D03*
Y0647055D02*
D03*
D57*
X0612744Y0658500D02*
D03*
X0618256D02*
D03*
X0604744Y0604500D02*
D03*
X0610256D02*
D03*
X0604744Y0599500D02*
D03*
X0610256D02*
D03*
X0614744D02*
D03*
X0620256D02*
D03*
X0587256Y0601500D02*
D03*
X0581744Y0601500D02*
D03*
X0577256D02*
D03*
X0571744D02*
D03*
X0577256Y0606500D02*
D03*
X0571744Y0606500D02*
D03*
X0581744Y0606500D02*
D03*
X0587256D02*
D03*
X0571744Y0611500D02*
D03*
X0577256D02*
D03*
X0587256Y0611500D02*
D03*
X0581744Y0611500D02*
D03*
X0587256Y0596500D02*
D03*
X0581744D02*
D03*
X0577256Y0596500D02*
D03*
X0571744D02*
D03*
X0577256Y0591500D02*
D03*
X0571744Y0591500D02*
D03*
X0581744Y0591500D02*
D03*
X0587256Y0591500D02*
D03*
X0571744Y0586500D02*
D03*
X0577256D02*
D03*
X0587256Y0586500D02*
D03*
X0581744Y0586500D02*
D03*
X0846256Y0656000D02*
D03*
X0840744D02*
D03*
X0836256D02*
D03*
X0830744D02*
D03*
X0697744Y0549500D02*
D03*
X0703256Y0549500D02*
D03*
X0637744Y0595500D02*
D03*
X0643256D02*
D03*
X0637744Y0654000D02*
D03*
X0643256D02*
D03*
X0720244Y0662000D02*
D03*
X0725756D02*
D03*
X0740256Y0600811D02*
D03*
X0734744D02*
D03*
X0740256Y0595811D02*
D03*
X0734744D02*
D03*
X0682744Y0578311D02*
D03*
X0688256D02*
D03*
X0682744Y0573811D02*
D03*
X0688256D02*
D03*
Y0587311D02*
D03*
X0682744D02*
D03*
X0803744Y0656500D02*
D03*
X0809256D02*
D03*
X0794242Y0656600D02*
D03*
X0799754D02*
D03*
X0816244Y0653500D02*
D03*
X0821756D02*
D03*
X0800756Y0626000D02*
D03*
X0795244D02*
D03*
X0703256Y0543500D02*
D03*
X0697744Y0543500D02*
D03*
X0677984Y0555500D02*
D03*
X0672473D02*
D03*
X0834256Y0596500D02*
D03*
X0828744D02*
D03*
X0856756Y0589500D02*
D03*
X0851244D02*
D03*
X0682744Y0582811D02*
D03*
X0688256D02*
D03*
X0667256Y0592500D02*
D03*
X0661744D02*
D03*
X0690744Y0562811D02*
D03*
X0696256D02*
D03*
X0706256D02*
D03*
X0700744D02*
D03*
X0569256Y0680500D02*
D03*
X0563744D02*
D03*
D61*
X0780512Y0656000D02*
D03*
X0769488D02*
D03*
D62*
X0734559Y0698693D02*
D03*
X0737118Y0707000D02*
D03*
X0732000D02*
D03*
X0716500D02*
D03*
X0721618D02*
D03*
X0719059Y0698693D02*
D03*
X0703559D02*
D03*
X0706118Y0707000D02*
D03*
X0701000D02*
D03*
X0686000D02*
D03*
X0691118D02*
D03*
X0688559Y0698693D02*
D03*
X0673559D02*
D03*
X0676118Y0707000D02*
D03*
X0671000D02*
D03*
X0656000D02*
D03*
X0661118D02*
D03*
X0658559Y0698693D02*
D03*
X0643559D02*
D03*
X0646118Y0707000D02*
D03*
X0641000D02*
D03*
X0626000D02*
D03*
X0631118D02*
D03*
X0628559Y0698693D02*
D03*
X0613559D02*
D03*
X0616118Y0707000D02*
D03*
X0611000D02*
D03*
X0596000D02*
D03*
X0601118D02*
D03*
X0598559Y0698693D02*
D03*
X0583559D02*
D03*
X0586118Y0707000D02*
D03*
X0581000D02*
D03*
X0566000D02*
D03*
X0571118D02*
D03*
X0568559Y0698693D02*
D03*
D70*
X0748374Y0719000D02*
D03*
X0757626D02*
D03*
X0770374Y0630000D02*
D03*
X0779626D02*
D03*
D81*
X0640056Y0648300D02*
D03*
X0637456D02*
D03*
X0634856D02*
D03*
X0632256D02*
D03*
X0629656D02*
D03*
X0627056D02*
D03*
X0624456D02*
D03*
X0621856D02*
D03*
X0619256D02*
D03*
X0616656D02*
D03*
X0614056D02*
D03*
X0611456D02*
D03*
Y0625300D02*
D03*
X0614056D02*
D03*
X0616656D02*
D03*
X0619256D02*
D03*
X0621856D02*
D03*
X0624456D02*
D03*
X0627056D02*
D03*
X0629656D02*
D03*
X0632256D02*
D03*
X0634856D02*
D03*
X0637456D02*
D03*
X0640056D02*
D03*
Y0589300D02*
D03*
X0637456D02*
D03*
X0634856D02*
D03*
X0632256D02*
D03*
X0629656D02*
D03*
X0627056D02*
D03*
X0624456D02*
D03*
X0621856D02*
D03*
X0619256D02*
D03*
X0616656D02*
D03*
X0614056D02*
D03*
X0611456D02*
D03*
Y0566300D02*
D03*
X0614056D02*
D03*
X0616656D02*
D03*
X0619256D02*
D03*
X0621856D02*
D03*
X0624456D02*
D03*
X0627056D02*
D03*
X0629656D02*
D03*
X0632256D02*
D03*
X0634856D02*
D03*
X0637456D02*
D03*
X0640056D02*
D03*
D92*
X0674874Y0565000D02*
D03*
X0667000D02*
D03*
X0753874Y0545500D02*
D03*
X0738126D02*
D03*
X0746000D02*
D03*
X0795685Y0569000D02*
D03*
X0787811D02*
D03*
X0779937D02*
D03*
X0772037D02*
D03*
X0764137D02*
D03*
X0756263D02*
D03*
X0770752Y0545500D02*
D03*
X0778626D02*
D03*
X0786500D02*
D03*
X0794400D02*
D03*
X0802300D02*
D03*
X0573248Y0650000D02*
D03*
X0565374D02*
D03*
X0557500D02*
D03*
X0549600D02*
D03*
X0541700D02*
D03*
X0573248Y0669500D02*
D03*
X0565374D02*
D03*
X0557500D02*
D03*
X0549600D02*
D03*
X0541700D02*
D03*
X0550626Y0550000D02*
D03*
X0566374D02*
D03*
X0558500D02*
D03*
X0812563Y0569000D02*
D03*
X0820437D02*
D03*
X0545500Y0687126D02*
D03*
Y0695000D02*
D03*
D93*
X0558000Y0722000D02*
D03*
X0548000D02*
D03*
X0558000Y0732000D02*
D03*
X0630000Y0544500D02*
D03*
X0640000D02*
D03*
X0650000D02*
D03*
D94*
X0548000Y0732000D02*
D03*
D95*
X0660000Y0544500D02*
D03*
D96*
X0561000Y0626000D02*
D03*
Y0611000D02*
D03*
Y0596000D02*
D03*
Y0581000D02*
D03*
D97*
X0757500Y0707606D02*
D03*
Y0697764D02*
D03*
Y0687921D02*
D03*
Y0678079D02*
D03*
Y0668236D02*
D03*
Y0658394D02*
D03*
D98*
X0682085Y0546500D02*
D03*
D99*
X0590260Y0722500D02*
D03*
X0600102D02*
D03*
X0609945D02*
D03*
X0619787D02*
D03*
X0629630D02*
D03*
X0639472D02*
D03*
X0649315D02*
D03*
X0659157D02*
D03*
X0669000D02*
D03*
X0678843D02*
D03*
X0688685D02*
D03*
X0698528D02*
D03*
X0708370D02*
D03*
D100*
X0655000Y0553000D02*
D03*
X0661500Y0576500D02*
D03*
X0656000Y0572500D02*
D03*
X0760500Y0578000D02*
D03*
X0856500Y0563000D02*
D03*
X0854000D02*
D03*
Y0545500D02*
D03*
X0856500D02*
D03*
X0851500Y0548000D02*
D03*
X0851500Y0550500D02*
D03*
Y0558000D02*
D03*
X0851500Y0555500D02*
D03*
Y0553000D02*
D03*
X0854000Y0548000D02*
D03*
Y0550500D02*
D03*
Y0558000D02*
D03*
Y0555500D02*
D03*
Y0553000D02*
D03*
X0856500Y0548000D02*
D03*
Y0550500D02*
D03*
Y0558000D02*
D03*
Y0555500D02*
D03*
Y0553000D02*
D03*
X0851500Y0560500D02*
D03*
X0854000D02*
D03*
X0856500D02*
D03*
X0722500Y0609500D02*
D03*
Y0612500D02*
D03*
X0735000Y0633000D02*
D03*
X0740500Y0630500D02*
D03*
X0738000Y0628000D02*
D03*
X0735500Y0625500D02*
D03*
X0707500Y0552000D02*
D03*
X0710000Y0549500D02*
D03*
X0707500Y0547000D02*
D03*
X0540500Y0603500D02*
D03*
X0537500D02*
D03*
X0564000Y0638000D02*
D03*
X0585000Y0667500D02*
D03*
X0863500Y0678500D02*
D03*
Y0681000D02*
D03*
X0866000Y0686000D02*
D03*
Y0683500D02*
D03*
X0868500Y0691000D02*
D03*
Y0688500D02*
D03*
X0866000Y0681000D02*
D03*
Y0678500D02*
D03*
Y0676000D02*
D03*
X0870000Y0665000D02*
D03*
X0840000Y0688500D02*
D03*
X0870013Y0667987D02*
D03*
X0760000Y0638000D02*
D03*
Y0635000D02*
D03*
X0766000Y0629000D02*
D03*
X0769000D02*
D03*
X0772000D02*
D03*
Y0632000D02*
D03*
X0626500Y0595000D02*
D03*
X0608000Y0634500D02*
D03*
X0644500Y0596000D02*
D03*
X0608000Y0624000D02*
D03*
X0603500D02*
D03*
X0598000Y0650500D02*
D03*
X0754000Y0608500D02*
D03*
X0712500Y0624500D02*
D03*
X0760000Y0608500D02*
D03*
X0716500Y0628500D02*
D03*
X0757000Y0608500D02*
D03*
X0714500Y0626500D02*
D03*
X0813000Y0678500D02*
D03*
X0818000Y0683500D02*
D03*
Y0681000D02*
D03*
Y0678500D02*
D03*
X0846000Y0722000D02*
D03*
Y0719500D02*
D03*
Y0717000D02*
D03*
X0848500Y0714500D02*
D03*
X0851000Y0712000D02*
D03*
X0848500Y0717000D02*
D03*
Y0719500D02*
D03*
X0873500Y0734500D02*
D03*
Y0732000D02*
D03*
Y0729500D02*
D03*
X0561500Y0638000D02*
D03*
X0838000Y0633500D02*
D03*
X0794500Y0590500D02*
D03*
X0657000Y0642000D02*
D03*
X0795500Y0699000D02*
D03*
X0793000D02*
D03*
X0795500Y0701500D02*
D03*
X0793000D02*
D03*
Y0704000D02*
D03*
X0795500D02*
D03*
Y0706500D02*
D03*
X0793000D02*
D03*
X0832500Y0660500D02*
D03*
Y0663000D02*
D03*
Y0665500D02*
D03*
X0772000Y0699000D02*
D03*
X0748000Y0608500D02*
D03*
X0740000Y0609000D02*
D03*
X0738000Y0607000D02*
D03*
X0751000Y0608500D02*
D03*
X0810000Y0607000D02*
D03*
X0755000Y0591000D02*
D03*
X0719000Y0579500D02*
D03*
X0689500Y0648500D02*
D03*
X0694000D02*
D03*
X0763000Y0732000D02*
D03*
X0765500D02*
D03*
Y0729500D02*
D03*
X0763000Y0727000D02*
D03*
X0765500D02*
D03*
X0763000Y0729500D02*
D03*
X0760500Y0732000D02*
D03*
Y0727000D02*
D03*
Y0729500D02*
D03*
X0789500Y0670000D02*
D03*
X0777000Y0671500D02*
D03*
X0779500Y0674000D02*
D03*
X0782000Y0676500D02*
D03*
X0784500Y0679000D02*
D03*
X0787000Y0681500D02*
D03*
X0789500Y0684000D02*
D03*
X0876000Y0666000D02*
D03*
X0868500Y0673500D02*
D03*
X0876000Y0668500D02*
D03*
X0878500Y0666000D02*
D03*
Y0668500D02*
D03*
X0876000Y0671000D02*
D03*
X0873500D02*
D03*
X0871000Y0673500D02*
D03*
X0868500Y0676000D02*
D03*
X0873000Y0668000D02*
D03*
X0868500Y0686000D02*
D03*
X0871000Y0691000D02*
D03*
X0873500Y0693500D02*
D03*
Y0696000D02*
D03*
Y0698500D02*
D03*
Y0701000D02*
D03*
Y0703500D02*
D03*
Y0706000D02*
D03*
X0813000Y0714000D02*
D03*
Y0711500D02*
D03*
Y0734000D02*
D03*
Y0731500D02*
D03*
Y0729000D02*
D03*
Y0726500D02*
D03*
Y0724000D02*
D03*
Y0721500D02*
D03*
Y0719000D02*
D03*
Y0716500D02*
D03*
X0838000Y0724000D02*
D03*
X0815500Y0711500D02*
D03*
Y0714000D02*
D03*
Y0716500D02*
D03*
Y0724000D02*
D03*
Y0726500D02*
D03*
Y0729000D02*
D03*
Y0719000D02*
D03*
Y0721500D02*
D03*
Y0731500D02*
D03*
Y0734000D02*
D03*
X0878500Y0671000D02*
D03*
X0868500Y0678500D02*
D03*
Y0681000D02*
D03*
Y0683500D02*
D03*
X0815500Y0681000D02*
D03*
Y0678500D02*
D03*
Y0676000D02*
D03*
X0810500D02*
D03*
X0813000D02*
D03*
Y0673500D02*
D03*
X0808000D02*
D03*
X0810500D02*
D03*
Y0671000D02*
D03*
X0808000D02*
D03*
Y0668500D02*
D03*
X0805500Y0671000D02*
D03*
X0803000Y0668500D02*
D03*
X0805500D02*
D03*
X0800500Y0666000D02*
D03*
X0803000D02*
D03*
X0805500D02*
D03*
X0881000Y0671000D02*
D03*
X0883500D02*
D03*
X0886000D02*
D03*
X0881000Y0668500D02*
D03*
X0883500D02*
D03*
X0886000D02*
D03*
Y0666000D02*
D03*
X0883500D02*
D03*
X0881000D02*
D03*
X0752500Y0623000D02*
D03*
X0709000Y0644000D02*
D03*
X0705500D02*
D03*
X0728500Y0598500D02*
D03*
X0671500Y0640500D02*
D03*
X0678000Y0609000D02*
D03*
Y0612000D02*
D03*
X0707500Y0605000D02*
D03*
X0701500Y0602500D02*
D03*
X0872500Y0650000D02*
D03*
X0586000Y0564500D02*
D03*
X0772000Y0671500D02*
D03*
Y0674000D02*
D03*
Y0676500D02*
D03*
X0774500Y0671500D02*
D03*
X0789500Y0686500D02*
D03*
Y0689000D02*
D03*
Y0691500D02*
D03*
Y0704000D02*
D03*
Y0701500D02*
D03*
Y0699000D02*
D03*
Y0696500D02*
D03*
Y0694000D02*
D03*
Y0706500D02*
D03*
X0784500Y0681500D02*
D03*
X0782000D02*
D03*
Y0679000D02*
D03*
X0777000Y0674000D02*
D03*
X0779500Y0676500D02*
D03*
X0777000D02*
D03*
X0779500Y0679000D02*
D03*
X0777000D02*
D03*
X0779500Y0681500D02*
D03*
X0777000D02*
D03*
X0774500Y0674000D02*
D03*
Y0676500D02*
D03*
Y0679000D02*
D03*
X0772000D02*
D03*
X0774500Y0681500D02*
D03*
X0772000D02*
D03*
X0787000Y0706500D02*
D03*
X0784500D02*
D03*
X0782000D02*
D03*
X0779500D02*
D03*
X0772000Y0704000D02*
D03*
X0774500Y0699000D02*
D03*
Y0701500D02*
D03*
X0772000D02*
D03*
X0774500Y0704000D02*
D03*
Y0706500D02*
D03*
X0772000D02*
D03*
Y0696500D02*
D03*
X0774500D02*
D03*
X0772000Y0694000D02*
D03*
X0774500D02*
D03*
X0772000Y0691500D02*
D03*
X0774500D02*
D03*
X0772000Y0689000D02*
D03*
X0774500D02*
D03*
X0772000Y0686500D02*
D03*
X0774500D02*
D03*
X0772000Y0684000D02*
D03*
X0774500D02*
D03*
X0777000Y0706500D02*
D03*
Y0694000D02*
D03*
X0779500D02*
D03*
X0782000D02*
D03*
X0784500D02*
D03*
X0787000D02*
D03*
Y0696500D02*
D03*
X0784500D02*
D03*
X0782000D02*
D03*
X0779500D02*
D03*
X0777000D02*
D03*
X0787000Y0699000D02*
D03*
X0784500D02*
D03*
X0782000D02*
D03*
X0779500D02*
D03*
X0777000D02*
D03*
X0787000Y0701500D02*
D03*
X0784500D02*
D03*
X0782000D02*
D03*
X0779500D02*
D03*
X0777000D02*
D03*
X0787000Y0704000D02*
D03*
X0784500D02*
D03*
X0782000D02*
D03*
X0779500D02*
D03*
X0777000D02*
D03*
Y0691500D02*
D03*
X0779500D02*
D03*
X0782000D02*
D03*
X0784500D02*
D03*
X0787000D02*
D03*
X0777000Y0689000D02*
D03*
X0779500D02*
D03*
X0782000D02*
D03*
X0784500D02*
D03*
X0787000D02*
D03*
X0777000Y0686500D02*
D03*
X0779500D02*
D03*
X0782000D02*
D03*
X0784500D02*
D03*
X0787000D02*
D03*
Y0684000D02*
D03*
X0784500D02*
D03*
X0782000D02*
D03*
X0779500D02*
D03*
X0777000D02*
D03*
X0871000Y0676000D02*
D03*
Y0678500D02*
D03*
Y0681000D02*
D03*
Y0683500D02*
D03*
Y0686000D02*
D03*
Y0688500D02*
D03*
X0873500Y0673500D02*
D03*
Y0676000D02*
D03*
Y0678500D02*
D03*
Y0681000D02*
D03*
X0876000Y0673500D02*
D03*
X0878500D02*
D03*
X0881000D02*
D03*
X0883500D02*
D03*
X0886000D02*
D03*
Y0676000D02*
D03*
X0883500D02*
D03*
X0881000D02*
D03*
X0878500D02*
D03*
X0876000D02*
D03*
X0886000Y0678500D02*
D03*
X0883500D02*
D03*
X0881000D02*
D03*
X0878500D02*
D03*
X0876000D02*
D03*
X0886000Y0681000D02*
D03*
X0883500D02*
D03*
X0881000D02*
D03*
X0878500D02*
D03*
X0876000D02*
D03*
Y0706000D02*
D03*
X0878500D02*
D03*
X0881000D02*
D03*
X0883500D02*
D03*
X0886000D02*
D03*
X0876000Y0703500D02*
D03*
X0878500D02*
D03*
X0881000D02*
D03*
X0883500D02*
D03*
X0886000D02*
D03*
X0876000Y0701000D02*
D03*
X0878500D02*
D03*
X0881000D02*
D03*
X0883500D02*
D03*
X0886000D02*
D03*
X0876000Y0698500D02*
D03*
X0878500D02*
D03*
X0881000D02*
D03*
X0883500D02*
D03*
X0886000D02*
D03*
X0876000Y0696000D02*
D03*
X0878500D02*
D03*
X0881000D02*
D03*
X0883500D02*
D03*
X0886000D02*
D03*
X0876000Y0693500D02*
D03*
X0878500D02*
D03*
X0881000D02*
D03*
X0883500D02*
D03*
X0886000D02*
D03*
X0873500Y0691000D02*
D03*
X0876000D02*
D03*
X0878500D02*
D03*
X0881000D02*
D03*
X0883500D02*
D03*
X0886000D02*
D03*
X0873500Y0688500D02*
D03*
X0876000D02*
D03*
X0878500D02*
D03*
X0881000D02*
D03*
X0883500D02*
D03*
X0886000D02*
D03*
X0873500Y0686000D02*
D03*
X0876000D02*
D03*
X0878500D02*
D03*
X0881000D02*
D03*
X0883500D02*
D03*
X0886000D02*
D03*
Y0683500D02*
D03*
X0883500D02*
D03*
X0881000D02*
D03*
X0878500D02*
D03*
X0876000D02*
D03*
X0873500D02*
D03*
X0603500Y0645000D02*
D03*
Y0642500D02*
D03*
Y0640000D02*
D03*
X0629500Y0593500D02*
D03*
X0635000Y0643500D02*
D03*
Y0571500D02*
D03*
X0682500Y0663000D02*
D03*
X0685000Y0660500D02*
D03*
X0757500Y0719000D02*
D03*
X0686500Y0599500D02*
D03*
X0735000Y0604500D02*
D03*
X0679500Y0579000D02*
D03*
Y0574000D02*
D03*
X0643000Y0566500D02*
D03*
X0826500Y0542000D02*
D03*
X0832500D02*
D03*
X0838500D02*
D03*
X0844500D02*
D03*
X0837000Y0577000D02*
D03*
X0847500Y0589500D02*
D03*
X0836000Y0593500D02*
D03*
X0833000D02*
D03*
X0662500Y0586500D02*
D03*
X0665000Y0584000D02*
D03*
X0667500Y0581500D02*
D03*
X0636000D02*
D03*
X0634500Y0584000D02*
D03*
X0671500Y0659500D02*
D03*
X0668500Y0592500D02*
D03*
X0661000D02*
D03*
X0623000Y0572500D02*
D03*
X0625000Y0557000D02*
D03*
X0607500Y0611500D02*
D03*
X0623000Y0579000D02*
D03*
Y0575500D02*
D03*
X0644500Y0591500D02*
D03*
X0651000Y0563000D02*
D03*
X0646000Y0572500D02*
D03*
X0651000D02*
D03*
X0646000Y0563000D02*
D03*
X0634500Y0595000D02*
D03*
X0825500Y0642500D02*
D03*
X0823000D02*
D03*
X0820500D02*
D03*
Y0645000D02*
D03*
X0823000D02*
D03*
X0825500D02*
D03*
X0820500Y0647500D02*
D03*
X0823000D02*
D03*
X0825500D02*
D03*
X0820500Y0650000D02*
D03*
X0823000D02*
D03*
X0825500D02*
D03*
X0820500Y0652500D02*
D03*
X0823000D02*
D03*
X0825500D02*
D03*
X0769000Y0641000D02*
D03*
X0766000Y0632000D02*
D03*
X0763000D02*
D03*
X0769000D02*
D03*
X0766000Y0635000D02*
D03*
X0763000D02*
D03*
X0769000D02*
D03*
Y0638000D02*
D03*
X0763000D02*
D03*
X0789500Y0602000D02*
D03*
X0568500Y0698500D02*
D03*
X0583500D02*
D03*
X0598500D02*
D03*
X0613500D02*
D03*
X0628500D02*
D03*
X0643500D02*
D03*
X0658500D02*
D03*
X0673500D02*
D03*
X0688500D02*
D03*
X0703500D02*
D03*
X0719000D02*
D03*
X0734500D02*
D03*
X0745000Y0709500D02*
D03*
X0826500Y0610500D02*
D03*
X0824000Y0613000D02*
D03*
X0821500Y0615500D02*
D03*
X0819000Y0618000D02*
D03*
X0836500Y0609500D02*
D03*
X0718000Y0560000D02*
D03*
X0714000D02*
D03*
Y0564000D02*
D03*
X0718000D02*
D03*
X0716000Y0562000D02*
D03*
X0821000Y0560500D02*
D03*
X0791000Y0599000D02*
D03*
X0728000Y0579500D02*
D03*
X0712500Y0587000D02*
D03*
X0698000Y0605500D02*
D03*
X0693000D02*
D03*
X0617000Y0611000D02*
D03*
X0598000Y0655500D02*
D03*
X0610000Y0605000D02*
D03*
X0608000Y0640000D02*
D03*
X0618500Y0635500D02*
D03*
X0616500Y0637500D02*
D03*
X0637500Y0595000D02*
D03*
X0641500Y0551500D02*
D03*
X0646500Y0553500D02*
D03*
X0676000Y0637500D02*
D03*
X0680500Y0633000D02*
D03*
X0679000Y0629000D02*
D03*
X0685000Y0620000D02*
D03*
X0746000Y0671500D02*
D03*
X0809000Y0657000D02*
D03*
Y0638000D02*
D03*
Y0635500D02*
D03*
X0770500Y0623000D02*
D03*
X0764500Y0625500D02*
D03*
X0751000Y0644000D02*
D03*
Y0641000D02*
D03*
X0651000Y0629000D02*
D03*
X0620000Y0678500D02*
D03*
X0616500D02*
D03*
X0575500Y0679500D02*
D03*
X0563500Y0698000D02*
D03*
Y0687500D02*
D03*
X0729500Y0698000D02*
D03*
X0714000D02*
D03*
X0698500D02*
D03*
X0683500D02*
D03*
X0668500D02*
D03*
X0653500D02*
D03*
X0638500D02*
D03*
X0623500D02*
D03*
X0608500D02*
D03*
X0593500D02*
D03*
X0578500D02*
D03*
X0695500Y0587500D02*
D03*
X0881000Y0729500D02*
D03*
X0883500D02*
D03*
X0886000D02*
D03*
X0878500D02*
D03*
X0876000D02*
D03*
X0881000Y0732000D02*
D03*
X0883500D02*
D03*
X0886000D02*
D03*
X0878500D02*
D03*
X0876000D02*
D03*
X0881000Y0734500D02*
D03*
X0883500D02*
D03*
X0886000D02*
D03*
X0878500D02*
D03*
X0876000D02*
D03*
X0873500Y0727000D02*
D03*
X0876000D02*
D03*
X0878500D02*
D03*
X0886000D02*
D03*
X0883500D02*
D03*
X0881000D02*
D03*
X0873500Y0724500D02*
D03*
X0876000D02*
D03*
X0878500D02*
D03*
X0886000D02*
D03*
X0883500D02*
D03*
X0881000D02*
D03*
X0873500Y0722000D02*
D03*
X0876000D02*
D03*
X0878500D02*
D03*
X0886000D02*
D03*
X0883500D02*
D03*
X0881000D02*
D03*
X0873500Y0719500D02*
D03*
X0876000D02*
D03*
X0878500D02*
D03*
X0886000D02*
D03*
X0883500D02*
D03*
X0881000D02*
D03*
X0873500Y0717000D02*
D03*
X0876000D02*
D03*
X0878500D02*
D03*
X0886000D02*
D03*
X0883500D02*
D03*
X0881000D02*
D03*
X0873500Y0714500D02*
D03*
X0876000D02*
D03*
X0878500D02*
D03*
X0886000D02*
D03*
X0883500D02*
D03*
X0881000D02*
D03*
Y0712000D02*
D03*
X0883500D02*
D03*
X0886000D02*
D03*
X0878500D02*
D03*
X0876000D02*
D03*
X0873500D02*
D03*
X0853500D02*
D03*
X0856000D02*
D03*
X0858500D02*
D03*
X0871000D02*
D03*
X0868500D02*
D03*
X0866000D02*
D03*
X0863500D02*
D03*
X0861000D02*
D03*
Y0714500D02*
D03*
X0863500D02*
D03*
X0866000D02*
D03*
X0868500D02*
D03*
X0871000D02*
D03*
X0858500D02*
D03*
X0856000D02*
D03*
X0853500D02*
D03*
X0851000D02*
D03*
X0861000Y0717000D02*
D03*
X0863500D02*
D03*
X0866000D02*
D03*
X0868500D02*
D03*
X0871000D02*
D03*
X0858500D02*
D03*
X0856000D02*
D03*
X0853500D02*
D03*
X0851000D02*
D03*
X0861000Y0719500D02*
D03*
X0863500D02*
D03*
X0866000D02*
D03*
X0868500D02*
D03*
X0871000D02*
D03*
X0858500D02*
D03*
X0856000D02*
D03*
X0853500D02*
D03*
X0851000D02*
D03*
X0861000Y0722000D02*
D03*
X0863500D02*
D03*
X0866000D02*
D03*
X0868500D02*
D03*
X0871000D02*
D03*
X0858500D02*
D03*
X0856000D02*
D03*
X0853500D02*
D03*
X0851000D02*
D03*
X0848500D02*
D03*
X0861000Y0724500D02*
D03*
X0863500D02*
D03*
X0866000D02*
D03*
X0868500D02*
D03*
X0871000D02*
D03*
X0858500D02*
D03*
X0856000D02*
D03*
X0853500D02*
D03*
X0851000D02*
D03*
X0848500D02*
D03*
X0875000Y0645000D02*
D03*
X0872500D02*
D03*
Y0647500D02*
D03*
X0875000D02*
D03*
Y0650000D02*
D03*
X0838500Y0552500D02*
D03*
X0727000Y0657000D02*
D03*
X0724000D02*
D03*
X0743000Y0671500D02*
D03*
X0746000Y0674500D02*
D03*
X0743000D02*
D03*
X0790500Y0661000D02*
D03*
Y0658500D02*
D03*
Y0656000D02*
D03*
Y0653500D02*
D03*
X0793000Y0661000D02*
D03*
Y0658500D02*
D03*
X0795500D02*
D03*
X0793000Y0656000D02*
D03*
X0795500D02*
D03*
X0793000Y0653500D02*
D03*
X0795500D02*
D03*
X0793000Y0651000D02*
D03*
Y0648500D02*
D03*
X0795500Y0651000D02*
D03*
X0798000D02*
D03*
X0795500Y0648500D02*
D03*
X0798000D02*
D03*
X0755000Y0719000D02*
D03*
X0832500Y0552500D02*
D03*
X0863500Y0630500D02*
D03*
X0813500Y0650500D02*
D03*
X0815000Y0657000D02*
D03*
X0812500D02*
D03*
X0809000Y0648500D02*
D03*
X0810500Y0650500D02*
D03*
X0809000Y0652500D02*
D03*
X0812000D02*
D03*
X0806500Y0627500D02*
D03*
X0809000D02*
D03*
X0811500D02*
D03*
Y0630000D02*
D03*
X0809000D02*
D03*
X0806500D02*
D03*
X0811500Y0632500D02*
D03*
X0809000D02*
D03*
X0806500D02*
D03*
X0812000Y0648500D02*
D03*
X0843000Y0724000D02*
D03*
X0773000Y0721500D02*
D03*
X0775500D02*
D03*
X0778000D02*
D03*
Y0724000D02*
D03*
X0775500D02*
D03*
X0773000D02*
D03*
X0778000Y0726500D02*
D03*
X0775500D02*
D03*
X0773000D02*
D03*
X0833000Y0701500D02*
D03*
X0830500D02*
D03*
Y0704000D02*
D03*
X0833000D02*
D03*
X0830500Y0706500D02*
D03*
X0833000D02*
D03*
X0830500Y0709000D02*
D03*
X0833000D02*
D03*
X0838000Y0701500D02*
D03*
X0835500D02*
D03*
Y0704000D02*
D03*
X0838000D02*
D03*
X0835500Y0706500D02*
D03*
X0838000D02*
D03*
X0835500Y0709000D02*
D03*
X0838000D02*
D03*
X0818000Y0711500D02*
D03*
X0820500D02*
D03*
X0823000D02*
D03*
X0825500D02*
D03*
X0838000D02*
D03*
X0835500D02*
D03*
X0833000D02*
D03*
X0830500D02*
D03*
X0828000D02*
D03*
Y0714000D02*
D03*
X0830500D02*
D03*
X0833000D02*
D03*
X0835500D02*
D03*
X0838000D02*
D03*
X0825500D02*
D03*
X0823000D02*
D03*
X0820500D02*
D03*
X0818000D02*
D03*
X0828000Y0716500D02*
D03*
X0830500D02*
D03*
X0833000D02*
D03*
X0835500D02*
D03*
X0838000D02*
D03*
X0825500D02*
D03*
X0823000D02*
D03*
X0820500D02*
D03*
X0818000D02*
D03*
X0828000Y0719000D02*
D03*
X0830500D02*
D03*
X0833000D02*
D03*
X0835500D02*
D03*
X0838000D02*
D03*
X0825500D02*
D03*
X0823000D02*
D03*
X0820500D02*
D03*
X0818000D02*
D03*
X0828000Y0721500D02*
D03*
X0830500D02*
D03*
X0833000D02*
D03*
X0835500D02*
D03*
X0838000D02*
D03*
X0825500D02*
D03*
X0823000D02*
D03*
X0820500D02*
D03*
X0818000D02*
D03*
X0828000Y0724000D02*
D03*
X0830500D02*
D03*
X0833000D02*
D03*
X0835500D02*
D03*
X0825500D02*
D03*
X0823000D02*
D03*
X0820500D02*
D03*
X0818000D02*
D03*
X0828000Y0726500D02*
D03*
X0830500D02*
D03*
X0833000D02*
D03*
X0835500D02*
D03*
X0838000D02*
D03*
X0825500D02*
D03*
X0823000D02*
D03*
X0820500D02*
D03*
X0818000D02*
D03*
X0828000Y0729000D02*
D03*
X0830500D02*
D03*
X0833000D02*
D03*
X0835500D02*
D03*
X0838000D02*
D03*
X0825500D02*
D03*
X0823000D02*
D03*
X0820500D02*
D03*
X0818000D02*
D03*
X0828000Y0731500D02*
D03*
X0830500D02*
D03*
X0833000D02*
D03*
X0835500D02*
D03*
X0838000D02*
D03*
X0825500D02*
D03*
X0823000D02*
D03*
X0820500D02*
D03*
X0818000D02*
D03*
X0828000Y0734000D02*
D03*
X0830500D02*
D03*
X0833000D02*
D03*
X0835500D02*
D03*
X0838000D02*
D03*
X0825500D02*
D03*
X0823000D02*
D03*
X0820500D02*
D03*
X0818000D02*
D03*
X0869000Y0620500D02*
D03*
X0661000Y0597000D02*
D03*
X0732000Y0684500D02*
D03*
X0716500D02*
D03*
X0701000D02*
D03*
X0686000D02*
D03*
X0671000D02*
D03*
X0656000D02*
D03*
X0626000D02*
D03*
X0611000D02*
D03*
X0596000D02*
D03*
X0581000D02*
D03*
X0566000D02*
D03*
X0833500Y0603500D02*
D03*
X0828500D02*
D03*
X0841000Y0643000D02*
D03*
X0766000Y0638000D02*
D03*
X0735000Y0684500D02*
D03*
X0719500D02*
D03*
X0704000D02*
D03*
X0569000D02*
D03*
X0584000D02*
D03*
X0689000D02*
D03*
X0674000D02*
D03*
X0659000D02*
D03*
X0644000D02*
D03*
X0629000D02*
D03*
X0599000D02*
D03*
X0614000D02*
D03*
X0843220Y0650100D02*
D03*
X0747500Y0713500D02*
D03*
X0746000Y0694500D02*
D03*
X0735000Y0646500D02*
D03*
X0682500Y0624500D02*
D03*
D153*
X0721134Y0593925D02*
D03*
X0719165D02*
D03*
X0717197D02*
D03*
X0715228D02*
D03*
X0713260D02*
D03*
X0711291D02*
D03*
X0709323D02*
D03*
X0707354D02*
D03*
X0705386D02*
D03*
X0703417D02*
D03*
X0701449D02*
D03*
X0699480D02*
D03*
X0697512D02*
D03*
X0695543D02*
D03*
X0693575D02*
D03*
X0691606D02*
D03*
X0689638D02*
D03*
X0687669D02*
D03*
X0685701D02*
D03*
X0683732D02*
D03*
X0681764D02*
D03*
X0679795D02*
D03*
X0677827D02*
D03*
X0675858D02*
D03*
X0673890D02*
D03*
Y0654949D02*
D03*
X0675858D02*
D03*
X0677827D02*
D03*
X0679795D02*
D03*
X0681764D02*
D03*
X0683732D02*
D03*
X0685701D02*
D03*
X0687669D02*
D03*
X0689638D02*
D03*
X0691606D02*
D03*
X0693575D02*
D03*
X0695543D02*
D03*
X0697512D02*
D03*
X0699480D02*
D03*
X0701449D02*
D03*
X0703417D02*
D03*
X0705386D02*
D03*
X0707354D02*
D03*
X0709323D02*
D03*
X0711291D02*
D03*
X0713260D02*
D03*
X0715228D02*
D03*
X0717197D02*
D03*
X0719165D02*
D03*
X0721134D02*
D03*
D154*
X0667000Y0600815D02*
D03*
Y0602783D02*
D03*
Y0604752D02*
D03*
Y0606720D02*
D03*
Y0608689D02*
D03*
Y0610657D02*
D03*
Y0612626D02*
D03*
Y0614594D02*
D03*
Y0616563D02*
D03*
Y0618531D02*
D03*
Y0620500D02*
D03*
Y0622468D02*
D03*
Y0624437D02*
D03*
Y0626405D02*
D03*
Y0628374D02*
D03*
Y0630343D02*
D03*
Y0632311D02*
D03*
Y0634280D02*
D03*
Y0636248D02*
D03*
Y0638217D02*
D03*
Y0640185D02*
D03*
Y0642154D02*
D03*
Y0644122D02*
D03*
Y0646091D02*
D03*
Y0648059D02*
D03*
X0728024D02*
D03*
Y0646091D02*
D03*
Y0644122D02*
D03*
Y0642154D02*
D03*
Y0640185D02*
D03*
Y0638217D02*
D03*
Y0636248D02*
D03*
Y0634280D02*
D03*
Y0632311D02*
D03*
Y0630343D02*
D03*
Y0628374D02*
D03*
Y0626405D02*
D03*
Y0624437D02*
D03*
Y0622469D02*
D03*
Y0620500D02*
D03*
Y0618531D02*
D03*
Y0616563D02*
D03*
Y0614594D02*
D03*
Y0612626D02*
D03*
Y0610657D02*
D03*
Y0608689D02*
D03*
Y0606720D02*
D03*
Y0604752D02*
D03*
Y0602783D02*
D03*
Y0600815D02*
D03*
D155*
X0694760Y0571811D02*
D03*
X0702240D02*
D03*
D156*
X0831000Y0648197D02*
D03*
Y0645598D02*
D03*
Y0643000D02*
D03*
Y0640402D02*
D03*
D157*
X0819248Y0648197D02*
D03*
Y0645598D02*
D03*
Y0643000D02*
D03*
Y0640402D02*
D03*
D158*
X0718488Y0668500D02*
D03*
X0729512D02*
D03*
X0872512Y0546500D02*
D03*
X0861488D02*
D03*
Y0555000D02*
D03*
X0872512D02*
D03*
D159*
X0653000Y0658823D02*
D03*
Y0647799D02*
D03*
D160*
X0785882Y0668500D02*
D03*
X0796118D02*
D03*
Y0677500D02*
D03*
X0785882D02*
D03*
X0796118Y0686500D02*
D03*
X0785882D02*
D03*
Y0713500D02*
D03*
X0796118D02*
D03*
Y0731500D02*
D03*
X0785882D02*
D03*
Y0722500D02*
D03*
X0796118D02*
D03*
Y0704500D02*
D03*
X0785882D02*
D03*
Y0695500D02*
D03*
X0796118D02*
D03*
D161*
X0862106Y0730500D02*
D03*
Y0725500D02*
D03*
Y0720500D02*
D03*
Y0710500D02*
D03*
Y0705500D02*
D03*
Y0700500D02*
D03*
D162*
X0821949Y0715500D02*
D03*
D163*
X0570240Y0692500D02*
D03*
X0562760D02*
D03*
X0585240D02*
D03*
X0577760D02*
D03*
X0600240D02*
D03*
X0592760D02*
D03*
X0615240D02*
D03*
X0607760D02*
D03*
X0630240D02*
D03*
X0622760D02*
D03*
X0645240D02*
D03*
X0637760D02*
D03*
X0660240D02*
D03*
X0652760D02*
D03*
X0675240D02*
D03*
X0667760D02*
D03*
X0690240D02*
D03*
X0682760D02*
D03*
X0705240D02*
D03*
X0697760D02*
D03*
X0720740D02*
D03*
X0713260D02*
D03*
X0736240D02*
D03*
X0728760D02*
D03*
X0767760Y0637000D02*
D03*
X0775240D02*
D03*
D164*
X0863402Y0690500D02*
D03*
X0848598D02*
D03*
X0874402Y0647500D02*
D03*
X0859598D02*
D03*
D165*
X0806920Y0590971D02*
D03*
Y0581128D02*
D03*
D166*
X0804259Y0597982D02*
D03*
X0801700Y0597982D02*
D03*
X0799140D02*
D03*
X0796581Y0597982D02*
D03*
X0804259Y0615502D02*
D03*
X0801700Y0615502D02*
D03*
X0799140D02*
D03*
X0796581Y0615502D02*
D03*
D167*
X0671849Y0543646D02*
D03*
Y0549354D02*
D03*
X0692321Y0543646D02*
D03*
X0692321Y0549354D02*
D03*
D168*
X0853457Y0648600D02*
D03*
X0850898D02*
D03*
X0848339D02*
D03*
X0845780D02*
D03*
X0843220D02*
D03*
X0840661D02*
D03*
X0838102D02*
D03*
X0835543D02*
D03*
Y0626400D02*
D03*
X0838102D02*
D03*
X0840661D02*
D03*
X0843220D02*
D03*
X0845780D02*
D03*
X0848339D02*
D03*
X0850898D02*
D03*
X0853457D02*
D03*
D169*
X0803650Y0640400D02*
D03*
D170*
X0813000Y0635200D02*
D03*
Y0637800D02*
D03*
Y0640400D02*
D03*
Y0643000D02*
D03*
Y0645600D02*
D03*
X0794300D02*
D03*
Y0643000D02*
D03*
Y0640400D02*
D03*
Y0637800D02*
D03*
Y0635200D02*
D03*
D171*
X0808850Y0649750D02*
D03*
X0806250D02*
D03*
X0803650D02*
D03*
X0801050D02*
D03*
X0798450D02*
D03*
Y0631050D02*
D03*
X0801050D02*
D03*
X0803650D02*
D03*
X0806250D02*
D03*
X0808850D02*
D03*
D172*
X0860898Y0564000D02*
D03*
X0873102D02*
D03*
D173*
X0774618Y0642323D02*
D03*
X0772059D02*
D03*
X0769500D02*
D03*
Y0650000D02*
D03*
X0772059D02*
D03*
X0774618D02*
D03*
D174*
X0772059Y0646161D02*
D03*
D175*
X0839535Y0595661D02*
D03*
Y0598220D02*
D03*
Y0600780D02*
D03*
Y0603339D02*
D03*
X0856465Y0595661D02*
D03*
Y0598220D02*
D03*
Y0600780D02*
D03*
Y0603339D02*
D03*
D176*
X0716020Y0561646D02*
D03*
Y0547866D02*
D03*
X0730980Y0561646D02*
D03*
D177*
X0766500Y0673512D02*
D03*
Y0662488D02*
D03*
D178*
X0730154Y0570756D02*
D03*
X0721846Y0573315D02*
D03*
Y0568197D02*
D03*
D179*
X0775500Y0723902D02*
D03*
Y0709098D02*
D03*
D180*
X0781500Y0641374D02*
D03*
Y0650626D02*
D03*
D181*
X0823185Y0644299D02*
D03*
M02*
