M48
;Layer_Color=9474304
;FILE_FORMAT=2:4
INCH
;TYPE=PLATED
T1F00S00C0.0100
T2F00S00C0.0315
T3F00S00C0.0354
T4F00S00C0.0394
T5F00S00C0.0472
T6F00S00C0.0512
T7F00S00C0.0748
T8F00S00C0.1220
%
T01
X082650Y054200
X083250
X083850
X084450
X085400Y054550
X085650
Y054800
X085400
X085150
X085150Y055050
X085400
Y055300
X085150
Y055550
X085400
Y055800
X085150
X085150Y056050
X085400
Y056300
X085650
Y056050
Y055800
Y055550
Y055300
Y055050
X083850Y055250
X083250
X082100Y056050
X083700Y057700
X083600Y059350
X083300
X083350Y060350
X082850
X082650Y061050
X082400Y061300
X082150Y061550
X081900Y061800
X081000Y060700
X078950Y060200
X079100Y059900
X079450Y059050
X084750Y058950
X083650Y060950
X086900Y062050
X077050Y062300
X075250
X075400Y060850
X075700
X076000
X075100
X074800
X074000Y060900
X073800Y060700
X073500Y060450
X072850Y059850
X072250Y060950
Y061250
X071250Y062450
X070750Y060500
X070150Y060250
X069800Y060550
X069300
X068650Y059950
X067800Y060900
Y061200
X068500Y062000
X068250Y062450
X066850Y059250
X066100
Y059700
X066250Y058650
X066500Y058400
X066750Y058150
X066150Y057650
X065600Y057250
X065100
X064600
X064300Y056650
X064600Y056300
X065100
X065500Y055300
X064650Y055350
X064150Y055150
X062500Y055700
X063500Y057150
X063600Y058150
X063450Y058400
Y059500
X063750
X064450Y059600
Y059150
X062950Y059350
X062650Y059500
X067950Y057900
Y057400
X069550Y058750
X071250Y058700
X071900Y057950
X072800
X071800Y056400
Y056000
X071400
Y056400
X071600Y056200
X070750Y055200
X071000Y054950
X070750Y054700
X076050Y057800
X075500Y059100
X062300Y057900
Y057550
Y057250
X061700Y061100
X060750Y061150
X061000Y060500
X060800Y062400
X060350
X058600Y056450
X054050Y060350
X053750
X056150Y063800
X056400
X060350Y064000
Y064250
Y064500
X060800Y064000
Y063450
X061850Y063550
X061650Y063750
X059800Y065050
Y065550
X058500Y066750
X058400Y068450
X058100
X057550Y067950
X056900Y068450
X056600
X056350Y068750
Y069800
X056850Y069850
X057850Y069800
X058350Y069850
X059350Y069800
X059850Y069850
X060850Y069800
X061350Y069850
X062350Y069800
X062000Y067850
X061650
X061400Y068450
X061100
X059900
X059600
X062600
X062900
X062850Y069850
X063850Y069800
X064350Y069850
X065350Y069800
X065850Y069850
X066850Y069800
X067350Y069850
X068350Y069800
X068850Y069850
X069850Y069800
X070350Y069850
X071400Y069800
X071900Y069850
X072950Y069800
X073450Y069850
X073500Y068450
X073200
X071950
X071650
X070400
X070100
X068900
X068600
X067400
X067100
X065900
X065600
X064400
X063500Y064350
X065700Y064200
X067150Y064050
X067600Y063750
X068050Y063300
X067900Y062900
X065100
X067150Y065950
X068250Y066300
X068500Y066050
X068950Y064850
X069400
X070550Y064400
X070900
X071650Y062850
X071450Y062650
X073550Y062550
X073800Y062800
X074050Y063050
X073500Y063300
Y064650
X075100Y064400
Y064100
X076000Y063800
Y063500
X076300
Y063200
X076600
Y062900
X076900
X077200
Y063200
X076900
Y063500
X076600
Y063800
X076900
Y064100
X076300Y063800
X076450Y062550
X077200Y067150
Y067400
Y067650
X077450
X077700
Y067400
Y067150
X077450
Y067400
X077950
Y067650
Y067900
X077700
Y068150
X077950
Y068400
Y068650
Y068900
Y069150
Y069400
X077700
X077450
Y069650
Y069900
X077200
Y070150
Y070400
X077450
Y070150
X077700
Y069900
Y069650
X077950
Y069900
Y070150
Y070400
Y070650
X077700
X077450
X077200
X077700Y070400
X077200Y069650
Y069400
Y069150
X077450
Y068900
X077200
Y068650
X077450
Y068400
Y068150
Y067900
X077200
Y068150
Y068400
X077700
Y068650
Y068900
Y069150
X077800Y072150
X077550
X077300
Y072400
X077550
X077800
Y072650
X077550
X077300
X076550Y072700
Y072950
Y073200
X076300
Y072950
Y072700
X076050
Y072950
Y073200
X075750Y071900
X075500
X074750Y071350
X074500Y070950
X074600Y069450
Y067450
Y067150
X074300
Y067450
X072700Y065700
X072400
X079050Y065600
Y065850
Y066100
X079300
Y065850
X079550
Y065600
X079300
Y065350
X079050
X079550
Y065100
X079300
Y064850
X079550
X079800
Y065100
X080900Y065250
X081200
X081350Y065050
X081050
X080900Y064850
X081200
X081250Y065700
X081500
X080900
X080800Y066850
Y067100
Y067350
X081050
Y067600
X081300
Y067850
X081550
X081800
Y068100
Y068350
X081550Y068100
Y067600
X081300Y067350
X081050Y067100
X080550
Y066850
X080300
Y066600
X080050
X080550
X078950Y067000
X078200Y067650
Y067900
X078450
Y068150
X078700
Y068400
X078950
Y068650
Y068900
Y069150
Y069400
Y069650
Y069900
Y070150
Y070400
Y070650
X078700
X078450
X078200
Y070400
Y070150
Y069900
Y069650
Y069400
X078450
X078700
Y069650
X078450
Y069900
X078700
Y070150
X078450
Y070400
X078700
X079300
Y070150
Y069900
X079550
Y070150
Y070400
Y070650
X079300
X078700Y069150
X078450
X078200
Y068900
X078450
X078700
Y068650
X078450
X078200
Y068400
Y068150
X078450Y068400
X081300Y071150
Y071400
Y071650
Y071900
Y072150
Y072400
Y072650
Y072900
Y073150
Y073400
X081550
Y073150
Y072900
Y072650
Y072400
Y072150
Y071900
Y071650
Y071400
Y071150
X081800
X082050
X082300
X082550
X082800
X083050
Y070900
Y070650
Y070400
Y070150
X083300
Y070400
Y070650
Y070900
X083550
Y070650
Y070400
Y070150
X083800
Y070400
Y070650
Y070900
Y071150
X083550
X083300
Y071400
X083050
X082800
X082550
X082300
X082050
X081800
Y071650
X082050
X082300
X082550
X082800
X083050
X083300
X083550
Y071400
X083800
Y071650
Y071900
X083550
X083300
X083050
X082800
X082550
X082300
X082050
X081800
Y072150
X082050
X082300
X082550
X082800
X083050
X083300
X083550
X083800
Y072400
X083550
X083300
X083050
X082800
X082550
X082300
X082050
X081800
Y072650
X082050
X082300
X082550
X082800
X083050
X083300
X083550
X083800
Y072900
X083550
X083300
X083050
X082800
X082550
X082300
X082050
X081800
Y073150
X082050
X082300
X082550
X082800
X083050
X083300
X083550
X083800
Y073400
X083550
X083300
X083050
X082800
X082550
X082300
X082050
X081800
X084300Y072400
X084600Y072200
Y071950
Y071700
X084850
Y071450
X085100
Y071200
X085350
X085600
X085850
X086100
X086350
X086600
X086850
X087100
X087350
Y071450
Y071700
Y071950
Y072200
Y072450
Y072700
Y072950
Y073200
Y073450
X087600
Y073200
Y072950
X087850
X088100
X088350
X088600
Y073200
X088350
X088100
X087850
Y073450
X088100
X088350
X088600
Y072700
X088350
X088100
X087850
X087600
Y072450
X087850
X088100
X088350
X088600
Y072200
X088350
X088100
X087850
X087600
Y071950
X087850
X088100
X088350
X088600
Y071700
X088350
X088100
X087850
X087600
Y071450
X087850
X088100
X088350
X088600
Y071200
X088350
X088100
X087850
X087600
Y070600
X087350
Y070350
Y070100
Y069850
Y069600
Y069350
X087600
Y069600
Y069850
Y070100
Y070350
X087850
Y070600
X088100
X088350
X088600
Y070350
X088350
X088100
Y070100
X087850
Y069850
X088100
X088350
Y070100
X088600
Y069850
Y069600
X088350
X088100
X087850
Y069350
X088100
X088350
X088600
Y069100
X088350
X088100
X087850
X087600
X087350
X087100
X086850
Y068850
Y068600
X086600
Y068350
Y068100
X086350
Y067850
X086600
Y067600
X086850
Y067350
X087100
Y067600
Y067850
X086850
Y068100
Y068350
X087100
Y068100
X087350
Y067850
Y067600
Y067350
Y067100
X087600
Y066850
Y066600
X087850
Y066850
Y067100
X088100
X088350
X088600
Y066850
X088350
X088100
Y066600
X088350
X088600
Y067350
X088350
X088100
X087850
X087600
Y067600
X087850
X088100
X088350
X088600
Y067850
X088350
X088100
X087850
X087600
Y068100
X087850
X088100
X088350
X088600
Y068350
Y068600
Y068850
X088350
X088100
X087850
X087600
X087350
X087100
Y068600
X087350
X087600
X087850
X088100
X088350
Y068350
X088100
X087850
X087600
X087350
X087300Y066800
X087001Y066799
X087000Y066500
X087250Y065000
Y064750
Y064500
X087500
Y064750
Y065000
X086350Y063050
X083800Y063350
X084100Y064300
X084322Y065010
X082550Y065000
Y064750
Y064500
Y064250
X082300
X082050
Y064500
X082300
Y064750
X082050
Y065000
X082300
Y065250
X082050
X082550
X083250Y066050
Y066300
Y066550
X084000Y068850
X084850Y071950
X085100
Y071700
X085350
Y071450
X085600
X085850
X086100
X086350
X086600
X086850
X087100
Y071700
X086850
X086600
X086350
X086100
X085850
X085600
Y071950
X085850
X086100
X086350
X086600
X086850
X087100
Y072200
X086850
X086600
X086350
X086100
X085850
X085600
X085350
Y071950
X085100Y072200
X084850
Y072450
X085100
X085350
X085600
X085850
X086100
X086350
X086600
X086850
X087100
X080900Y063800
Y063550
Y063250
Y063000
Y062750
X080650
Y063000
Y063250
X081150
Y063000
Y062750
T02
X078650Y054550
X079440
X080230
X079569Y056900
X078781
X081256
X082044
X077994
X077204
X076414
X075626
X075387Y054550
X074600
X073813
X077075
X077863
X067487Y056500
X066700
X056637Y055000
X055850
X055063
X054960Y065000
X055750
X056537
X057325
X057325Y066950
X056537
X055750
X054960
X054170
Y065000
X054550Y068713
Y069500
T03
X063000Y054450
X064000
X065000
X066000
X055800Y072200
X054800
Y073200
X055800
T04
X059026Y072250
X060010
X060994
X061979
X062963
X063947
X064932
X065916
X066900
X067884
X068868
X069853
X070837
T05
X075750Y065839
Y066824
Y067808
Y068792
Y069776
Y070761
T06
X056100Y058100
Y059600
Y061100
Y062600
T07
X068208Y054650
T08
X089850Y054750
X052400
Y072750
X089850
M30
